G04 #@! TF.GenerationSoftware,KiCad,Pcbnew,(5.1.10)-1*
G04 #@! TF.CreationDate,2021-12-02T13:22:16+01:00*
G04 #@! TF.ProjectId,brama,6272616d-612e-46b6-9963-61645f706362,rev?*
G04 #@! TF.SameCoordinates,Original*
G04 #@! TF.FileFunction,Copper,L1,Top*
G04 #@! TF.FilePolarity,Positive*
%FSLAX46Y46*%
G04 Gerber Fmt 4.6, Leading zero omitted, Abs format (unit mm)*
G04 Created by KiCad (PCBNEW (5.1.10)-1) date 2021-12-02 13:22:16*
%MOMM*%
%LPD*%
G01*
G04 APERTURE LIST*
G04 #@! TA.AperFunction,ComponentPad*
%ADD10C,1.600000*%
G04 #@! TD*
G04 #@! TA.AperFunction,ComponentPad*
%ADD11C,3.000000*%
G04 #@! TD*
G04 #@! TA.AperFunction,ComponentPad*
%ADD12R,3.000000X3.000000*%
G04 #@! TD*
G04 #@! TA.AperFunction,ComponentPad*
%ADD13O,1.600000X1.600000*%
G04 #@! TD*
G04 #@! TA.AperFunction,ComponentPad*
%ADD14C,1.524000*%
G04 #@! TD*
G04 #@! TA.AperFunction,ComponentPad*
%ADD15R,1.524000X1.524000*%
G04 #@! TD*
G04 #@! TA.AperFunction,ComponentPad*
%ADD16R,1.050000X1.500000*%
G04 #@! TD*
G04 #@! TA.AperFunction,ComponentPad*
%ADD17O,1.050000X1.500000*%
G04 #@! TD*
G04 #@! TA.AperFunction,ComponentPad*
%ADD18C,2.300000*%
G04 #@! TD*
G04 #@! TA.AperFunction,ComponentPad*
%ADD19R,2.000000X2.300000*%
G04 #@! TD*
G04 #@! TA.AperFunction,ComponentPad*
%ADD20C,2.000000*%
G04 #@! TD*
G04 #@! TA.AperFunction,ComponentPad*
%ADD21R,2.000000X2.000000*%
G04 #@! TD*
G04 #@! TA.AperFunction,ComponentPad*
%ADD22C,2.540000*%
G04 #@! TD*
G04 #@! TA.AperFunction,ComponentPad*
%ADD23C,1.800000*%
G04 #@! TD*
G04 #@! TA.AperFunction,ComponentPad*
%ADD24R,1.600000X1.600000*%
G04 #@! TD*
G04 #@! TA.AperFunction,ComponentPad*
%ADD25R,1.800000X1.800000*%
G04 #@! TD*
G04 #@! TA.AperFunction,Conductor*
%ADD26C,1.000000*%
G04 #@! TD*
G04 #@! TA.AperFunction,Conductor*
%ADD27C,3.000000*%
G04 #@! TD*
G04 APERTURE END LIST*
D10*
X209000000Y-67500000D03*
X209000000Y-65000000D03*
X204000000Y-67500000D03*
X204000000Y-65000000D03*
D11*
X160000000Y-54080000D03*
D12*
X160000000Y-49000000D03*
D10*
X185000000Y-76000000D03*
D13*
X195160000Y-76000000D03*
X185000000Y-71000000D03*
D10*
X195160000Y-71000000D03*
D14*
X243000000Y-97700000D03*
X240460000Y-97700000D03*
X237920000Y-97700000D03*
X235380000Y-97700000D03*
X232840000Y-97700000D03*
X230300000Y-97700000D03*
X227760000Y-97700000D03*
X225220000Y-97700000D03*
X222680000Y-97700000D03*
X220140000Y-97700000D03*
X217600000Y-97700000D03*
X215060000Y-97700000D03*
X212520000Y-97700000D03*
X209980000Y-97700000D03*
X207440000Y-97700000D03*
X207440000Y-72300000D03*
X209980000Y-72300000D03*
X212520000Y-72300000D03*
X215060000Y-72300000D03*
X217600000Y-72300000D03*
X220140000Y-72300000D03*
X222680000Y-72300000D03*
X225220000Y-72300000D03*
X227760000Y-72300000D03*
X230300000Y-72300000D03*
X232840000Y-72300000D03*
X235380000Y-72300000D03*
X237920000Y-72300000D03*
X240460000Y-72300000D03*
D15*
X243000000Y-72300000D03*
D16*
X193000000Y-93000000D03*
D17*
X190460000Y-93000000D03*
X191730000Y-93000000D03*
D11*
X160000000Y-75910000D03*
X160000000Y-70830000D03*
D12*
X160000000Y-65750000D03*
D18*
X239200000Y-65400000D03*
D19*
X234000000Y-36000000D03*
D18*
X229000000Y-36000000D03*
X223800000Y-65400000D03*
D20*
X214000000Y-55000000D03*
X189000000Y-55000000D03*
X214000000Y-40000000D03*
D21*
X189000000Y-40000000D03*
D22*
X176560000Y-65800000D03*
X169000000Y-65800000D03*
X176560000Y-70840000D03*
X169000000Y-70840000D03*
X176560000Y-75880000D03*
X169000000Y-75880000D03*
X176560000Y-91000000D03*
X169000000Y-91000000D03*
D23*
X172000000Y-47600000D03*
X179500000Y-49000000D03*
D13*
X185000000Y-81000000D03*
D10*
X195160000Y-81000000D03*
D11*
X182600000Y-38000000D03*
X160000000Y-38000000D03*
D13*
X187380000Y-87000000D03*
D24*
X195000000Y-87000000D03*
D23*
X160000000Y-85710000D03*
D25*
X160000000Y-88250000D03*
D10*
X216000000Y-67500000D03*
D24*
X216000000Y-65000000D03*
D20*
X180000000Y-57000000D03*
X170000000Y-57000000D03*
D26*
X177150000Y-91060000D02*
X177210000Y-91000000D01*
X195000000Y-81160000D02*
X195160000Y-81000000D01*
X192000000Y-90000000D02*
X195000000Y-87000000D01*
X177560000Y-90000000D02*
X192000000Y-90000000D01*
X176560000Y-91000000D02*
X177560000Y-90000000D01*
X195160000Y-86840000D02*
X195000000Y-87000000D01*
X204000000Y-65000000D02*
X209000000Y-65000000D01*
X198000000Y-78160000D02*
X195160000Y-81000000D01*
X198000000Y-67000000D02*
X198000000Y-78160000D01*
X200000000Y-65000000D02*
X198000000Y-67000000D01*
X204000000Y-65000000D02*
X200000000Y-65000000D01*
X201000000Y-81000000D02*
X195000000Y-87000000D01*
X201000000Y-68000000D02*
X201000000Y-81000000D01*
X204000000Y-65000000D02*
X201000000Y-68000000D01*
X223400000Y-65000000D02*
X223800000Y-65400000D01*
X216000000Y-65000000D02*
X223400000Y-65000000D01*
X206400000Y-62600000D02*
X204000000Y-65000000D01*
X213600000Y-62600000D02*
X206400000Y-62600000D01*
X216000000Y-65000000D02*
X213600000Y-62600000D01*
X206600000Y-71460000D02*
X207440000Y-72300000D01*
X206600000Y-67400000D02*
X206600000Y-71460000D01*
X209000000Y-65000000D02*
X206600000Y-67400000D01*
X185000000Y-83000000D02*
X185000000Y-81000000D01*
X182000000Y-86000000D02*
X185000000Y-83000000D01*
X160290000Y-86000000D02*
X182000000Y-86000000D01*
X160000000Y-85710000D02*
X160290000Y-86000000D01*
X162750000Y-91000000D02*
X160000000Y-88250000D01*
X169000000Y-91000000D02*
X162750000Y-91000000D01*
X185000000Y-71000000D02*
X185000000Y-76000000D01*
D27*
X168990000Y-70830000D02*
X169000000Y-70840000D01*
X160000000Y-70830000D02*
X168990000Y-70830000D01*
X169000000Y-70840000D02*
X176560000Y-70840000D01*
M02*
