M48
; DRILL file {KiCad (5.1.10)-1} date 12/02/21 13:22:52
; FORMAT={-:-/ absolute / metric / decimal}
; #@! TF.CreationDate,2021-12-02T13:22:52+01:00
; #@! TF.GenerationSoftware,Kicad,Pcbnew,(5.1.10)-1
; #@! TF.FileFunction,Plated,1,2,PTH
FMAT,2
METRIC
T1C0.750
T2C0.762
T3C0.800
T4C0.900
T5C1.000
T6C1.300
T7C1.500
T8C1.520
%
G90
G05
T1
X190.46Y-93.0
X191.73Y-93.0
X193.0Y-93.0
T2
X207.44Y-72.3
X207.44Y-97.7
X209.98Y-72.3
X209.98Y-97.7
X212.52Y-72.3
X212.52Y-97.7
X215.06Y-72.3
X215.06Y-97.7
X217.6Y-72.3
X217.6Y-97.7
X220.14Y-72.3
X220.14Y-97.7
X222.68Y-72.3
X222.68Y-97.7
X225.22Y-72.3
X225.22Y-97.7
X227.76Y-72.3
X227.76Y-97.7
X230.3Y-72.3
X230.3Y-97.7
X232.84Y-72.3
X232.84Y-97.7
X235.38Y-72.3
X235.38Y-97.7
X237.92Y-72.3
X237.92Y-97.7
X240.46Y-72.3
X240.46Y-97.7
X243.0Y-72.3
X243.0Y-97.7
T3
X172.0Y-47.6
X179.5Y-49.0
X185.0Y-71.0
X185.0Y-76.0
X185.0Y-81.0
X187.38Y-87.0
X195.0Y-87.0
X195.16Y-71.0
X195.16Y-76.0
X195.16Y-81.0
X204.0Y-65.0
X204.0Y-67.5
X209.0Y-65.0
X209.0Y-67.5
X216.0Y-65.0
X216.0Y-67.5
T4
X160.0Y-85.71
X160.0Y-88.25
X189.0Y-40.0
X189.0Y-55.0
X214.0Y-40.0
X214.0Y-55.0
T5
X170.0Y-57.0
X180.0Y-57.0
X223.8Y-65.4
X229.0Y-36.0
X234.0Y-36.0
X239.2Y-65.4
T6
X169.0Y-65.8
X169.0Y-70.84
X169.0Y-75.88
X169.0Y-91.0
X176.56Y-65.8
X176.56Y-70.84
X176.56Y-75.88
X176.56Y-91.0
T7
X160.0Y-38.0
X182.6Y-38.0
T8
X160.0Y-49.0
X160.0Y-54.08
X160.0Y-65.75
X160.0Y-70.83
X160.0Y-75.91
T0
M30
