%TF.GenerationSoftware,KiCad,Pcbnew,(5.1.10)-1*%
%TF.CreationDate,2021-11-22T17:18:02+01:00*%
%TF.ProjectId,termostat,7465726d-6f73-4746-9174-2e6b69636164,rev?*%
%TF.SameCoordinates,Original*%
%TF.FileFunction,Copper,L1,Top*%
%TF.FilePolarity,Positive*%
%FSLAX46Y46*%
G04 Gerber Fmt 4.6, Leading zero omitted, Abs format (unit mm)*
G04 Created by KiCad (PCBNEW (5.1.10)-1) date 2021-11-22 17:18:02*
%MOMM*%
%LPD*%
G01*
G04 APERTURE LIST*
%TA.AperFunction,ComponentPad*%
%ADD10C,1.700000*%
%TD*%
%TA.AperFunction,ComponentPad*%
%ADD11O,1.700000X1.700000*%
%TD*%
%TA.AperFunction,ComponentPad*%
%ADD12R,1.700000X1.700000*%
%TD*%
%TA.AperFunction,ComponentPad*%
%ADD13O,1.600000X1.600000*%
%TD*%
%TA.AperFunction,ComponentPad*%
%ADD14R,1.600000X1.600000*%
%TD*%
%TA.AperFunction,SMDPad,CuDef*%
%ADD15R,2.500000X1.000000*%
%TD*%
%TA.AperFunction,SMDPad,CuDef*%
%ADD16R,1.000000X2.500000*%
%TD*%
%TA.AperFunction,ComponentPad*%
%ADD17R,1.500000X1.050000*%
%TD*%
%TA.AperFunction,ComponentPad*%
%ADD18O,1.500000X1.050000*%
%TD*%
%TA.AperFunction,ComponentPad*%
%ADD19C,1.600000*%
%TD*%
%TA.AperFunction,ViaPad*%
%ADD20C,0.800000*%
%TD*%
%TA.AperFunction,Conductor*%
%ADD21C,0.250000*%
%TD*%
%TA.AperFunction,Conductor*%
%ADD22C,0.750000*%
%TD*%
%TA.AperFunction,Conductor*%
%ADD23C,0.254000*%
%TD*%
%TA.AperFunction,Conductor*%
%ADD24C,0.100000*%
%TD*%
G04 APERTURE END LIST*
D10*
X165630000Y-110460000D03*
X165630000Y-113000000D03*
X165630000Y-115540000D03*
D11*
X151000000Y-104580000D03*
X151000000Y-102040000D03*
D12*
X151000000Y-99500000D03*
D13*
X145240000Y-114060000D03*
X130000000Y-114060000D03*
X145240000Y-78500000D03*
X130000000Y-111520000D03*
X145240000Y-81040000D03*
X130000000Y-108980000D03*
X145240000Y-83580000D03*
X130000000Y-106440000D03*
X145240000Y-86120000D03*
X130000000Y-103900000D03*
X145240000Y-88660000D03*
X130000000Y-101360000D03*
X145240000Y-91200000D03*
X130000000Y-98820000D03*
X145240000Y-93740000D03*
X130000000Y-96280000D03*
X145240000Y-96280000D03*
X130000000Y-93740000D03*
X145240000Y-98820000D03*
X130000000Y-91200000D03*
X145240000Y-101360000D03*
X130000000Y-88660000D03*
X145240000Y-103900000D03*
X130000000Y-86120000D03*
X145240000Y-106440000D03*
X130000000Y-83580000D03*
X145240000Y-108980000D03*
X130000000Y-81040000D03*
X145240000Y-111520000D03*
D14*
X130000000Y-78500000D03*
D15*
X153280000Y-83010000D03*
X153280000Y-85010000D03*
X153280000Y-87010000D03*
X153280000Y-89010000D03*
D16*
X156130000Y-91610000D03*
X158130000Y-91610000D03*
X160130000Y-91610000D03*
X162130000Y-91610000D03*
D15*
X164980000Y-89010000D03*
X164980000Y-87010000D03*
X164980000Y-85010000D03*
D17*
X151500000Y-112500000D03*
D18*
X151500000Y-109960000D03*
X151500000Y-111230000D03*
D13*
X154840000Y-105000000D03*
D19*
X165000000Y-105000000D03*
D11*
X165000000Y-97460000D03*
D12*
X165000000Y-100000000D03*
D19*
X158000000Y-98500000D03*
D14*
X158000000Y-100500000D03*
D20*
X160500000Y-87000000D03*
X148274990Y-89000000D03*
X153500000Y-91500000D03*
X154500000Y-98500000D03*
X166500000Y-94000000D03*
X160750000Y-95000000D03*
D21*
X153280000Y-85010000D02*
X153470000Y-85200000D01*
X164885000Y-87105000D02*
X164980000Y-87010000D01*
D22*
X160510000Y-87010000D02*
X160500000Y-87000000D01*
X164980000Y-87010000D02*
X160510000Y-87010000D01*
X162510000Y-89010000D02*
X160500000Y-87000000D01*
X164980000Y-89010000D02*
X162510000Y-89010000D01*
X160500000Y-87000000D02*
X160500000Y-89000000D01*
X162130000Y-90630000D02*
X162130000Y-91610000D01*
X160500000Y-89000000D02*
X162130000Y-90630000D01*
X158510000Y-85010000D02*
X153280000Y-85010000D01*
X160500000Y-87000000D02*
X158510000Y-85010000D01*
D21*
X153280000Y-89010000D02*
X148284990Y-89010000D01*
X148284990Y-89010000D02*
X148274990Y-89000000D01*
X145500000Y-94000000D02*
X145240000Y-93740000D01*
X157240000Y-94000000D02*
X145500000Y-94000000D01*
X158130000Y-93110000D02*
X157240000Y-94000000D01*
X158130000Y-91610000D02*
X158130000Y-93110000D01*
X146270000Y-95250000D02*
X145240000Y-96280000D01*
X157990000Y-95250000D02*
X146270000Y-95250000D01*
X160130000Y-93110000D02*
X157990000Y-95250000D01*
X160130000Y-91610000D02*
X160130000Y-93110000D01*
X147560000Y-96500000D02*
X145240000Y-98820000D01*
X161500000Y-96500000D02*
X147560000Y-96500000D01*
X167500000Y-90500000D02*
X161500000Y-96500000D01*
X167500000Y-86030000D02*
X167500000Y-90500000D01*
X166480000Y-85010000D02*
X167500000Y-86030000D01*
X164980000Y-85010000D02*
X166480000Y-85010000D01*
X146890000Y-87010000D02*
X145240000Y-88660000D01*
X153280000Y-87010000D02*
X146890000Y-87010000D01*
X154840000Y-108890000D02*
X154840000Y-105000000D01*
X152500000Y-111230000D02*
X154840000Y-108890000D01*
X151500000Y-111230000D02*
X152500000Y-111230000D01*
D22*
X164500000Y-100500000D02*
X165000000Y-100000000D01*
X158000000Y-100500000D02*
X164500000Y-100500000D01*
X158000000Y-102830000D02*
X165630000Y-110460000D01*
X158000000Y-100500000D02*
X158000000Y-102830000D01*
X151000000Y-105760000D02*
X145240000Y-111520000D01*
X151000000Y-104580000D02*
X151000000Y-105760000D01*
D23*
X150805978Y-73166150D02*
X150855624Y-73329811D01*
X150873000Y-73506234D01*
X150873000Y-81000000D01*
X150873612Y-81012448D01*
X150892827Y-81207538D01*
X150897683Y-81231956D01*
X150954588Y-81419549D01*
X150964116Y-81442550D01*
X151056526Y-81615437D01*
X151070358Y-81636138D01*
X151194721Y-81787675D01*
X151212325Y-81805279D01*
X151363862Y-81929642D01*
X151384563Y-81943474D01*
X151557450Y-82035884D01*
X151580451Y-82045412D01*
X151591181Y-82048667D01*
X151578815Y-82058815D01*
X151499463Y-82155506D01*
X151440498Y-82265820D01*
X151404188Y-82385518D01*
X151391928Y-82510000D01*
X151391928Y-83510000D01*
X151404188Y-83634482D01*
X151440498Y-83754180D01*
X151499463Y-83864494D01*
X151578815Y-83961185D01*
X151638296Y-84010000D01*
X151578815Y-84058815D01*
X151499463Y-84155506D01*
X151440498Y-84265820D01*
X151404188Y-84385518D01*
X151391928Y-84510000D01*
X151391928Y-85510000D01*
X151404188Y-85634482D01*
X151440498Y-85754180D01*
X151499463Y-85864494D01*
X151578815Y-85961185D01*
X151638296Y-86010000D01*
X151578815Y-86058815D01*
X151499463Y-86155506D01*
X151448954Y-86250000D01*
X146927322Y-86250000D01*
X146889999Y-86246324D01*
X146852676Y-86250000D01*
X146852667Y-86250000D01*
X146741014Y-86260997D01*
X146670833Y-86282286D01*
X146675000Y-86261335D01*
X146675000Y-85978665D01*
X146619853Y-85701426D01*
X146511680Y-85440273D01*
X146354637Y-85205241D01*
X146154759Y-85005363D01*
X145922241Y-84850000D01*
X146154759Y-84694637D01*
X146354637Y-84494759D01*
X146511680Y-84259727D01*
X146619853Y-83998574D01*
X146675000Y-83721335D01*
X146675000Y-83438665D01*
X146619853Y-83161426D01*
X146511680Y-82900273D01*
X146354637Y-82665241D01*
X146154759Y-82465363D01*
X145922241Y-82310000D01*
X146154759Y-82154637D01*
X146354637Y-81954759D01*
X146511680Y-81719727D01*
X146619853Y-81458574D01*
X146675000Y-81181335D01*
X146675000Y-80898665D01*
X146619853Y-80621426D01*
X146511680Y-80360273D01*
X146354637Y-80125241D01*
X146154759Y-79925363D01*
X145922241Y-79770000D01*
X146154759Y-79614637D01*
X146354637Y-79414759D01*
X146511680Y-79179727D01*
X146619853Y-78918574D01*
X146675000Y-78641335D01*
X146675000Y-78358665D01*
X146619853Y-78081426D01*
X146511680Y-77820273D01*
X146354637Y-77585241D01*
X146154759Y-77385363D01*
X145919727Y-77228320D01*
X145658574Y-77120147D01*
X145381335Y-77065000D01*
X145098665Y-77065000D01*
X144821426Y-77120147D01*
X144560273Y-77228320D01*
X144325241Y-77385363D01*
X144125363Y-77585241D01*
X143968320Y-77820273D01*
X143860147Y-78081426D01*
X143805000Y-78358665D01*
X143805000Y-78641335D01*
X143860147Y-78918574D01*
X143968320Y-79179727D01*
X144125363Y-79414759D01*
X144325241Y-79614637D01*
X144557759Y-79770000D01*
X144325241Y-79925363D01*
X144125363Y-80125241D01*
X143968320Y-80360273D01*
X143860147Y-80621426D01*
X143805000Y-80898665D01*
X143805000Y-81181335D01*
X143860147Y-81458574D01*
X143968320Y-81719727D01*
X144125363Y-81954759D01*
X144325241Y-82154637D01*
X144557759Y-82310000D01*
X144325241Y-82465363D01*
X144125363Y-82665241D01*
X143968320Y-82900273D01*
X143860147Y-83161426D01*
X143805000Y-83438665D01*
X143805000Y-83721335D01*
X143860147Y-83998574D01*
X143968320Y-84259727D01*
X144125363Y-84494759D01*
X144325241Y-84694637D01*
X144557759Y-84850000D01*
X144325241Y-85005363D01*
X144125363Y-85205241D01*
X143968320Y-85440273D01*
X143860147Y-85701426D01*
X143805000Y-85978665D01*
X143805000Y-86261335D01*
X143860147Y-86538574D01*
X143968320Y-86799727D01*
X144125363Y-87034759D01*
X144325241Y-87234637D01*
X144557759Y-87390000D01*
X144325241Y-87545363D01*
X144125363Y-87745241D01*
X143968320Y-87980273D01*
X143860147Y-88241426D01*
X143805000Y-88518665D01*
X143805000Y-88801335D01*
X143860147Y-89078574D01*
X143968320Y-89339727D01*
X144125363Y-89574759D01*
X144325241Y-89774637D01*
X144557759Y-89930000D01*
X144325241Y-90085363D01*
X144125363Y-90285241D01*
X143968320Y-90520273D01*
X143860147Y-90781426D01*
X143805000Y-91058665D01*
X143805000Y-91341335D01*
X143860147Y-91618574D01*
X143968320Y-91879727D01*
X144125363Y-92114759D01*
X144325241Y-92314637D01*
X144557759Y-92470000D01*
X144325241Y-92625363D01*
X144125363Y-92825241D01*
X143968320Y-93060273D01*
X143860147Y-93321426D01*
X143805000Y-93598665D01*
X143805000Y-93881335D01*
X143860147Y-94158574D01*
X143968320Y-94419727D01*
X144125363Y-94654759D01*
X144325241Y-94854637D01*
X144557759Y-95010000D01*
X144325241Y-95165363D01*
X144125363Y-95365241D01*
X143968320Y-95600273D01*
X143860147Y-95861426D01*
X143805000Y-96138665D01*
X143805000Y-96421335D01*
X143860147Y-96698574D01*
X143968320Y-96959727D01*
X144125363Y-97194759D01*
X144325241Y-97394637D01*
X144557759Y-97550000D01*
X144325241Y-97705363D01*
X144125363Y-97905241D01*
X143968320Y-98140273D01*
X143860147Y-98401426D01*
X143805000Y-98678665D01*
X143805000Y-98961335D01*
X143860147Y-99238574D01*
X143968320Y-99499727D01*
X144125363Y-99734759D01*
X144325241Y-99934637D01*
X144557759Y-100090000D01*
X144325241Y-100245363D01*
X144125363Y-100445241D01*
X143968320Y-100680273D01*
X143860147Y-100941426D01*
X143805000Y-101218665D01*
X143805000Y-101501335D01*
X143860147Y-101778574D01*
X143968320Y-102039727D01*
X144125363Y-102274759D01*
X144325241Y-102474637D01*
X144557759Y-102630000D01*
X144325241Y-102785363D01*
X144125363Y-102985241D01*
X143968320Y-103220273D01*
X143860147Y-103481426D01*
X143805000Y-103758665D01*
X143805000Y-104041335D01*
X143860147Y-104318574D01*
X143968320Y-104579727D01*
X144125363Y-104814759D01*
X144325241Y-105014637D01*
X144557759Y-105170000D01*
X144325241Y-105325363D01*
X144125363Y-105525241D01*
X143968320Y-105760273D01*
X143860147Y-106021426D01*
X143805000Y-106298665D01*
X143805000Y-106581335D01*
X143860147Y-106858574D01*
X143968320Y-107119727D01*
X144125363Y-107354759D01*
X144325241Y-107554637D01*
X144557759Y-107710000D01*
X144325241Y-107865363D01*
X144125363Y-108065241D01*
X143968320Y-108300273D01*
X143860147Y-108561426D01*
X143805000Y-108838665D01*
X143805000Y-109121335D01*
X143860147Y-109398574D01*
X143968320Y-109659727D01*
X144125363Y-109894759D01*
X144325241Y-110094637D01*
X144557759Y-110250000D01*
X144325241Y-110405363D01*
X144125363Y-110605241D01*
X143968320Y-110840273D01*
X143860147Y-111101426D01*
X143805000Y-111378665D01*
X143805000Y-111661335D01*
X143860147Y-111938574D01*
X143968320Y-112199727D01*
X144125363Y-112434759D01*
X144325241Y-112634637D01*
X144557759Y-112790000D01*
X144325241Y-112945363D01*
X144125363Y-113145241D01*
X143968320Y-113380273D01*
X143860147Y-113641426D01*
X143805000Y-113918665D01*
X143805000Y-114201335D01*
X143860147Y-114478574D01*
X143968320Y-114739727D01*
X144125363Y-114974759D01*
X144325241Y-115174637D01*
X144560273Y-115331680D01*
X144821426Y-115439853D01*
X145098665Y-115495000D01*
X145381335Y-115495000D01*
X145658574Y-115439853D01*
X145919727Y-115331680D01*
X146154759Y-115174637D01*
X146354637Y-114974759D01*
X146511680Y-114739727D01*
X146619853Y-114478574D01*
X146675000Y-114201335D01*
X146675000Y-113918665D01*
X146619853Y-113641426D01*
X146511680Y-113380273D01*
X146354637Y-113145241D01*
X146154759Y-112945363D01*
X145922241Y-112790000D01*
X146154759Y-112634637D01*
X146354637Y-112434759D01*
X146511680Y-112199727D01*
X146619853Y-111938574D01*
X146675000Y-111661335D01*
X146675000Y-111513355D01*
X146958355Y-111230000D01*
X150109388Y-111230000D01*
X150131785Y-111457400D01*
X150195093Y-111666098D01*
X150160498Y-111730820D01*
X150124188Y-111850518D01*
X150111928Y-111975000D01*
X150111928Y-113025000D01*
X150124188Y-113149482D01*
X150160498Y-113269180D01*
X150219463Y-113379494D01*
X150298815Y-113476185D01*
X150395506Y-113555537D01*
X150505820Y-113614502D01*
X150625518Y-113650812D01*
X150750000Y-113663072D01*
X152250000Y-113663072D01*
X152374482Y-113650812D01*
X152494180Y-113614502D01*
X152604494Y-113555537D01*
X152701185Y-113476185D01*
X152780537Y-113379494D01*
X152839502Y-113269180D01*
X152875812Y-113149482D01*
X152888072Y-113025000D01*
X152888072Y-111975000D01*
X152879588Y-111888860D01*
X152924276Y-111864974D01*
X153040001Y-111770001D01*
X153063804Y-111740997D01*
X155351004Y-109453798D01*
X155380001Y-109430001D01*
X155474974Y-109314276D01*
X155545546Y-109182247D01*
X155589003Y-109038986D01*
X155600000Y-108927333D01*
X155600000Y-108927325D01*
X155603676Y-108890000D01*
X155600000Y-108852675D01*
X155600000Y-106218043D01*
X155754759Y-106114637D01*
X155954637Y-105914759D01*
X156111680Y-105679727D01*
X156219853Y-105418574D01*
X156275000Y-105141335D01*
X156275000Y-104858665D01*
X156219853Y-104581426D01*
X156111680Y-104320273D01*
X155954637Y-104085241D01*
X155754759Y-103885363D01*
X155519727Y-103728320D01*
X155258574Y-103620147D01*
X154981335Y-103565000D01*
X154698665Y-103565000D01*
X154421426Y-103620147D01*
X154160273Y-103728320D01*
X153925241Y-103885363D01*
X153725363Y-104085241D01*
X153568320Y-104320273D01*
X153460147Y-104581426D01*
X153405000Y-104858665D01*
X153405000Y-105141335D01*
X153460147Y-105418574D01*
X153568320Y-105679727D01*
X153725363Y-105914759D01*
X153925241Y-106114637D01*
X154080001Y-106218044D01*
X154080000Y-108575198D01*
X152822201Y-109832998D01*
X152718164Y-109832998D01*
X152843964Y-109654190D01*
X152835272Y-109592663D01*
X152742275Y-109383118D01*
X152610184Y-109195742D01*
X152444076Y-109037736D01*
X152250334Y-108915172D01*
X152036404Y-108832761D01*
X151810507Y-108793669D01*
X151627000Y-108953402D01*
X151627000Y-109833000D01*
X151647000Y-109833000D01*
X151647000Y-110070000D01*
X151218021Y-110070000D01*
X151047600Y-110086785D01*
X151046891Y-110087000D01*
X150281837Y-110087000D01*
X150156036Y-110265810D01*
X150164728Y-110327337D01*
X150257725Y-110536882D01*
X150298929Y-110595331D01*
X150198115Y-110783940D01*
X150131785Y-111002600D01*
X150109388Y-111230000D01*
X146958355Y-111230000D01*
X148534165Y-109654190D01*
X150156036Y-109654190D01*
X150281837Y-109833000D01*
X151373000Y-109833000D01*
X151373000Y-108953402D01*
X151189493Y-108793669D01*
X150963596Y-108832761D01*
X150749666Y-108915172D01*
X150555924Y-109037736D01*
X150389816Y-109195742D01*
X150257725Y-109383118D01*
X150164728Y-109592663D01*
X150156036Y-109654190D01*
X148534165Y-109654190D01*
X151679094Y-106509261D01*
X151717633Y-106477633D01*
X151843847Y-106323840D01*
X151937632Y-106148380D01*
X151995385Y-105957994D01*
X152010000Y-105809608D01*
X152010000Y-105809606D01*
X152014886Y-105760001D01*
X152010000Y-105710396D01*
X152010000Y-105670107D01*
X152153475Y-105526632D01*
X152315990Y-105283411D01*
X152427932Y-105013158D01*
X152485000Y-104726260D01*
X152485000Y-104433740D01*
X152427932Y-104146842D01*
X152315990Y-103876589D01*
X152153475Y-103633368D01*
X151946632Y-103426525D01*
X151764466Y-103304805D01*
X151881355Y-103235178D01*
X152097588Y-103040269D01*
X152271641Y-102806920D01*
X152396825Y-102544099D01*
X152441476Y-102396890D01*
X152320155Y-102167000D01*
X151127000Y-102167000D01*
X151127000Y-102187000D01*
X150873000Y-102187000D01*
X150873000Y-102167000D01*
X149679845Y-102167000D01*
X149558524Y-102396890D01*
X149603175Y-102544099D01*
X149728359Y-102806920D01*
X149902412Y-103040269D01*
X150118645Y-103235178D01*
X150235534Y-103304805D01*
X150053368Y-103426525D01*
X149846525Y-103633368D01*
X149684010Y-103876589D01*
X149572068Y-104146842D01*
X149515000Y-104433740D01*
X149515000Y-104726260D01*
X149572068Y-105013158D01*
X149684010Y-105283411D01*
X149829898Y-105501747D01*
X146644801Y-108686844D01*
X146619853Y-108561426D01*
X146511680Y-108300273D01*
X146354637Y-108065241D01*
X146154759Y-107865363D01*
X145922241Y-107710000D01*
X146154759Y-107554637D01*
X146354637Y-107354759D01*
X146511680Y-107119727D01*
X146619853Y-106858574D01*
X146675000Y-106581335D01*
X146675000Y-106298665D01*
X146619853Y-106021426D01*
X146511680Y-105760273D01*
X146354637Y-105525241D01*
X146154759Y-105325363D01*
X145922241Y-105170000D01*
X146154759Y-105014637D01*
X146354637Y-104814759D01*
X146511680Y-104579727D01*
X146619853Y-104318574D01*
X146675000Y-104041335D01*
X146675000Y-103758665D01*
X146619853Y-103481426D01*
X146511680Y-103220273D01*
X146354637Y-102985241D01*
X146154759Y-102785363D01*
X145922241Y-102630000D01*
X146154759Y-102474637D01*
X146354637Y-102274759D01*
X146511680Y-102039727D01*
X146619853Y-101778574D01*
X146675000Y-101501335D01*
X146675000Y-101218665D01*
X146619853Y-100941426D01*
X146511680Y-100680273D01*
X146354637Y-100445241D01*
X146154759Y-100245363D01*
X145922241Y-100090000D01*
X146154759Y-99934637D01*
X146354637Y-99734759D01*
X146511680Y-99499727D01*
X146619853Y-99238574D01*
X146675000Y-98961335D01*
X146675000Y-98678665D01*
X146669299Y-98650000D01*
X149511928Y-98650000D01*
X149511928Y-100350000D01*
X149524188Y-100474482D01*
X149560498Y-100594180D01*
X149619463Y-100704494D01*
X149698815Y-100801185D01*
X149795506Y-100880537D01*
X149905820Y-100939502D01*
X149986466Y-100963966D01*
X149902412Y-101039731D01*
X149728359Y-101273080D01*
X149603175Y-101535901D01*
X149558524Y-101683110D01*
X149679845Y-101913000D01*
X150873000Y-101913000D01*
X150873000Y-101893000D01*
X151127000Y-101893000D01*
X151127000Y-101913000D01*
X152320155Y-101913000D01*
X152441476Y-101683110D01*
X152396825Y-101535901D01*
X152271641Y-101273080D01*
X152097588Y-101039731D01*
X152013534Y-100963966D01*
X152094180Y-100939502D01*
X152204494Y-100880537D01*
X152301185Y-100801185D01*
X152380537Y-100704494D01*
X152439502Y-100594180D01*
X152475812Y-100474482D01*
X152488072Y-100350000D01*
X152488072Y-98650000D01*
X152475812Y-98525518D01*
X152439502Y-98405820D01*
X152380537Y-98295506D01*
X152301185Y-98198815D01*
X152204494Y-98119463D01*
X152094180Y-98060498D01*
X151974482Y-98024188D01*
X151850000Y-98011928D01*
X150150000Y-98011928D01*
X150025518Y-98024188D01*
X149905820Y-98060498D01*
X149795506Y-98119463D01*
X149698815Y-98198815D01*
X149619463Y-98295506D01*
X149560498Y-98405820D01*
X149524188Y-98525518D01*
X149511928Y-98650000D01*
X146669299Y-98650000D01*
X146638688Y-98496114D01*
X147874803Y-97260000D01*
X157272860Y-97260000D01*
X157085241Y-97385363D01*
X156885363Y-97585241D01*
X156728320Y-97820273D01*
X156620147Y-98081426D01*
X156565000Y-98358665D01*
X156565000Y-98641335D01*
X156620147Y-98918574D01*
X156728320Y-99179727D01*
X156765393Y-99235210D01*
X156748815Y-99248815D01*
X156669463Y-99345506D01*
X156610498Y-99455820D01*
X156574188Y-99575518D01*
X156561928Y-99700000D01*
X156561928Y-101300000D01*
X156574188Y-101424482D01*
X156610498Y-101544180D01*
X156669463Y-101654494D01*
X156748815Y-101751185D01*
X156845506Y-101830537D01*
X156955820Y-101889502D01*
X156990001Y-101899871D01*
X156990001Y-102780383D01*
X156985114Y-102830000D01*
X157004615Y-103027994D01*
X157062368Y-103218379D01*
X157138501Y-103360814D01*
X157156154Y-103393840D01*
X157282368Y-103547633D01*
X157320901Y-103579256D01*
X164145000Y-110403356D01*
X164145000Y-110606260D01*
X164202068Y-110893158D01*
X164314010Y-111163411D01*
X164476525Y-111406632D01*
X164683368Y-111613475D01*
X164857760Y-111730000D01*
X164683368Y-111846525D01*
X164476525Y-112053368D01*
X164314010Y-112296589D01*
X164202068Y-112566842D01*
X164145000Y-112853740D01*
X164145000Y-113146260D01*
X164202068Y-113433158D01*
X164314010Y-113703411D01*
X164476525Y-113946632D01*
X164683368Y-114153475D01*
X164856729Y-114269311D01*
X164781208Y-114511603D01*
X165630000Y-115360395D01*
X166478792Y-114511603D01*
X166403271Y-114269311D01*
X166576632Y-114153475D01*
X166783475Y-113946632D01*
X166945990Y-113703411D01*
X167057932Y-113433158D01*
X167115000Y-113146260D01*
X167115000Y-112853740D01*
X167057932Y-112566842D01*
X166945990Y-112296589D01*
X166783475Y-112053368D01*
X166576632Y-111846525D01*
X166402240Y-111730000D01*
X166576632Y-111613475D01*
X166783475Y-111406632D01*
X166945990Y-111163411D01*
X167057932Y-110893158D01*
X167115000Y-110606260D01*
X167115000Y-110313740D01*
X167057932Y-110026842D01*
X166945990Y-109756589D01*
X166783475Y-109513368D01*
X166576632Y-109306525D01*
X166333411Y-109144010D01*
X166063158Y-109032068D01*
X165776260Y-108975000D01*
X165573356Y-108975000D01*
X162591058Y-105992702D01*
X164186903Y-105992702D01*
X164258486Y-106236671D01*
X164513996Y-106357571D01*
X164788184Y-106426300D01*
X165070512Y-106440217D01*
X165350130Y-106398787D01*
X165616292Y-106303603D01*
X165741514Y-106236671D01*
X165813097Y-105992702D01*
X165000000Y-105179605D01*
X164186903Y-105992702D01*
X162591058Y-105992702D01*
X161668868Y-105070512D01*
X163559783Y-105070512D01*
X163601213Y-105350130D01*
X163696397Y-105616292D01*
X163763329Y-105741514D01*
X164007298Y-105813097D01*
X164820395Y-105000000D01*
X165179605Y-105000000D01*
X165992702Y-105813097D01*
X166236671Y-105741514D01*
X166357571Y-105486004D01*
X166426300Y-105211816D01*
X166440217Y-104929488D01*
X166398787Y-104649870D01*
X166303603Y-104383708D01*
X166236671Y-104258486D01*
X165992702Y-104186903D01*
X165179605Y-105000000D01*
X164820395Y-105000000D01*
X164007298Y-104186903D01*
X163763329Y-104258486D01*
X163642429Y-104513996D01*
X163573700Y-104788184D01*
X163559783Y-105070512D01*
X161668868Y-105070512D01*
X160605654Y-104007298D01*
X164186903Y-104007298D01*
X165000000Y-104820395D01*
X165813097Y-104007298D01*
X165741514Y-103763329D01*
X165486004Y-103642429D01*
X165211816Y-103573700D01*
X164929488Y-103559783D01*
X164649870Y-103601213D01*
X164383708Y-103696397D01*
X164258486Y-103763329D01*
X164186903Y-104007298D01*
X160605654Y-104007298D01*
X159010000Y-102411645D01*
X159010000Y-101899870D01*
X159044180Y-101889502D01*
X159154494Y-101830537D01*
X159251185Y-101751185D01*
X159330537Y-101654494D01*
X159389502Y-101544180D01*
X159399870Y-101510000D01*
X164450392Y-101510000D01*
X164500000Y-101514886D01*
X164697994Y-101495385D01*
X164722102Y-101488072D01*
X165850000Y-101488072D01*
X165974482Y-101475812D01*
X166094180Y-101439502D01*
X166204494Y-101380537D01*
X166301185Y-101301185D01*
X166380537Y-101204494D01*
X166439502Y-101094180D01*
X166475812Y-100974482D01*
X166488072Y-100850000D01*
X166488072Y-99150000D01*
X166475812Y-99025518D01*
X166439502Y-98905820D01*
X166380537Y-98795506D01*
X166301185Y-98698815D01*
X166204494Y-98619463D01*
X166094180Y-98560498D01*
X166021620Y-98538487D01*
X166153475Y-98406632D01*
X166315990Y-98163411D01*
X166427932Y-97893158D01*
X166485000Y-97606260D01*
X166485000Y-97313740D01*
X166427932Y-97026842D01*
X166315990Y-96756589D01*
X166153475Y-96513368D01*
X165946632Y-96306525D01*
X165703411Y-96144010D01*
X165433158Y-96032068D01*
X165146260Y-95975000D01*
X164853740Y-95975000D01*
X164566842Y-96032068D01*
X164296589Y-96144010D01*
X164053368Y-96306525D01*
X163846525Y-96513368D01*
X163684010Y-96756589D01*
X163572068Y-97026842D01*
X163515000Y-97313740D01*
X163515000Y-97606260D01*
X163572068Y-97893158D01*
X163684010Y-98163411D01*
X163846525Y-98406632D01*
X163978380Y-98538487D01*
X163905820Y-98560498D01*
X163795506Y-98619463D01*
X163698815Y-98698815D01*
X163619463Y-98795506D01*
X163560498Y-98905820D01*
X163524188Y-99025518D01*
X163511928Y-99150000D01*
X163511928Y-99490000D01*
X159399870Y-99490000D01*
X159389502Y-99455820D01*
X159330537Y-99345506D01*
X159251185Y-99248815D01*
X159234607Y-99235210D01*
X159271680Y-99179727D01*
X159379853Y-98918574D01*
X159435000Y-98641335D01*
X159435000Y-98358665D01*
X159379853Y-98081426D01*
X159271680Y-97820273D01*
X159114637Y-97585241D01*
X158914759Y-97385363D01*
X158727140Y-97260000D01*
X161462678Y-97260000D01*
X161500000Y-97263676D01*
X161537322Y-97260000D01*
X161537333Y-97260000D01*
X161648986Y-97249003D01*
X161792247Y-97205546D01*
X161924276Y-97134974D01*
X162040001Y-97040001D01*
X162063804Y-97010997D01*
X168011008Y-91063795D01*
X168040001Y-91040001D01*
X168063795Y-91011008D01*
X168063799Y-91011004D01*
X168134973Y-90924277D01*
X168145569Y-90904454D01*
X168205546Y-90792247D01*
X168249003Y-90648986D01*
X168260000Y-90537333D01*
X168260000Y-90537324D01*
X168263676Y-90500001D01*
X168260000Y-90462678D01*
X168260000Y-86067323D01*
X168263676Y-86030000D01*
X168260000Y-85992677D01*
X168260000Y-85992667D01*
X168249003Y-85881014D01*
X168205546Y-85737753D01*
X168134974Y-85605724D01*
X168040001Y-85489999D01*
X168011004Y-85466202D01*
X167043804Y-84499002D01*
X167020001Y-84469999D01*
X166904276Y-84375026D01*
X166842634Y-84342077D01*
X166819502Y-84265820D01*
X166760537Y-84155506D01*
X166681185Y-84058815D01*
X166584494Y-83979463D01*
X166474180Y-83920498D01*
X166354482Y-83884188D01*
X166230000Y-83871928D01*
X163730000Y-83871928D01*
X163605518Y-83884188D01*
X163485820Y-83920498D01*
X163375506Y-83979463D01*
X163278815Y-84058815D01*
X163199463Y-84155506D01*
X163140498Y-84265820D01*
X163104188Y-84385518D01*
X163091928Y-84510000D01*
X163091928Y-85510000D01*
X163104188Y-85634482D01*
X163140498Y-85754180D01*
X163199463Y-85864494D01*
X163278815Y-85961185D01*
X163326111Y-86000000D01*
X160928356Y-86000000D01*
X159259261Y-84330906D01*
X159227633Y-84292367D01*
X159073840Y-84166153D01*
X158898380Y-84072368D01*
X158707994Y-84014615D01*
X158559608Y-84000000D01*
X158510000Y-83995114D01*
X158460392Y-84000000D01*
X154933889Y-84000000D01*
X154981185Y-83961185D01*
X155060537Y-83864494D01*
X155119502Y-83754180D01*
X155155812Y-83634482D01*
X155168072Y-83510000D01*
X155168072Y-82510000D01*
X155155812Y-82385518D01*
X155119502Y-82265820D01*
X155060537Y-82155506D01*
X155037143Y-82127000D01*
X173493766Y-82127000D01*
X173670189Y-82144376D01*
X173833850Y-82194022D01*
X173840000Y-82197309D01*
X173840001Y-119340000D01*
X121660000Y-119340000D01*
X121660000Y-115779872D01*
X122765000Y-115779872D01*
X122765000Y-116220128D01*
X122850890Y-116651925D01*
X123019369Y-117058669D01*
X123263962Y-117424729D01*
X123575271Y-117736038D01*
X123941331Y-117980631D01*
X124348075Y-118149110D01*
X124779872Y-118235000D01*
X125220128Y-118235000D01*
X125651925Y-118149110D01*
X126058669Y-117980631D01*
X126424729Y-117736038D01*
X126736038Y-117424729D01*
X126980631Y-117058669D01*
X127149110Y-116651925D01*
X127165724Y-116568397D01*
X164781208Y-116568397D01*
X164858843Y-116817472D01*
X165122883Y-116943371D01*
X165406411Y-117015339D01*
X165698531Y-117030611D01*
X165988019Y-116988599D01*
X166263747Y-116890919D01*
X166401157Y-116817472D01*
X166478792Y-116568397D01*
X165630000Y-115719605D01*
X164781208Y-116568397D01*
X127165724Y-116568397D01*
X127235000Y-116220128D01*
X127235000Y-115779872D01*
X127200919Y-115608531D01*
X164139389Y-115608531D01*
X164181401Y-115898019D01*
X164279081Y-116173747D01*
X164352528Y-116311157D01*
X164601603Y-116388792D01*
X165450395Y-115540000D01*
X165809605Y-115540000D01*
X166658397Y-116388792D01*
X166907472Y-116311157D01*
X167033371Y-116047117D01*
X167101205Y-115779872D01*
X168265000Y-115779872D01*
X168265000Y-116220128D01*
X168350890Y-116651925D01*
X168519369Y-117058669D01*
X168763962Y-117424729D01*
X169075271Y-117736038D01*
X169441331Y-117980631D01*
X169848075Y-118149110D01*
X170279872Y-118235000D01*
X170720128Y-118235000D01*
X171151925Y-118149110D01*
X171558669Y-117980631D01*
X171924729Y-117736038D01*
X172236038Y-117424729D01*
X172480631Y-117058669D01*
X172649110Y-116651925D01*
X172735000Y-116220128D01*
X172735000Y-115779872D01*
X172649110Y-115348075D01*
X172480631Y-114941331D01*
X172236038Y-114575271D01*
X171924729Y-114263962D01*
X171558669Y-114019369D01*
X171151925Y-113850890D01*
X170720128Y-113765000D01*
X170279872Y-113765000D01*
X169848075Y-113850890D01*
X169441331Y-114019369D01*
X169075271Y-114263962D01*
X168763962Y-114575271D01*
X168519369Y-114941331D01*
X168350890Y-115348075D01*
X168265000Y-115779872D01*
X167101205Y-115779872D01*
X167105339Y-115763589D01*
X167120611Y-115471469D01*
X167078599Y-115181981D01*
X166980919Y-114906253D01*
X166907472Y-114768843D01*
X166658397Y-114691208D01*
X165809605Y-115540000D01*
X165450395Y-115540000D01*
X164601603Y-114691208D01*
X164352528Y-114768843D01*
X164226629Y-115032883D01*
X164154661Y-115316411D01*
X164139389Y-115608531D01*
X127200919Y-115608531D01*
X127149110Y-115348075D01*
X126980631Y-114941331D01*
X126736038Y-114575271D01*
X126424729Y-114263962D01*
X126058669Y-114019369D01*
X125651925Y-113850890D01*
X125220128Y-113765000D01*
X124779872Y-113765000D01*
X124348075Y-113850890D01*
X123941331Y-114019369D01*
X123575271Y-114263962D01*
X123263962Y-114575271D01*
X123019369Y-114941331D01*
X122850890Y-115348075D01*
X122765000Y-115779872D01*
X121660000Y-115779872D01*
X121660000Y-76279872D01*
X122765000Y-76279872D01*
X122765000Y-76720128D01*
X122850890Y-77151925D01*
X123019369Y-77558669D01*
X123263962Y-77924729D01*
X123575271Y-78236038D01*
X123941331Y-78480631D01*
X124348075Y-78649110D01*
X124779872Y-78735000D01*
X125220128Y-78735000D01*
X125651925Y-78649110D01*
X126058669Y-78480631D01*
X126424729Y-78236038D01*
X126736038Y-77924729D01*
X126886196Y-77700000D01*
X128561928Y-77700000D01*
X128561928Y-79300000D01*
X128574188Y-79424482D01*
X128610498Y-79544180D01*
X128669463Y-79654494D01*
X128748815Y-79751185D01*
X128845506Y-79830537D01*
X128955820Y-79889502D01*
X129075518Y-79925812D01*
X129083961Y-79926643D01*
X128885363Y-80125241D01*
X128728320Y-80360273D01*
X128620147Y-80621426D01*
X128565000Y-80898665D01*
X128565000Y-81181335D01*
X128620147Y-81458574D01*
X128728320Y-81719727D01*
X128885363Y-81954759D01*
X129085241Y-82154637D01*
X129317759Y-82310000D01*
X129085241Y-82465363D01*
X128885363Y-82665241D01*
X128728320Y-82900273D01*
X128620147Y-83161426D01*
X128565000Y-83438665D01*
X128565000Y-83721335D01*
X128620147Y-83998574D01*
X128728320Y-84259727D01*
X128885363Y-84494759D01*
X129085241Y-84694637D01*
X129317759Y-84850000D01*
X129085241Y-85005363D01*
X128885363Y-85205241D01*
X128728320Y-85440273D01*
X128620147Y-85701426D01*
X128565000Y-85978665D01*
X128565000Y-86261335D01*
X128620147Y-86538574D01*
X128728320Y-86799727D01*
X128885363Y-87034759D01*
X129085241Y-87234637D01*
X129317759Y-87390000D01*
X129085241Y-87545363D01*
X128885363Y-87745241D01*
X128728320Y-87980273D01*
X128620147Y-88241426D01*
X128565000Y-88518665D01*
X128565000Y-88801335D01*
X128620147Y-89078574D01*
X128728320Y-89339727D01*
X128885363Y-89574759D01*
X129085241Y-89774637D01*
X129317759Y-89930000D01*
X129085241Y-90085363D01*
X128885363Y-90285241D01*
X128728320Y-90520273D01*
X128620147Y-90781426D01*
X128565000Y-91058665D01*
X128565000Y-91341335D01*
X128620147Y-91618574D01*
X128728320Y-91879727D01*
X128885363Y-92114759D01*
X129085241Y-92314637D01*
X129317759Y-92470000D01*
X129085241Y-92625363D01*
X128885363Y-92825241D01*
X128728320Y-93060273D01*
X128620147Y-93321426D01*
X128565000Y-93598665D01*
X128565000Y-93881335D01*
X128620147Y-94158574D01*
X128728320Y-94419727D01*
X128885363Y-94654759D01*
X129085241Y-94854637D01*
X129317759Y-95010000D01*
X129085241Y-95165363D01*
X128885363Y-95365241D01*
X128728320Y-95600273D01*
X128620147Y-95861426D01*
X128565000Y-96138665D01*
X128565000Y-96421335D01*
X128620147Y-96698574D01*
X128728320Y-96959727D01*
X128885363Y-97194759D01*
X129085241Y-97394637D01*
X129317759Y-97550000D01*
X129085241Y-97705363D01*
X128885363Y-97905241D01*
X128728320Y-98140273D01*
X128620147Y-98401426D01*
X128565000Y-98678665D01*
X128565000Y-98961335D01*
X128620147Y-99238574D01*
X128728320Y-99499727D01*
X128885363Y-99734759D01*
X129085241Y-99934637D01*
X129317759Y-100090000D01*
X129085241Y-100245363D01*
X128885363Y-100445241D01*
X128728320Y-100680273D01*
X128620147Y-100941426D01*
X128565000Y-101218665D01*
X128565000Y-101501335D01*
X128620147Y-101778574D01*
X128728320Y-102039727D01*
X128885363Y-102274759D01*
X129085241Y-102474637D01*
X129317759Y-102630000D01*
X129085241Y-102785363D01*
X128885363Y-102985241D01*
X128728320Y-103220273D01*
X128620147Y-103481426D01*
X128565000Y-103758665D01*
X128565000Y-104041335D01*
X128620147Y-104318574D01*
X128728320Y-104579727D01*
X128885363Y-104814759D01*
X129085241Y-105014637D01*
X129317759Y-105170000D01*
X129085241Y-105325363D01*
X128885363Y-105525241D01*
X128728320Y-105760273D01*
X128620147Y-106021426D01*
X128565000Y-106298665D01*
X128565000Y-106581335D01*
X128620147Y-106858574D01*
X128728320Y-107119727D01*
X128885363Y-107354759D01*
X129085241Y-107554637D01*
X129317759Y-107710000D01*
X129085241Y-107865363D01*
X128885363Y-108065241D01*
X128728320Y-108300273D01*
X128620147Y-108561426D01*
X128565000Y-108838665D01*
X128565000Y-109121335D01*
X128620147Y-109398574D01*
X128728320Y-109659727D01*
X128885363Y-109894759D01*
X129085241Y-110094637D01*
X129317759Y-110250000D01*
X129085241Y-110405363D01*
X128885363Y-110605241D01*
X128728320Y-110840273D01*
X128620147Y-111101426D01*
X128565000Y-111378665D01*
X128565000Y-111661335D01*
X128620147Y-111938574D01*
X128728320Y-112199727D01*
X128885363Y-112434759D01*
X129085241Y-112634637D01*
X129317759Y-112790000D01*
X129085241Y-112945363D01*
X128885363Y-113145241D01*
X128728320Y-113380273D01*
X128620147Y-113641426D01*
X128565000Y-113918665D01*
X128565000Y-114201335D01*
X128620147Y-114478574D01*
X128728320Y-114739727D01*
X128885363Y-114974759D01*
X129085241Y-115174637D01*
X129320273Y-115331680D01*
X129581426Y-115439853D01*
X129858665Y-115495000D01*
X130141335Y-115495000D01*
X130418574Y-115439853D01*
X130679727Y-115331680D01*
X130914759Y-115174637D01*
X131114637Y-114974759D01*
X131271680Y-114739727D01*
X131379853Y-114478574D01*
X131435000Y-114201335D01*
X131435000Y-113918665D01*
X131379853Y-113641426D01*
X131271680Y-113380273D01*
X131114637Y-113145241D01*
X130914759Y-112945363D01*
X130682241Y-112790000D01*
X130914759Y-112634637D01*
X131114637Y-112434759D01*
X131271680Y-112199727D01*
X131379853Y-111938574D01*
X131435000Y-111661335D01*
X131435000Y-111378665D01*
X131379853Y-111101426D01*
X131271680Y-110840273D01*
X131114637Y-110605241D01*
X130914759Y-110405363D01*
X130682241Y-110250000D01*
X130914759Y-110094637D01*
X131114637Y-109894759D01*
X131271680Y-109659727D01*
X131379853Y-109398574D01*
X131435000Y-109121335D01*
X131435000Y-108838665D01*
X131379853Y-108561426D01*
X131271680Y-108300273D01*
X131114637Y-108065241D01*
X130914759Y-107865363D01*
X130682241Y-107710000D01*
X130914759Y-107554637D01*
X131114637Y-107354759D01*
X131271680Y-107119727D01*
X131379853Y-106858574D01*
X131435000Y-106581335D01*
X131435000Y-106298665D01*
X131379853Y-106021426D01*
X131271680Y-105760273D01*
X131114637Y-105525241D01*
X130914759Y-105325363D01*
X130682241Y-105170000D01*
X130914759Y-105014637D01*
X131114637Y-104814759D01*
X131271680Y-104579727D01*
X131379853Y-104318574D01*
X131435000Y-104041335D01*
X131435000Y-103758665D01*
X131379853Y-103481426D01*
X131271680Y-103220273D01*
X131114637Y-102985241D01*
X130914759Y-102785363D01*
X130682241Y-102630000D01*
X130914759Y-102474637D01*
X131114637Y-102274759D01*
X131271680Y-102039727D01*
X131379853Y-101778574D01*
X131435000Y-101501335D01*
X131435000Y-101218665D01*
X131379853Y-100941426D01*
X131271680Y-100680273D01*
X131114637Y-100445241D01*
X130914759Y-100245363D01*
X130682241Y-100090000D01*
X130914759Y-99934637D01*
X131114637Y-99734759D01*
X131271680Y-99499727D01*
X131379853Y-99238574D01*
X131435000Y-98961335D01*
X131435000Y-98678665D01*
X131379853Y-98401426D01*
X131271680Y-98140273D01*
X131114637Y-97905241D01*
X130914759Y-97705363D01*
X130682241Y-97550000D01*
X130914759Y-97394637D01*
X131114637Y-97194759D01*
X131271680Y-96959727D01*
X131379853Y-96698574D01*
X131435000Y-96421335D01*
X131435000Y-96138665D01*
X131379853Y-95861426D01*
X131271680Y-95600273D01*
X131114637Y-95365241D01*
X130914759Y-95165363D01*
X130682241Y-95010000D01*
X130914759Y-94854637D01*
X131114637Y-94654759D01*
X131271680Y-94419727D01*
X131379853Y-94158574D01*
X131435000Y-93881335D01*
X131435000Y-93598665D01*
X131379853Y-93321426D01*
X131271680Y-93060273D01*
X131114637Y-92825241D01*
X130914759Y-92625363D01*
X130682241Y-92470000D01*
X130914759Y-92314637D01*
X131114637Y-92114759D01*
X131271680Y-91879727D01*
X131379853Y-91618574D01*
X131435000Y-91341335D01*
X131435000Y-91058665D01*
X131379853Y-90781426D01*
X131271680Y-90520273D01*
X131114637Y-90285241D01*
X130914759Y-90085363D01*
X130682241Y-89930000D01*
X130914759Y-89774637D01*
X131114637Y-89574759D01*
X131271680Y-89339727D01*
X131379853Y-89078574D01*
X131435000Y-88801335D01*
X131435000Y-88518665D01*
X131379853Y-88241426D01*
X131271680Y-87980273D01*
X131114637Y-87745241D01*
X130914759Y-87545363D01*
X130682241Y-87390000D01*
X130914759Y-87234637D01*
X131114637Y-87034759D01*
X131271680Y-86799727D01*
X131379853Y-86538574D01*
X131435000Y-86261335D01*
X131435000Y-85978665D01*
X131379853Y-85701426D01*
X131271680Y-85440273D01*
X131114637Y-85205241D01*
X130914759Y-85005363D01*
X130682241Y-84850000D01*
X130914759Y-84694637D01*
X131114637Y-84494759D01*
X131271680Y-84259727D01*
X131379853Y-83998574D01*
X131435000Y-83721335D01*
X131435000Y-83438665D01*
X131379853Y-83161426D01*
X131271680Y-82900273D01*
X131114637Y-82665241D01*
X130914759Y-82465363D01*
X130682241Y-82310000D01*
X130914759Y-82154637D01*
X131114637Y-81954759D01*
X131271680Y-81719727D01*
X131379853Y-81458574D01*
X131435000Y-81181335D01*
X131435000Y-80898665D01*
X131379853Y-80621426D01*
X131271680Y-80360273D01*
X131114637Y-80125241D01*
X130916039Y-79926643D01*
X130924482Y-79925812D01*
X131044180Y-79889502D01*
X131154494Y-79830537D01*
X131251185Y-79751185D01*
X131330537Y-79654494D01*
X131389502Y-79544180D01*
X131425812Y-79424482D01*
X131438072Y-79300000D01*
X131438072Y-77700000D01*
X131425812Y-77575518D01*
X131389502Y-77455820D01*
X131330537Y-77345506D01*
X131251185Y-77248815D01*
X131154494Y-77169463D01*
X131044180Y-77110498D01*
X130924482Y-77074188D01*
X130800000Y-77061928D01*
X129200000Y-77061928D01*
X129075518Y-77074188D01*
X128955820Y-77110498D01*
X128845506Y-77169463D01*
X128748815Y-77248815D01*
X128669463Y-77345506D01*
X128610498Y-77455820D01*
X128574188Y-77575518D01*
X128561928Y-77700000D01*
X126886196Y-77700000D01*
X126980631Y-77558669D01*
X127149110Y-77151925D01*
X127235000Y-76720128D01*
X127235000Y-76279872D01*
X127149110Y-75848075D01*
X126980631Y-75441331D01*
X126736038Y-75075271D01*
X126424729Y-74763962D01*
X126058669Y-74519369D01*
X125651925Y-74350890D01*
X125220128Y-74265000D01*
X124779872Y-74265000D01*
X124348075Y-74350890D01*
X123941331Y-74519369D01*
X123575271Y-74763962D01*
X123263962Y-75075271D01*
X123019369Y-75441331D01*
X122850890Y-75848075D01*
X122765000Y-76279872D01*
X121660000Y-76279872D01*
X121660000Y-73160000D01*
X150802691Y-73160000D01*
X150805978Y-73166150D01*
%TA.AperFunction,Conductor*%
D24*
G36*
X150805978Y-73166150D02*
G01*
X150855624Y-73329811D01*
X150873000Y-73506234D01*
X150873000Y-81000000D01*
X150873612Y-81012448D01*
X150892827Y-81207538D01*
X150897683Y-81231956D01*
X150954588Y-81419549D01*
X150964116Y-81442550D01*
X151056526Y-81615437D01*
X151070358Y-81636138D01*
X151194721Y-81787675D01*
X151212325Y-81805279D01*
X151363862Y-81929642D01*
X151384563Y-81943474D01*
X151557450Y-82035884D01*
X151580451Y-82045412D01*
X151591181Y-82048667D01*
X151578815Y-82058815D01*
X151499463Y-82155506D01*
X151440498Y-82265820D01*
X151404188Y-82385518D01*
X151391928Y-82510000D01*
X151391928Y-83510000D01*
X151404188Y-83634482D01*
X151440498Y-83754180D01*
X151499463Y-83864494D01*
X151578815Y-83961185D01*
X151638296Y-84010000D01*
X151578815Y-84058815D01*
X151499463Y-84155506D01*
X151440498Y-84265820D01*
X151404188Y-84385518D01*
X151391928Y-84510000D01*
X151391928Y-85510000D01*
X151404188Y-85634482D01*
X151440498Y-85754180D01*
X151499463Y-85864494D01*
X151578815Y-85961185D01*
X151638296Y-86010000D01*
X151578815Y-86058815D01*
X151499463Y-86155506D01*
X151448954Y-86250000D01*
X146927322Y-86250000D01*
X146889999Y-86246324D01*
X146852676Y-86250000D01*
X146852667Y-86250000D01*
X146741014Y-86260997D01*
X146670833Y-86282286D01*
X146675000Y-86261335D01*
X146675000Y-85978665D01*
X146619853Y-85701426D01*
X146511680Y-85440273D01*
X146354637Y-85205241D01*
X146154759Y-85005363D01*
X145922241Y-84850000D01*
X146154759Y-84694637D01*
X146354637Y-84494759D01*
X146511680Y-84259727D01*
X146619853Y-83998574D01*
X146675000Y-83721335D01*
X146675000Y-83438665D01*
X146619853Y-83161426D01*
X146511680Y-82900273D01*
X146354637Y-82665241D01*
X146154759Y-82465363D01*
X145922241Y-82310000D01*
X146154759Y-82154637D01*
X146354637Y-81954759D01*
X146511680Y-81719727D01*
X146619853Y-81458574D01*
X146675000Y-81181335D01*
X146675000Y-80898665D01*
X146619853Y-80621426D01*
X146511680Y-80360273D01*
X146354637Y-80125241D01*
X146154759Y-79925363D01*
X145922241Y-79770000D01*
X146154759Y-79614637D01*
X146354637Y-79414759D01*
X146511680Y-79179727D01*
X146619853Y-78918574D01*
X146675000Y-78641335D01*
X146675000Y-78358665D01*
X146619853Y-78081426D01*
X146511680Y-77820273D01*
X146354637Y-77585241D01*
X146154759Y-77385363D01*
X145919727Y-77228320D01*
X145658574Y-77120147D01*
X145381335Y-77065000D01*
X145098665Y-77065000D01*
X144821426Y-77120147D01*
X144560273Y-77228320D01*
X144325241Y-77385363D01*
X144125363Y-77585241D01*
X143968320Y-77820273D01*
X143860147Y-78081426D01*
X143805000Y-78358665D01*
X143805000Y-78641335D01*
X143860147Y-78918574D01*
X143968320Y-79179727D01*
X144125363Y-79414759D01*
X144325241Y-79614637D01*
X144557759Y-79770000D01*
X144325241Y-79925363D01*
X144125363Y-80125241D01*
X143968320Y-80360273D01*
X143860147Y-80621426D01*
X143805000Y-80898665D01*
X143805000Y-81181335D01*
X143860147Y-81458574D01*
X143968320Y-81719727D01*
X144125363Y-81954759D01*
X144325241Y-82154637D01*
X144557759Y-82310000D01*
X144325241Y-82465363D01*
X144125363Y-82665241D01*
X143968320Y-82900273D01*
X143860147Y-83161426D01*
X143805000Y-83438665D01*
X143805000Y-83721335D01*
X143860147Y-83998574D01*
X143968320Y-84259727D01*
X144125363Y-84494759D01*
X144325241Y-84694637D01*
X144557759Y-84850000D01*
X144325241Y-85005363D01*
X144125363Y-85205241D01*
X143968320Y-85440273D01*
X143860147Y-85701426D01*
X143805000Y-85978665D01*
X143805000Y-86261335D01*
X143860147Y-86538574D01*
X143968320Y-86799727D01*
X144125363Y-87034759D01*
X144325241Y-87234637D01*
X144557759Y-87390000D01*
X144325241Y-87545363D01*
X144125363Y-87745241D01*
X143968320Y-87980273D01*
X143860147Y-88241426D01*
X143805000Y-88518665D01*
X143805000Y-88801335D01*
X143860147Y-89078574D01*
X143968320Y-89339727D01*
X144125363Y-89574759D01*
X144325241Y-89774637D01*
X144557759Y-89930000D01*
X144325241Y-90085363D01*
X144125363Y-90285241D01*
X143968320Y-90520273D01*
X143860147Y-90781426D01*
X143805000Y-91058665D01*
X143805000Y-91341335D01*
X143860147Y-91618574D01*
X143968320Y-91879727D01*
X144125363Y-92114759D01*
X144325241Y-92314637D01*
X144557759Y-92470000D01*
X144325241Y-92625363D01*
X144125363Y-92825241D01*
X143968320Y-93060273D01*
X143860147Y-93321426D01*
X143805000Y-93598665D01*
X143805000Y-93881335D01*
X143860147Y-94158574D01*
X143968320Y-94419727D01*
X144125363Y-94654759D01*
X144325241Y-94854637D01*
X144557759Y-95010000D01*
X144325241Y-95165363D01*
X144125363Y-95365241D01*
X143968320Y-95600273D01*
X143860147Y-95861426D01*
X143805000Y-96138665D01*
X143805000Y-96421335D01*
X143860147Y-96698574D01*
X143968320Y-96959727D01*
X144125363Y-97194759D01*
X144325241Y-97394637D01*
X144557759Y-97550000D01*
X144325241Y-97705363D01*
X144125363Y-97905241D01*
X143968320Y-98140273D01*
X143860147Y-98401426D01*
X143805000Y-98678665D01*
X143805000Y-98961335D01*
X143860147Y-99238574D01*
X143968320Y-99499727D01*
X144125363Y-99734759D01*
X144325241Y-99934637D01*
X144557759Y-100090000D01*
X144325241Y-100245363D01*
X144125363Y-100445241D01*
X143968320Y-100680273D01*
X143860147Y-100941426D01*
X143805000Y-101218665D01*
X143805000Y-101501335D01*
X143860147Y-101778574D01*
X143968320Y-102039727D01*
X144125363Y-102274759D01*
X144325241Y-102474637D01*
X144557759Y-102630000D01*
X144325241Y-102785363D01*
X144125363Y-102985241D01*
X143968320Y-103220273D01*
X143860147Y-103481426D01*
X143805000Y-103758665D01*
X143805000Y-104041335D01*
X143860147Y-104318574D01*
X143968320Y-104579727D01*
X144125363Y-104814759D01*
X144325241Y-105014637D01*
X144557759Y-105170000D01*
X144325241Y-105325363D01*
X144125363Y-105525241D01*
X143968320Y-105760273D01*
X143860147Y-106021426D01*
X143805000Y-106298665D01*
X143805000Y-106581335D01*
X143860147Y-106858574D01*
X143968320Y-107119727D01*
X144125363Y-107354759D01*
X144325241Y-107554637D01*
X144557759Y-107710000D01*
X144325241Y-107865363D01*
X144125363Y-108065241D01*
X143968320Y-108300273D01*
X143860147Y-108561426D01*
X143805000Y-108838665D01*
X143805000Y-109121335D01*
X143860147Y-109398574D01*
X143968320Y-109659727D01*
X144125363Y-109894759D01*
X144325241Y-110094637D01*
X144557759Y-110250000D01*
X144325241Y-110405363D01*
X144125363Y-110605241D01*
X143968320Y-110840273D01*
X143860147Y-111101426D01*
X143805000Y-111378665D01*
X143805000Y-111661335D01*
X143860147Y-111938574D01*
X143968320Y-112199727D01*
X144125363Y-112434759D01*
X144325241Y-112634637D01*
X144557759Y-112790000D01*
X144325241Y-112945363D01*
X144125363Y-113145241D01*
X143968320Y-113380273D01*
X143860147Y-113641426D01*
X143805000Y-113918665D01*
X143805000Y-114201335D01*
X143860147Y-114478574D01*
X143968320Y-114739727D01*
X144125363Y-114974759D01*
X144325241Y-115174637D01*
X144560273Y-115331680D01*
X144821426Y-115439853D01*
X145098665Y-115495000D01*
X145381335Y-115495000D01*
X145658574Y-115439853D01*
X145919727Y-115331680D01*
X146154759Y-115174637D01*
X146354637Y-114974759D01*
X146511680Y-114739727D01*
X146619853Y-114478574D01*
X146675000Y-114201335D01*
X146675000Y-113918665D01*
X146619853Y-113641426D01*
X146511680Y-113380273D01*
X146354637Y-113145241D01*
X146154759Y-112945363D01*
X145922241Y-112790000D01*
X146154759Y-112634637D01*
X146354637Y-112434759D01*
X146511680Y-112199727D01*
X146619853Y-111938574D01*
X146675000Y-111661335D01*
X146675000Y-111513355D01*
X146958355Y-111230000D01*
X150109388Y-111230000D01*
X150131785Y-111457400D01*
X150195093Y-111666098D01*
X150160498Y-111730820D01*
X150124188Y-111850518D01*
X150111928Y-111975000D01*
X150111928Y-113025000D01*
X150124188Y-113149482D01*
X150160498Y-113269180D01*
X150219463Y-113379494D01*
X150298815Y-113476185D01*
X150395506Y-113555537D01*
X150505820Y-113614502D01*
X150625518Y-113650812D01*
X150750000Y-113663072D01*
X152250000Y-113663072D01*
X152374482Y-113650812D01*
X152494180Y-113614502D01*
X152604494Y-113555537D01*
X152701185Y-113476185D01*
X152780537Y-113379494D01*
X152839502Y-113269180D01*
X152875812Y-113149482D01*
X152888072Y-113025000D01*
X152888072Y-111975000D01*
X152879588Y-111888860D01*
X152924276Y-111864974D01*
X153040001Y-111770001D01*
X153063804Y-111740997D01*
X155351004Y-109453798D01*
X155380001Y-109430001D01*
X155474974Y-109314276D01*
X155545546Y-109182247D01*
X155589003Y-109038986D01*
X155600000Y-108927333D01*
X155600000Y-108927325D01*
X155603676Y-108890000D01*
X155600000Y-108852675D01*
X155600000Y-106218043D01*
X155754759Y-106114637D01*
X155954637Y-105914759D01*
X156111680Y-105679727D01*
X156219853Y-105418574D01*
X156275000Y-105141335D01*
X156275000Y-104858665D01*
X156219853Y-104581426D01*
X156111680Y-104320273D01*
X155954637Y-104085241D01*
X155754759Y-103885363D01*
X155519727Y-103728320D01*
X155258574Y-103620147D01*
X154981335Y-103565000D01*
X154698665Y-103565000D01*
X154421426Y-103620147D01*
X154160273Y-103728320D01*
X153925241Y-103885363D01*
X153725363Y-104085241D01*
X153568320Y-104320273D01*
X153460147Y-104581426D01*
X153405000Y-104858665D01*
X153405000Y-105141335D01*
X153460147Y-105418574D01*
X153568320Y-105679727D01*
X153725363Y-105914759D01*
X153925241Y-106114637D01*
X154080001Y-106218044D01*
X154080000Y-108575198D01*
X152822201Y-109832998D01*
X152718164Y-109832998D01*
X152843964Y-109654190D01*
X152835272Y-109592663D01*
X152742275Y-109383118D01*
X152610184Y-109195742D01*
X152444076Y-109037736D01*
X152250334Y-108915172D01*
X152036404Y-108832761D01*
X151810507Y-108793669D01*
X151627000Y-108953402D01*
X151627000Y-109833000D01*
X151647000Y-109833000D01*
X151647000Y-110070000D01*
X151218021Y-110070000D01*
X151047600Y-110086785D01*
X151046891Y-110087000D01*
X150281837Y-110087000D01*
X150156036Y-110265810D01*
X150164728Y-110327337D01*
X150257725Y-110536882D01*
X150298929Y-110595331D01*
X150198115Y-110783940D01*
X150131785Y-111002600D01*
X150109388Y-111230000D01*
X146958355Y-111230000D01*
X148534165Y-109654190D01*
X150156036Y-109654190D01*
X150281837Y-109833000D01*
X151373000Y-109833000D01*
X151373000Y-108953402D01*
X151189493Y-108793669D01*
X150963596Y-108832761D01*
X150749666Y-108915172D01*
X150555924Y-109037736D01*
X150389816Y-109195742D01*
X150257725Y-109383118D01*
X150164728Y-109592663D01*
X150156036Y-109654190D01*
X148534165Y-109654190D01*
X151679094Y-106509261D01*
X151717633Y-106477633D01*
X151843847Y-106323840D01*
X151937632Y-106148380D01*
X151995385Y-105957994D01*
X152010000Y-105809608D01*
X152010000Y-105809606D01*
X152014886Y-105760001D01*
X152010000Y-105710396D01*
X152010000Y-105670107D01*
X152153475Y-105526632D01*
X152315990Y-105283411D01*
X152427932Y-105013158D01*
X152485000Y-104726260D01*
X152485000Y-104433740D01*
X152427932Y-104146842D01*
X152315990Y-103876589D01*
X152153475Y-103633368D01*
X151946632Y-103426525D01*
X151764466Y-103304805D01*
X151881355Y-103235178D01*
X152097588Y-103040269D01*
X152271641Y-102806920D01*
X152396825Y-102544099D01*
X152441476Y-102396890D01*
X152320155Y-102167000D01*
X151127000Y-102167000D01*
X151127000Y-102187000D01*
X150873000Y-102187000D01*
X150873000Y-102167000D01*
X149679845Y-102167000D01*
X149558524Y-102396890D01*
X149603175Y-102544099D01*
X149728359Y-102806920D01*
X149902412Y-103040269D01*
X150118645Y-103235178D01*
X150235534Y-103304805D01*
X150053368Y-103426525D01*
X149846525Y-103633368D01*
X149684010Y-103876589D01*
X149572068Y-104146842D01*
X149515000Y-104433740D01*
X149515000Y-104726260D01*
X149572068Y-105013158D01*
X149684010Y-105283411D01*
X149829898Y-105501747D01*
X146644801Y-108686844D01*
X146619853Y-108561426D01*
X146511680Y-108300273D01*
X146354637Y-108065241D01*
X146154759Y-107865363D01*
X145922241Y-107710000D01*
X146154759Y-107554637D01*
X146354637Y-107354759D01*
X146511680Y-107119727D01*
X146619853Y-106858574D01*
X146675000Y-106581335D01*
X146675000Y-106298665D01*
X146619853Y-106021426D01*
X146511680Y-105760273D01*
X146354637Y-105525241D01*
X146154759Y-105325363D01*
X145922241Y-105170000D01*
X146154759Y-105014637D01*
X146354637Y-104814759D01*
X146511680Y-104579727D01*
X146619853Y-104318574D01*
X146675000Y-104041335D01*
X146675000Y-103758665D01*
X146619853Y-103481426D01*
X146511680Y-103220273D01*
X146354637Y-102985241D01*
X146154759Y-102785363D01*
X145922241Y-102630000D01*
X146154759Y-102474637D01*
X146354637Y-102274759D01*
X146511680Y-102039727D01*
X146619853Y-101778574D01*
X146675000Y-101501335D01*
X146675000Y-101218665D01*
X146619853Y-100941426D01*
X146511680Y-100680273D01*
X146354637Y-100445241D01*
X146154759Y-100245363D01*
X145922241Y-100090000D01*
X146154759Y-99934637D01*
X146354637Y-99734759D01*
X146511680Y-99499727D01*
X146619853Y-99238574D01*
X146675000Y-98961335D01*
X146675000Y-98678665D01*
X146669299Y-98650000D01*
X149511928Y-98650000D01*
X149511928Y-100350000D01*
X149524188Y-100474482D01*
X149560498Y-100594180D01*
X149619463Y-100704494D01*
X149698815Y-100801185D01*
X149795506Y-100880537D01*
X149905820Y-100939502D01*
X149986466Y-100963966D01*
X149902412Y-101039731D01*
X149728359Y-101273080D01*
X149603175Y-101535901D01*
X149558524Y-101683110D01*
X149679845Y-101913000D01*
X150873000Y-101913000D01*
X150873000Y-101893000D01*
X151127000Y-101893000D01*
X151127000Y-101913000D01*
X152320155Y-101913000D01*
X152441476Y-101683110D01*
X152396825Y-101535901D01*
X152271641Y-101273080D01*
X152097588Y-101039731D01*
X152013534Y-100963966D01*
X152094180Y-100939502D01*
X152204494Y-100880537D01*
X152301185Y-100801185D01*
X152380537Y-100704494D01*
X152439502Y-100594180D01*
X152475812Y-100474482D01*
X152488072Y-100350000D01*
X152488072Y-98650000D01*
X152475812Y-98525518D01*
X152439502Y-98405820D01*
X152380537Y-98295506D01*
X152301185Y-98198815D01*
X152204494Y-98119463D01*
X152094180Y-98060498D01*
X151974482Y-98024188D01*
X151850000Y-98011928D01*
X150150000Y-98011928D01*
X150025518Y-98024188D01*
X149905820Y-98060498D01*
X149795506Y-98119463D01*
X149698815Y-98198815D01*
X149619463Y-98295506D01*
X149560498Y-98405820D01*
X149524188Y-98525518D01*
X149511928Y-98650000D01*
X146669299Y-98650000D01*
X146638688Y-98496114D01*
X147874803Y-97260000D01*
X157272860Y-97260000D01*
X157085241Y-97385363D01*
X156885363Y-97585241D01*
X156728320Y-97820273D01*
X156620147Y-98081426D01*
X156565000Y-98358665D01*
X156565000Y-98641335D01*
X156620147Y-98918574D01*
X156728320Y-99179727D01*
X156765393Y-99235210D01*
X156748815Y-99248815D01*
X156669463Y-99345506D01*
X156610498Y-99455820D01*
X156574188Y-99575518D01*
X156561928Y-99700000D01*
X156561928Y-101300000D01*
X156574188Y-101424482D01*
X156610498Y-101544180D01*
X156669463Y-101654494D01*
X156748815Y-101751185D01*
X156845506Y-101830537D01*
X156955820Y-101889502D01*
X156990001Y-101899871D01*
X156990001Y-102780383D01*
X156985114Y-102830000D01*
X157004615Y-103027994D01*
X157062368Y-103218379D01*
X157138501Y-103360814D01*
X157156154Y-103393840D01*
X157282368Y-103547633D01*
X157320901Y-103579256D01*
X164145000Y-110403356D01*
X164145000Y-110606260D01*
X164202068Y-110893158D01*
X164314010Y-111163411D01*
X164476525Y-111406632D01*
X164683368Y-111613475D01*
X164857760Y-111730000D01*
X164683368Y-111846525D01*
X164476525Y-112053368D01*
X164314010Y-112296589D01*
X164202068Y-112566842D01*
X164145000Y-112853740D01*
X164145000Y-113146260D01*
X164202068Y-113433158D01*
X164314010Y-113703411D01*
X164476525Y-113946632D01*
X164683368Y-114153475D01*
X164856729Y-114269311D01*
X164781208Y-114511603D01*
X165630000Y-115360395D01*
X166478792Y-114511603D01*
X166403271Y-114269311D01*
X166576632Y-114153475D01*
X166783475Y-113946632D01*
X166945990Y-113703411D01*
X167057932Y-113433158D01*
X167115000Y-113146260D01*
X167115000Y-112853740D01*
X167057932Y-112566842D01*
X166945990Y-112296589D01*
X166783475Y-112053368D01*
X166576632Y-111846525D01*
X166402240Y-111730000D01*
X166576632Y-111613475D01*
X166783475Y-111406632D01*
X166945990Y-111163411D01*
X167057932Y-110893158D01*
X167115000Y-110606260D01*
X167115000Y-110313740D01*
X167057932Y-110026842D01*
X166945990Y-109756589D01*
X166783475Y-109513368D01*
X166576632Y-109306525D01*
X166333411Y-109144010D01*
X166063158Y-109032068D01*
X165776260Y-108975000D01*
X165573356Y-108975000D01*
X162591058Y-105992702D01*
X164186903Y-105992702D01*
X164258486Y-106236671D01*
X164513996Y-106357571D01*
X164788184Y-106426300D01*
X165070512Y-106440217D01*
X165350130Y-106398787D01*
X165616292Y-106303603D01*
X165741514Y-106236671D01*
X165813097Y-105992702D01*
X165000000Y-105179605D01*
X164186903Y-105992702D01*
X162591058Y-105992702D01*
X161668868Y-105070512D01*
X163559783Y-105070512D01*
X163601213Y-105350130D01*
X163696397Y-105616292D01*
X163763329Y-105741514D01*
X164007298Y-105813097D01*
X164820395Y-105000000D01*
X165179605Y-105000000D01*
X165992702Y-105813097D01*
X166236671Y-105741514D01*
X166357571Y-105486004D01*
X166426300Y-105211816D01*
X166440217Y-104929488D01*
X166398787Y-104649870D01*
X166303603Y-104383708D01*
X166236671Y-104258486D01*
X165992702Y-104186903D01*
X165179605Y-105000000D01*
X164820395Y-105000000D01*
X164007298Y-104186903D01*
X163763329Y-104258486D01*
X163642429Y-104513996D01*
X163573700Y-104788184D01*
X163559783Y-105070512D01*
X161668868Y-105070512D01*
X160605654Y-104007298D01*
X164186903Y-104007298D01*
X165000000Y-104820395D01*
X165813097Y-104007298D01*
X165741514Y-103763329D01*
X165486004Y-103642429D01*
X165211816Y-103573700D01*
X164929488Y-103559783D01*
X164649870Y-103601213D01*
X164383708Y-103696397D01*
X164258486Y-103763329D01*
X164186903Y-104007298D01*
X160605654Y-104007298D01*
X159010000Y-102411645D01*
X159010000Y-101899870D01*
X159044180Y-101889502D01*
X159154494Y-101830537D01*
X159251185Y-101751185D01*
X159330537Y-101654494D01*
X159389502Y-101544180D01*
X159399870Y-101510000D01*
X164450392Y-101510000D01*
X164500000Y-101514886D01*
X164697994Y-101495385D01*
X164722102Y-101488072D01*
X165850000Y-101488072D01*
X165974482Y-101475812D01*
X166094180Y-101439502D01*
X166204494Y-101380537D01*
X166301185Y-101301185D01*
X166380537Y-101204494D01*
X166439502Y-101094180D01*
X166475812Y-100974482D01*
X166488072Y-100850000D01*
X166488072Y-99150000D01*
X166475812Y-99025518D01*
X166439502Y-98905820D01*
X166380537Y-98795506D01*
X166301185Y-98698815D01*
X166204494Y-98619463D01*
X166094180Y-98560498D01*
X166021620Y-98538487D01*
X166153475Y-98406632D01*
X166315990Y-98163411D01*
X166427932Y-97893158D01*
X166485000Y-97606260D01*
X166485000Y-97313740D01*
X166427932Y-97026842D01*
X166315990Y-96756589D01*
X166153475Y-96513368D01*
X165946632Y-96306525D01*
X165703411Y-96144010D01*
X165433158Y-96032068D01*
X165146260Y-95975000D01*
X164853740Y-95975000D01*
X164566842Y-96032068D01*
X164296589Y-96144010D01*
X164053368Y-96306525D01*
X163846525Y-96513368D01*
X163684010Y-96756589D01*
X163572068Y-97026842D01*
X163515000Y-97313740D01*
X163515000Y-97606260D01*
X163572068Y-97893158D01*
X163684010Y-98163411D01*
X163846525Y-98406632D01*
X163978380Y-98538487D01*
X163905820Y-98560498D01*
X163795506Y-98619463D01*
X163698815Y-98698815D01*
X163619463Y-98795506D01*
X163560498Y-98905820D01*
X163524188Y-99025518D01*
X163511928Y-99150000D01*
X163511928Y-99490000D01*
X159399870Y-99490000D01*
X159389502Y-99455820D01*
X159330537Y-99345506D01*
X159251185Y-99248815D01*
X159234607Y-99235210D01*
X159271680Y-99179727D01*
X159379853Y-98918574D01*
X159435000Y-98641335D01*
X159435000Y-98358665D01*
X159379853Y-98081426D01*
X159271680Y-97820273D01*
X159114637Y-97585241D01*
X158914759Y-97385363D01*
X158727140Y-97260000D01*
X161462678Y-97260000D01*
X161500000Y-97263676D01*
X161537322Y-97260000D01*
X161537333Y-97260000D01*
X161648986Y-97249003D01*
X161792247Y-97205546D01*
X161924276Y-97134974D01*
X162040001Y-97040001D01*
X162063804Y-97010997D01*
X168011008Y-91063795D01*
X168040001Y-91040001D01*
X168063795Y-91011008D01*
X168063799Y-91011004D01*
X168134973Y-90924277D01*
X168145569Y-90904454D01*
X168205546Y-90792247D01*
X168249003Y-90648986D01*
X168260000Y-90537333D01*
X168260000Y-90537324D01*
X168263676Y-90500001D01*
X168260000Y-90462678D01*
X168260000Y-86067323D01*
X168263676Y-86030000D01*
X168260000Y-85992677D01*
X168260000Y-85992667D01*
X168249003Y-85881014D01*
X168205546Y-85737753D01*
X168134974Y-85605724D01*
X168040001Y-85489999D01*
X168011004Y-85466202D01*
X167043804Y-84499002D01*
X167020001Y-84469999D01*
X166904276Y-84375026D01*
X166842634Y-84342077D01*
X166819502Y-84265820D01*
X166760537Y-84155506D01*
X166681185Y-84058815D01*
X166584494Y-83979463D01*
X166474180Y-83920498D01*
X166354482Y-83884188D01*
X166230000Y-83871928D01*
X163730000Y-83871928D01*
X163605518Y-83884188D01*
X163485820Y-83920498D01*
X163375506Y-83979463D01*
X163278815Y-84058815D01*
X163199463Y-84155506D01*
X163140498Y-84265820D01*
X163104188Y-84385518D01*
X163091928Y-84510000D01*
X163091928Y-85510000D01*
X163104188Y-85634482D01*
X163140498Y-85754180D01*
X163199463Y-85864494D01*
X163278815Y-85961185D01*
X163326111Y-86000000D01*
X160928356Y-86000000D01*
X159259261Y-84330906D01*
X159227633Y-84292367D01*
X159073840Y-84166153D01*
X158898380Y-84072368D01*
X158707994Y-84014615D01*
X158559608Y-84000000D01*
X158510000Y-83995114D01*
X158460392Y-84000000D01*
X154933889Y-84000000D01*
X154981185Y-83961185D01*
X155060537Y-83864494D01*
X155119502Y-83754180D01*
X155155812Y-83634482D01*
X155168072Y-83510000D01*
X155168072Y-82510000D01*
X155155812Y-82385518D01*
X155119502Y-82265820D01*
X155060537Y-82155506D01*
X155037143Y-82127000D01*
X173493766Y-82127000D01*
X173670189Y-82144376D01*
X173833850Y-82194022D01*
X173840000Y-82197309D01*
X173840001Y-119340000D01*
X121660000Y-119340000D01*
X121660000Y-115779872D01*
X122765000Y-115779872D01*
X122765000Y-116220128D01*
X122850890Y-116651925D01*
X123019369Y-117058669D01*
X123263962Y-117424729D01*
X123575271Y-117736038D01*
X123941331Y-117980631D01*
X124348075Y-118149110D01*
X124779872Y-118235000D01*
X125220128Y-118235000D01*
X125651925Y-118149110D01*
X126058669Y-117980631D01*
X126424729Y-117736038D01*
X126736038Y-117424729D01*
X126980631Y-117058669D01*
X127149110Y-116651925D01*
X127165724Y-116568397D01*
X164781208Y-116568397D01*
X164858843Y-116817472D01*
X165122883Y-116943371D01*
X165406411Y-117015339D01*
X165698531Y-117030611D01*
X165988019Y-116988599D01*
X166263747Y-116890919D01*
X166401157Y-116817472D01*
X166478792Y-116568397D01*
X165630000Y-115719605D01*
X164781208Y-116568397D01*
X127165724Y-116568397D01*
X127235000Y-116220128D01*
X127235000Y-115779872D01*
X127200919Y-115608531D01*
X164139389Y-115608531D01*
X164181401Y-115898019D01*
X164279081Y-116173747D01*
X164352528Y-116311157D01*
X164601603Y-116388792D01*
X165450395Y-115540000D01*
X165809605Y-115540000D01*
X166658397Y-116388792D01*
X166907472Y-116311157D01*
X167033371Y-116047117D01*
X167101205Y-115779872D01*
X168265000Y-115779872D01*
X168265000Y-116220128D01*
X168350890Y-116651925D01*
X168519369Y-117058669D01*
X168763962Y-117424729D01*
X169075271Y-117736038D01*
X169441331Y-117980631D01*
X169848075Y-118149110D01*
X170279872Y-118235000D01*
X170720128Y-118235000D01*
X171151925Y-118149110D01*
X171558669Y-117980631D01*
X171924729Y-117736038D01*
X172236038Y-117424729D01*
X172480631Y-117058669D01*
X172649110Y-116651925D01*
X172735000Y-116220128D01*
X172735000Y-115779872D01*
X172649110Y-115348075D01*
X172480631Y-114941331D01*
X172236038Y-114575271D01*
X171924729Y-114263962D01*
X171558669Y-114019369D01*
X171151925Y-113850890D01*
X170720128Y-113765000D01*
X170279872Y-113765000D01*
X169848075Y-113850890D01*
X169441331Y-114019369D01*
X169075271Y-114263962D01*
X168763962Y-114575271D01*
X168519369Y-114941331D01*
X168350890Y-115348075D01*
X168265000Y-115779872D01*
X167101205Y-115779872D01*
X167105339Y-115763589D01*
X167120611Y-115471469D01*
X167078599Y-115181981D01*
X166980919Y-114906253D01*
X166907472Y-114768843D01*
X166658397Y-114691208D01*
X165809605Y-115540000D01*
X165450395Y-115540000D01*
X164601603Y-114691208D01*
X164352528Y-114768843D01*
X164226629Y-115032883D01*
X164154661Y-115316411D01*
X164139389Y-115608531D01*
X127200919Y-115608531D01*
X127149110Y-115348075D01*
X126980631Y-114941331D01*
X126736038Y-114575271D01*
X126424729Y-114263962D01*
X126058669Y-114019369D01*
X125651925Y-113850890D01*
X125220128Y-113765000D01*
X124779872Y-113765000D01*
X124348075Y-113850890D01*
X123941331Y-114019369D01*
X123575271Y-114263962D01*
X123263962Y-114575271D01*
X123019369Y-114941331D01*
X122850890Y-115348075D01*
X122765000Y-115779872D01*
X121660000Y-115779872D01*
X121660000Y-76279872D01*
X122765000Y-76279872D01*
X122765000Y-76720128D01*
X122850890Y-77151925D01*
X123019369Y-77558669D01*
X123263962Y-77924729D01*
X123575271Y-78236038D01*
X123941331Y-78480631D01*
X124348075Y-78649110D01*
X124779872Y-78735000D01*
X125220128Y-78735000D01*
X125651925Y-78649110D01*
X126058669Y-78480631D01*
X126424729Y-78236038D01*
X126736038Y-77924729D01*
X126886196Y-77700000D01*
X128561928Y-77700000D01*
X128561928Y-79300000D01*
X128574188Y-79424482D01*
X128610498Y-79544180D01*
X128669463Y-79654494D01*
X128748815Y-79751185D01*
X128845506Y-79830537D01*
X128955820Y-79889502D01*
X129075518Y-79925812D01*
X129083961Y-79926643D01*
X128885363Y-80125241D01*
X128728320Y-80360273D01*
X128620147Y-80621426D01*
X128565000Y-80898665D01*
X128565000Y-81181335D01*
X128620147Y-81458574D01*
X128728320Y-81719727D01*
X128885363Y-81954759D01*
X129085241Y-82154637D01*
X129317759Y-82310000D01*
X129085241Y-82465363D01*
X128885363Y-82665241D01*
X128728320Y-82900273D01*
X128620147Y-83161426D01*
X128565000Y-83438665D01*
X128565000Y-83721335D01*
X128620147Y-83998574D01*
X128728320Y-84259727D01*
X128885363Y-84494759D01*
X129085241Y-84694637D01*
X129317759Y-84850000D01*
X129085241Y-85005363D01*
X128885363Y-85205241D01*
X128728320Y-85440273D01*
X128620147Y-85701426D01*
X128565000Y-85978665D01*
X128565000Y-86261335D01*
X128620147Y-86538574D01*
X128728320Y-86799727D01*
X128885363Y-87034759D01*
X129085241Y-87234637D01*
X129317759Y-87390000D01*
X129085241Y-87545363D01*
X128885363Y-87745241D01*
X128728320Y-87980273D01*
X128620147Y-88241426D01*
X128565000Y-88518665D01*
X128565000Y-88801335D01*
X128620147Y-89078574D01*
X128728320Y-89339727D01*
X128885363Y-89574759D01*
X129085241Y-89774637D01*
X129317759Y-89930000D01*
X129085241Y-90085363D01*
X128885363Y-90285241D01*
X128728320Y-90520273D01*
X128620147Y-90781426D01*
X128565000Y-91058665D01*
X128565000Y-91341335D01*
X128620147Y-91618574D01*
X128728320Y-91879727D01*
X128885363Y-92114759D01*
X129085241Y-92314637D01*
X129317759Y-92470000D01*
X129085241Y-92625363D01*
X128885363Y-92825241D01*
X128728320Y-93060273D01*
X128620147Y-93321426D01*
X128565000Y-93598665D01*
X128565000Y-93881335D01*
X128620147Y-94158574D01*
X128728320Y-94419727D01*
X128885363Y-94654759D01*
X129085241Y-94854637D01*
X129317759Y-95010000D01*
X129085241Y-95165363D01*
X128885363Y-95365241D01*
X128728320Y-95600273D01*
X128620147Y-95861426D01*
X128565000Y-96138665D01*
X128565000Y-96421335D01*
X128620147Y-96698574D01*
X128728320Y-96959727D01*
X128885363Y-97194759D01*
X129085241Y-97394637D01*
X129317759Y-97550000D01*
X129085241Y-97705363D01*
X128885363Y-97905241D01*
X128728320Y-98140273D01*
X128620147Y-98401426D01*
X128565000Y-98678665D01*
X128565000Y-98961335D01*
X128620147Y-99238574D01*
X128728320Y-99499727D01*
X128885363Y-99734759D01*
X129085241Y-99934637D01*
X129317759Y-100090000D01*
X129085241Y-100245363D01*
X128885363Y-100445241D01*
X128728320Y-100680273D01*
X128620147Y-100941426D01*
X128565000Y-101218665D01*
X128565000Y-101501335D01*
X128620147Y-101778574D01*
X128728320Y-102039727D01*
X128885363Y-102274759D01*
X129085241Y-102474637D01*
X129317759Y-102630000D01*
X129085241Y-102785363D01*
X128885363Y-102985241D01*
X128728320Y-103220273D01*
X128620147Y-103481426D01*
X128565000Y-103758665D01*
X128565000Y-104041335D01*
X128620147Y-104318574D01*
X128728320Y-104579727D01*
X128885363Y-104814759D01*
X129085241Y-105014637D01*
X129317759Y-105170000D01*
X129085241Y-105325363D01*
X128885363Y-105525241D01*
X128728320Y-105760273D01*
X128620147Y-106021426D01*
X128565000Y-106298665D01*
X128565000Y-106581335D01*
X128620147Y-106858574D01*
X128728320Y-107119727D01*
X128885363Y-107354759D01*
X129085241Y-107554637D01*
X129317759Y-107710000D01*
X129085241Y-107865363D01*
X128885363Y-108065241D01*
X128728320Y-108300273D01*
X128620147Y-108561426D01*
X128565000Y-108838665D01*
X128565000Y-109121335D01*
X128620147Y-109398574D01*
X128728320Y-109659727D01*
X128885363Y-109894759D01*
X129085241Y-110094637D01*
X129317759Y-110250000D01*
X129085241Y-110405363D01*
X128885363Y-110605241D01*
X128728320Y-110840273D01*
X128620147Y-111101426D01*
X128565000Y-111378665D01*
X128565000Y-111661335D01*
X128620147Y-111938574D01*
X128728320Y-112199727D01*
X128885363Y-112434759D01*
X129085241Y-112634637D01*
X129317759Y-112790000D01*
X129085241Y-112945363D01*
X128885363Y-113145241D01*
X128728320Y-113380273D01*
X128620147Y-113641426D01*
X128565000Y-113918665D01*
X128565000Y-114201335D01*
X128620147Y-114478574D01*
X128728320Y-114739727D01*
X128885363Y-114974759D01*
X129085241Y-115174637D01*
X129320273Y-115331680D01*
X129581426Y-115439853D01*
X129858665Y-115495000D01*
X130141335Y-115495000D01*
X130418574Y-115439853D01*
X130679727Y-115331680D01*
X130914759Y-115174637D01*
X131114637Y-114974759D01*
X131271680Y-114739727D01*
X131379853Y-114478574D01*
X131435000Y-114201335D01*
X131435000Y-113918665D01*
X131379853Y-113641426D01*
X131271680Y-113380273D01*
X131114637Y-113145241D01*
X130914759Y-112945363D01*
X130682241Y-112790000D01*
X130914759Y-112634637D01*
X131114637Y-112434759D01*
X131271680Y-112199727D01*
X131379853Y-111938574D01*
X131435000Y-111661335D01*
X131435000Y-111378665D01*
X131379853Y-111101426D01*
X131271680Y-110840273D01*
X131114637Y-110605241D01*
X130914759Y-110405363D01*
X130682241Y-110250000D01*
X130914759Y-110094637D01*
X131114637Y-109894759D01*
X131271680Y-109659727D01*
X131379853Y-109398574D01*
X131435000Y-109121335D01*
X131435000Y-108838665D01*
X131379853Y-108561426D01*
X131271680Y-108300273D01*
X131114637Y-108065241D01*
X130914759Y-107865363D01*
X130682241Y-107710000D01*
X130914759Y-107554637D01*
X131114637Y-107354759D01*
X131271680Y-107119727D01*
X131379853Y-106858574D01*
X131435000Y-106581335D01*
X131435000Y-106298665D01*
X131379853Y-106021426D01*
X131271680Y-105760273D01*
X131114637Y-105525241D01*
X130914759Y-105325363D01*
X130682241Y-105170000D01*
X130914759Y-105014637D01*
X131114637Y-104814759D01*
X131271680Y-104579727D01*
X131379853Y-104318574D01*
X131435000Y-104041335D01*
X131435000Y-103758665D01*
X131379853Y-103481426D01*
X131271680Y-103220273D01*
X131114637Y-102985241D01*
X130914759Y-102785363D01*
X130682241Y-102630000D01*
X130914759Y-102474637D01*
X131114637Y-102274759D01*
X131271680Y-102039727D01*
X131379853Y-101778574D01*
X131435000Y-101501335D01*
X131435000Y-101218665D01*
X131379853Y-100941426D01*
X131271680Y-100680273D01*
X131114637Y-100445241D01*
X130914759Y-100245363D01*
X130682241Y-100090000D01*
X130914759Y-99934637D01*
X131114637Y-99734759D01*
X131271680Y-99499727D01*
X131379853Y-99238574D01*
X131435000Y-98961335D01*
X131435000Y-98678665D01*
X131379853Y-98401426D01*
X131271680Y-98140273D01*
X131114637Y-97905241D01*
X130914759Y-97705363D01*
X130682241Y-97550000D01*
X130914759Y-97394637D01*
X131114637Y-97194759D01*
X131271680Y-96959727D01*
X131379853Y-96698574D01*
X131435000Y-96421335D01*
X131435000Y-96138665D01*
X131379853Y-95861426D01*
X131271680Y-95600273D01*
X131114637Y-95365241D01*
X130914759Y-95165363D01*
X130682241Y-95010000D01*
X130914759Y-94854637D01*
X131114637Y-94654759D01*
X131271680Y-94419727D01*
X131379853Y-94158574D01*
X131435000Y-93881335D01*
X131435000Y-93598665D01*
X131379853Y-93321426D01*
X131271680Y-93060273D01*
X131114637Y-92825241D01*
X130914759Y-92625363D01*
X130682241Y-92470000D01*
X130914759Y-92314637D01*
X131114637Y-92114759D01*
X131271680Y-91879727D01*
X131379853Y-91618574D01*
X131435000Y-91341335D01*
X131435000Y-91058665D01*
X131379853Y-90781426D01*
X131271680Y-90520273D01*
X131114637Y-90285241D01*
X130914759Y-90085363D01*
X130682241Y-89930000D01*
X130914759Y-89774637D01*
X131114637Y-89574759D01*
X131271680Y-89339727D01*
X131379853Y-89078574D01*
X131435000Y-88801335D01*
X131435000Y-88518665D01*
X131379853Y-88241426D01*
X131271680Y-87980273D01*
X131114637Y-87745241D01*
X130914759Y-87545363D01*
X130682241Y-87390000D01*
X130914759Y-87234637D01*
X131114637Y-87034759D01*
X131271680Y-86799727D01*
X131379853Y-86538574D01*
X131435000Y-86261335D01*
X131435000Y-85978665D01*
X131379853Y-85701426D01*
X131271680Y-85440273D01*
X131114637Y-85205241D01*
X130914759Y-85005363D01*
X130682241Y-84850000D01*
X130914759Y-84694637D01*
X131114637Y-84494759D01*
X131271680Y-84259727D01*
X131379853Y-83998574D01*
X131435000Y-83721335D01*
X131435000Y-83438665D01*
X131379853Y-83161426D01*
X131271680Y-82900273D01*
X131114637Y-82665241D01*
X130914759Y-82465363D01*
X130682241Y-82310000D01*
X130914759Y-82154637D01*
X131114637Y-81954759D01*
X131271680Y-81719727D01*
X131379853Y-81458574D01*
X131435000Y-81181335D01*
X131435000Y-80898665D01*
X131379853Y-80621426D01*
X131271680Y-80360273D01*
X131114637Y-80125241D01*
X130916039Y-79926643D01*
X130924482Y-79925812D01*
X131044180Y-79889502D01*
X131154494Y-79830537D01*
X131251185Y-79751185D01*
X131330537Y-79654494D01*
X131389502Y-79544180D01*
X131425812Y-79424482D01*
X131438072Y-79300000D01*
X131438072Y-77700000D01*
X131425812Y-77575518D01*
X131389502Y-77455820D01*
X131330537Y-77345506D01*
X131251185Y-77248815D01*
X131154494Y-77169463D01*
X131044180Y-77110498D01*
X130924482Y-77074188D01*
X130800000Y-77061928D01*
X129200000Y-77061928D01*
X129075518Y-77074188D01*
X128955820Y-77110498D01*
X128845506Y-77169463D01*
X128748815Y-77248815D01*
X128669463Y-77345506D01*
X128610498Y-77455820D01*
X128574188Y-77575518D01*
X128561928Y-77700000D01*
X126886196Y-77700000D01*
X126980631Y-77558669D01*
X127149110Y-77151925D01*
X127235000Y-76720128D01*
X127235000Y-76279872D01*
X127149110Y-75848075D01*
X126980631Y-75441331D01*
X126736038Y-75075271D01*
X126424729Y-74763962D01*
X126058669Y-74519369D01*
X125651925Y-74350890D01*
X125220128Y-74265000D01*
X124779872Y-74265000D01*
X124348075Y-74350890D01*
X123941331Y-74519369D01*
X123575271Y-74763962D01*
X123263962Y-75075271D01*
X123019369Y-75441331D01*
X122850890Y-75848075D01*
X122765000Y-76279872D01*
X121660000Y-76279872D01*
X121660000Y-73160000D01*
X150802691Y-73160000D01*
X150805978Y-73166150D01*
G37*
%TD.AperFunction*%
D23*
X166740001Y-90185196D02*
X161185199Y-95740000D01*
X158574801Y-95740000D01*
X160641003Y-93673799D01*
X160670001Y-93650001D01*
X160696332Y-93617917D01*
X160764974Y-93534277D01*
X160797923Y-93472634D01*
X160874180Y-93449502D01*
X160984494Y-93390537D01*
X161081185Y-93311185D01*
X161130000Y-93251704D01*
X161178815Y-93311185D01*
X161275506Y-93390537D01*
X161385820Y-93449502D01*
X161505518Y-93485812D01*
X161630000Y-93498072D01*
X162630000Y-93498072D01*
X162754482Y-93485812D01*
X162874180Y-93449502D01*
X162984494Y-93390537D01*
X163081185Y-93311185D01*
X163160537Y-93214494D01*
X163219502Y-93104180D01*
X163255812Y-92984482D01*
X163268072Y-92860000D01*
X163268072Y-90360000D01*
X163255812Y-90235518D01*
X163219502Y-90115820D01*
X163168284Y-90020000D01*
X163350482Y-90020000D01*
X163375506Y-90040537D01*
X163485820Y-90099502D01*
X163605518Y-90135812D01*
X163730000Y-90148072D01*
X166230000Y-90148072D01*
X166354482Y-90135812D01*
X166474180Y-90099502D01*
X166584494Y-90040537D01*
X166681185Y-89961185D01*
X166740001Y-89889517D01*
X166740001Y-90185196D01*
%TA.AperFunction,Conductor*%
D24*
G36*
X166740001Y-90185196D02*
G01*
X161185199Y-95740000D01*
X158574801Y-95740000D01*
X160641003Y-93673799D01*
X160670001Y-93650001D01*
X160696332Y-93617917D01*
X160764974Y-93534277D01*
X160797923Y-93472634D01*
X160874180Y-93449502D01*
X160984494Y-93390537D01*
X161081185Y-93311185D01*
X161130000Y-93251704D01*
X161178815Y-93311185D01*
X161275506Y-93390537D01*
X161385820Y-93449502D01*
X161505518Y-93485812D01*
X161630000Y-93498072D01*
X162630000Y-93498072D01*
X162754482Y-93485812D01*
X162874180Y-93449502D01*
X162984494Y-93390537D01*
X163081185Y-93311185D01*
X163160537Y-93214494D01*
X163219502Y-93104180D01*
X163255812Y-92984482D01*
X163268072Y-92860000D01*
X163268072Y-90360000D01*
X163255812Y-90235518D01*
X163219502Y-90115820D01*
X163168284Y-90020000D01*
X163350482Y-90020000D01*
X163375506Y-90040537D01*
X163485820Y-90099502D01*
X163605518Y-90135812D01*
X163730000Y-90148072D01*
X166230000Y-90148072D01*
X166354482Y-90135812D01*
X166474180Y-90099502D01*
X166584494Y-90040537D01*
X166681185Y-89961185D01*
X166740001Y-89889517D01*
X166740001Y-90185196D01*
G37*
%TD.AperFunction*%
D23*
X159490000Y-87418356D02*
X159490001Y-88950383D01*
X159485114Y-89000000D01*
X159504615Y-89197994D01*
X159562368Y-89388379D01*
X159656154Y-89563840D01*
X159734885Y-89659774D01*
X159782368Y-89717633D01*
X159787601Y-89721928D01*
X159630000Y-89721928D01*
X159505518Y-89734188D01*
X159385820Y-89770498D01*
X159275506Y-89829463D01*
X159178815Y-89908815D01*
X159130000Y-89968296D01*
X159081185Y-89908815D01*
X158984494Y-89829463D01*
X158874180Y-89770498D01*
X158754482Y-89734188D01*
X158630000Y-89721928D01*
X157630000Y-89721928D01*
X157505518Y-89734188D01*
X157385820Y-89770498D01*
X157275506Y-89829463D01*
X157178815Y-89908815D01*
X157130000Y-89968296D01*
X157081185Y-89908815D01*
X156984494Y-89829463D01*
X156874180Y-89770498D01*
X156754482Y-89734188D01*
X156630000Y-89721928D01*
X156415750Y-89725000D01*
X156257000Y-89883750D01*
X156257000Y-91483000D01*
X156277000Y-91483000D01*
X156277000Y-91737000D01*
X156257000Y-91737000D01*
X156257000Y-91757000D01*
X156003000Y-91757000D01*
X156003000Y-91737000D01*
X155153750Y-91737000D01*
X154995000Y-91895750D01*
X154991928Y-92860000D01*
X155004188Y-92984482D01*
X155040498Y-93104180D01*
X155099463Y-93214494D01*
X155120395Y-93240000D01*
X146586125Y-93240000D01*
X146511680Y-93060273D01*
X146354637Y-92825241D01*
X146154759Y-92625363D01*
X145922241Y-92470000D01*
X146154759Y-92314637D01*
X146354637Y-92114759D01*
X146511680Y-91879727D01*
X146619853Y-91618574D01*
X146675000Y-91341335D01*
X146675000Y-91058665D01*
X146619853Y-90781426D01*
X146511680Y-90520273D01*
X146404590Y-90360000D01*
X154991928Y-90360000D01*
X154995000Y-91324250D01*
X155153750Y-91483000D01*
X156003000Y-91483000D01*
X156003000Y-89883750D01*
X155844250Y-89725000D01*
X155630000Y-89721928D01*
X155505518Y-89734188D01*
X155385820Y-89770498D01*
X155275506Y-89829463D01*
X155178815Y-89908815D01*
X155099463Y-90005506D01*
X155040498Y-90115820D01*
X155004188Y-90235518D01*
X154991928Y-90360000D01*
X146404590Y-90360000D01*
X146354637Y-90285241D01*
X146154759Y-90085363D01*
X145922241Y-89930000D01*
X146154759Y-89774637D01*
X146354637Y-89574759D01*
X146511680Y-89339727D01*
X146619853Y-89078574D01*
X146675000Y-88801335D01*
X146675000Y-88518665D01*
X146638688Y-88336114D01*
X147204803Y-87770000D01*
X151448954Y-87770000D01*
X151499463Y-87864494D01*
X151578815Y-87961185D01*
X151638296Y-88010000D01*
X151578815Y-88058815D01*
X151499463Y-88155506D01*
X151448954Y-88250000D01*
X148988701Y-88250000D01*
X148934764Y-88196063D01*
X148765246Y-88082795D01*
X148576888Y-88004774D01*
X148376929Y-87965000D01*
X148173051Y-87965000D01*
X147973092Y-88004774D01*
X147784734Y-88082795D01*
X147615216Y-88196063D01*
X147471053Y-88340226D01*
X147357785Y-88509744D01*
X147279764Y-88698102D01*
X147239990Y-88898061D01*
X147239990Y-89101939D01*
X147279764Y-89301898D01*
X147357785Y-89490256D01*
X147471053Y-89659774D01*
X147615216Y-89803937D01*
X147784734Y-89917205D01*
X147973092Y-89995226D01*
X148173051Y-90035000D01*
X148376929Y-90035000D01*
X148576888Y-89995226D01*
X148765246Y-89917205D01*
X148934764Y-89803937D01*
X148968701Y-89770000D01*
X151448954Y-89770000D01*
X151499463Y-89864494D01*
X151578815Y-89961185D01*
X151675506Y-90040537D01*
X151785820Y-90099502D01*
X151905518Y-90135812D01*
X152030000Y-90148072D01*
X154530000Y-90148072D01*
X154654482Y-90135812D01*
X154774180Y-90099502D01*
X154884494Y-90040537D01*
X154981185Y-89961185D01*
X155060537Y-89864494D01*
X155119502Y-89754180D01*
X155155812Y-89634482D01*
X155168072Y-89510000D01*
X155168072Y-88510000D01*
X155155812Y-88385518D01*
X155119502Y-88265820D01*
X155060537Y-88155506D01*
X154981185Y-88058815D01*
X154921704Y-88010000D01*
X154981185Y-87961185D01*
X155060537Y-87864494D01*
X155119502Y-87754180D01*
X155155812Y-87634482D01*
X155168072Y-87510000D01*
X155168072Y-86510000D01*
X155155812Y-86385518D01*
X155119502Y-86265820D01*
X155060537Y-86155506D01*
X154981185Y-86058815D01*
X154933889Y-86020000D01*
X158091645Y-86020000D01*
X159490000Y-87418356D01*
%TA.AperFunction,Conductor*%
D24*
G36*
X159490000Y-87418356D02*
G01*
X159490001Y-88950383D01*
X159485114Y-89000000D01*
X159504615Y-89197994D01*
X159562368Y-89388379D01*
X159656154Y-89563840D01*
X159734885Y-89659774D01*
X159782368Y-89717633D01*
X159787601Y-89721928D01*
X159630000Y-89721928D01*
X159505518Y-89734188D01*
X159385820Y-89770498D01*
X159275506Y-89829463D01*
X159178815Y-89908815D01*
X159130000Y-89968296D01*
X159081185Y-89908815D01*
X158984494Y-89829463D01*
X158874180Y-89770498D01*
X158754482Y-89734188D01*
X158630000Y-89721928D01*
X157630000Y-89721928D01*
X157505518Y-89734188D01*
X157385820Y-89770498D01*
X157275506Y-89829463D01*
X157178815Y-89908815D01*
X157130000Y-89968296D01*
X157081185Y-89908815D01*
X156984494Y-89829463D01*
X156874180Y-89770498D01*
X156754482Y-89734188D01*
X156630000Y-89721928D01*
X156415750Y-89725000D01*
X156257000Y-89883750D01*
X156257000Y-91483000D01*
X156277000Y-91483000D01*
X156277000Y-91737000D01*
X156257000Y-91737000D01*
X156257000Y-91757000D01*
X156003000Y-91757000D01*
X156003000Y-91737000D01*
X155153750Y-91737000D01*
X154995000Y-91895750D01*
X154991928Y-92860000D01*
X155004188Y-92984482D01*
X155040498Y-93104180D01*
X155099463Y-93214494D01*
X155120395Y-93240000D01*
X146586125Y-93240000D01*
X146511680Y-93060273D01*
X146354637Y-92825241D01*
X146154759Y-92625363D01*
X145922241Y-92470000D01*
X146154759Y-92314637D01*
X146354637Y-92114759D01*
X146511680Y-91879727D01*
X146619853Y-91618574D01*
X146675000Y-91341335D01*
X146675000Y-91058665D01*
X146619853Y-90781426D01*
X146511680Y-90520273D01*
X146404590Y-90360000D01*
X154991928Y-90360000D01*
X154995000Y-91324250D01*
X155153750Y-91483000D01*
X156003000Y-91483000D01*
X156003000Y-89883750D01*
X155844250Y-89725000D01*
X155630000Y-89721928D01*
X155505518Y-89734188D01*
X155385820Y-89770498D01*
X155275506Y-89829463D01*
X155178815Y-89908815D01*
X155099463Y-90005506D01*
X155040498Y-90115820D01*
X155004188Y-90235518D01*
X154991928Y-90360000D01*
X146404590Y-90360000D01*
X146354637Y-90285241D01*
X146154759Y-90085363D01*
X145922241Y-89930000D01*
X146154759Y-89774637D01*
X146354637Y-89574759D01*
X146511680Y-89339727D01*
X146619853Y-89078574D01*
X146675000Y-88801335D01*
X146675000Y-88518665D01*
X146638688Y-88336114D01*
X147204803Y-87770000D01*
X151448954Y-87770000D01*
X151499463Y-87864494D01*
X151578815Y-87961185D01*
X151638296Y-88010000D01*
X151578815Y-88058815D01*
X151499463Y-88155506D01*
X151448954Y-88250000D01*
X148988701Y-88250000D01*
X148934764Y-88196063D01*
X148765246Y-88082795D01*
X148576888Y-88004774D01*
X148376929Y-87965000D01*
X148173051Y-87965000D01*
X147973092Y-88004774D01*
X147784734Y-88082795D01*
X147615216Y-88196063D01*
X147471053Y-88340226D01*
X147357785Y-88509744D01*
X147279764Y-88698102D01*
X147239990Y-88898061D01*
X147239990Y-89101939D01*
X147279764Y-89301898D01*
X147357785Y-89490256D01*
X147471053Y-89659774D01*
X147615216Y-89803937D01*
X147784734Y-89917205D01*
X147973092Y-89995226D01*
X148173051Y-90035000D01*
X148376929Y-90035000D01*
X148576888Y-89995226D01*
X148765246Y-89917205D01*
X148934764Y-89803937D01*
X148968701Y-89770000D01*
X151448954Y-89770000D01*
X151499463Y-89864494D01*
X151578815Y-89961185D01*
X151675506Y-90040537D01*
X151785820Y-90099502D01*
X151905518Y-90135812D01*
X152030000Y-90148072D01*
X154530000Y-90148072D01*
X154654482Y-90135812D01*
X154774180Y-90099502D01*
X154884494Y-90040537D01*
X154981185Y-89961185D01*
X155060537Y-89864494D01*
X155119502Y-89754180D01*
X155155812Y-89634482D01*
X155168072Y-89510000D01*
X155168072Y-88510000D01*
X155155812Y-88385518D01*
X155119502Y-88265820D01*
X155060537Y-88155506D01*
X154981185Y-88058815D01*
X154921704Y-88010000D01*
X154981185Y-87961185D01*
X155060537Y-87864494D01*
X155119502Y-87754180D01*
X155155812Y-87634482D01*
X155168072Y-87510000D01*
X155168072Y-86510000D01*
X155155812Y-86385518D01*
X155119502Y-86265820D01*
X155060537Y-86155506D01*
X154981185Y-86058815D01*
X154933889Y-86020000D01*
X158091645Y-86020000D01*
X159490000Y-87418356D01*
G37*
%TD.AperFunction*%
M02*
