%TF.GenerationSoftware,KiCad,Pcbnew,(5.1.10)-1*%
%TF.CreationDate,2021-11-22T17:18:02+01:00*%
%TF.ProjectId,termostat,7465726d-6f73-4746-9174-2e6b69636164,rev?*%
%TF.SameCoordinates,Original*%
%TF.FileFunction,Soldermask,Top*%
%TF.FilePolarity,Negative*%
%FSLAX46Y46*%
G04 Gerber Fmt 4.6, Leading zero omitted, Abs format (unit mm)*
G04 Created by KiCad (PCBNEW (5.1.10)-1) date 2021-11-22 17:18:02*
%MOMM*%
%LPD*%
G01*
G04 APERTURE LIST*
%ADD10C,3.200000*%
%ADD11C,1.700000*%
%ADD12O,1.700000X1.700000*%
%ADD13R,1.700000X1.700000*%
%ADD14O,1.600000X1.600000*%
%ADD15R,1.600000X1.600000*%
%ADD16R,2.500000X1.000000*%
%ADD17R,1.000000X2.500000*%
%ADD18R,1.500000X1.050000*%
%ADD19O,1.500000X1.050000*%
%ADD20C,1.600000*%
G04 APERTURE END LIST*
D10*
X170500000Y-116000000D03*
X170500000Y-76500000D03*
X125000000Y-116000000D03*
X125000000Y-76500000D03*
D11*
X165630000Y-110460000D03*
X165630000Y-113000000D03*
X165630000Y-115540000D03*
D12*
X151000000Y-104580000D03*
X151000000Y-102040000D03*
D13*
X151000000Y-99500000D03*
D14*
X145240000Y-114060000D03*
X130000000Y-114060000D03*
X145240000Y-78500000D03*
X130000000Y-111520000D03*
X145240000Y-81040000D03*
X130000000Y-108980000D03*
X145240000Y-83580000D03*
X130000000Y-106440000D03*
X145240000Y-86120000D03*
X130000000Y-103900000D03*
X145240000Y-88660000D03*
X130000000Y-101360000D03*
X145240000Y-91200000D03*
X130000000Y-98820000D03*
X145240000Y-93740000D03*
X130000000Y-96280000D03*
X145240000Y-96280000D03*
X130000000Y-93740000D03*
X145240000Y-98820000D03*
X130000000Y-91200000D03*
X145240000Y-101360000D03*
X130000000Y-88660000D03*
X145240000Y-103900000D03*
X130000000Y-86120000D03*
X145240000Y-106440000D03*
X130000000Y-83580000D03*
X145240000Y-108980000D03*
X130000000Y-81040000D03*
X145240000Y-111520000D03*
D15*
X130000000Y-78500000D03*
D16*
X153280000Y-83010000D03*
X153280000Y-85010000D03*
X153280000Y-87010000D03*
X153280000Y-89010000D03*
D17*
X156130000Y-91610000D03*
X158130000Y-91610000D03*
X160130000Y-91610000D03*
X162130000Y-91610000D03*
D16*
X164980000Y-89010000D03*
X164980000Y-87010000D03*
X164980000Y-85010000D03*
D18*
X151500000Y-112500000D03*
D19*
X151500000Y-109960000D03*
X151500000Y-111230000D03*
D14*
X154840000Y-105000000D03*
D20*
X165000000Y-105000000D03*
D12*
X165000000Y-97460000D03*
D13*
X165000000Y-100000000D03*
D20*
X158000000Y-98500000D03*
D15*
X158000000Y-100500000D03*
M02*
