M48
; DRILL file {KiCad (5.1.10)-1} date 11/22/21 17:18:15
; FORMAT={-:-/ absolute / metric / decimal}
; #@! TF.CreationDate,2021-11-22T17:18:15+01:00
; #@! TF.GenerationSoftware,Kicad,Pcbnew,(5.1.10)-1
; #@! TF.FileFunction,Plated,1,2,PTH
FMAT,2
METRIC
T1C0.400
T2C0.750
T3C0.800
T4C1.000
%
G90
G05
T1
X148.275Y-89.0
X153.5Y-91.5
X154.5Y-98.5
X160.5Y-87.0
X160.75Y-95.0
X166.5Y-94.0
T2
X151.5Y-109.96
X151.5Y-111.23
X151.5Y-112.5
T3
X154.84Y-105.0
X158.0Y-98.5
X158.0Y-100.5
X165.0Y-105.0
T4
X130.0Y-78.5
X130.0Y-81.04
X130.0Y-83.58
X130.0Y-86.12
X130.0Y-88.66
X130.0Y-91.2
X130.0Y-93.74
X130.0Y-96.28
X130.0Y-98.82
X130.0Y-101.36
X130.0Y-103.9
X130.0Y-106.44
X130.0Y-108.98
X130.0Y-111.52
X130.0Y-114.06
X145.24Y-78.5
X145.24Y-81.04
X145.24Y-83.58
X145.24Y-86.12
X145.24Y-88.66
X145.24Y-91.2
X145.24Y-93.74
X145.24Y-96.28
X145.24Y-98.82
X145.24Y-101.36
X145.24Y-103.9
X145.24Y-106.44
X145.24Y-108.98
X145.24Y-111.52
X145.24Y-114.06
X151.0Y-99.5
X151.0Y-102.04
X151.0Y-104.58
X165.0Y-97.46
X165.0Y-100.0
X165.63Y-110.46
X165.63Y-113.0
X165.63Y-115.54
T0
M30
