%TF.GenerationSoftware,KiCad,Pcbnew,(5.1.10)-1*%
%TF.CreationDate,2021-11-22T17:18:02+01:00*%
%TF.ProjectId,termostat,7465726d-6f73-4746-9174-2e6b69636164,rev?*%
%TF.SameCoordinates,Original*%
%TF.FileFunction,Legend,Top*%
%TF.FilePolarity,Positive*%
%FSLAX46Y46*%
G04 Gerber Fmt 4.6, Leading zero omitted, Abs format (unit mm)*
G04 Created by KiCad (PCBNEW (5.1.10)-1) date 2021-11-22 17:18:02*
%MOMM*%
%LPD*%
G01*
G04 APERTURE LIST*
%ADD10C,0.150000*%
%ADD11C,0.120000*%
%ADD12C,3.200000*%
%ADD13C,1.700000*%
%ADD14O,1.700000X1.700000*%
%ADD15R,1.700000X1.700000*%
%ADD16O,1.600000X1.600000*%
%ADD17R,1.600000X1.600000*%
%ADD18R,2.500000X1.000000*%
%ADD19R,1.000000X2.500000*%
%ADD20R,1.500000X1.050000*%
%ADD21O,1.500000X1.050000*%
%ADD22C,1.600000*%
G04 APERTURE END LIST*
D10*
X124627380Y-102333333D02*
X123627380Y-102333333D01*
X124341666Y-102000000D01*
X123627380Y-101666666D01*
X124627380Y-101666666D01*
X124627380Y-101190476D02*
X123960714Y-101190476D01*
X123627380Y-101190476D02*
X123675000Y-101238095D01*
X123722619Y-101190476D01*
X123675000Y-101142857D01*
X123627380Y-101190476D01*
X123722619Y-101190476D01*
X124579761Y-100285714D02*
X124627380Y-100380952D01*
X124627380Y-100571428D01*
X124579761Y-100666666D01*
X124532142Y-100714285D01*
X124436904Y-100761904D01*
X124151190Y-100761904D01*
X124055952Y-100714285D01*
X124008333Y-100666666D01*
X123960714Y-100571428D01*
X123960714Y-100380952D01*
X124008333Y-100285714D01*
X124627380Y-99857142D02*
X123627380Y-99857142D01*
X124627380Y-99428571D02*
X124103571Y-99428571D01*
X124008333Y-99476190D01*
X123960714Y-99571428D01*
X123960714Y-99714285D01*
X124008333Y-99809523D01*
X124055952Y-99857142D01*
X124627380Y-98523809D02*
X124103571Y-98523809D01*
X124008333Y-98571428D01*
X123960714Y-98666666D01*
X123960714Y-98857142D01*
X124008333Y-98952380D01*
X124579761Y-98523809D02*
X124627380Y-98619047D01*
X124627380Y-98857142D01*
X124579761Y-98952380D01*
X124484523Y-99000000D01*
X124389285Y-99000000D01*
X124294047Y-98952380D01*
X124246428Y-98857142D01*
X124246428Y-98619047D01*
X124198809Y-98523809D01*
X124627380Y-97904761D02*
X124579761Y-98000000D01*
X124484523Y-98047619D01*
X123627380Y-98047619D01*
X123627380Y-96904761D02*
X123627380Y-96333333D01*
X124627380Y-96619047D02*
X123627380Y-96619047D01*
X124627380Y-95857142D02*
X124579761Y-95952380D01*
X124532142Y-96000000D01*
X124436904Y-96047619D01*
X124151190Y-96047619D01*
X124055952Y-96000000D01*
X124008333Y-95952380D01*
X123960714Y-95857142D01*
X123960714Y-95714285D01*
X124008333Y-95619047D01*
X124055952Y-95571428D01*
X124151190Y-95523809D01*
X124436904Y-95523809D01*
X124532142Y-95571428D01*
X124579761Y-95619047D01*
X124627380Y-95714285D01*
X124627380Y-95857142D01*
X124627380Y-95095238D02*
X123960714Y-95095238D01*
X124055952Y-95095238D02*
X124008333Y-95047619D01*
X123960714Y-94952380D01*
X123960714Y-94809523D01*
X124008333Y-94714285D01*
X124103571Y-94666666D01*
X124627380Y-94666666D01*
X124103571Y-94666666D02*
X124008333Y-94619047D01*
X123960714Y-94523809D01*
X123960714Y-94380952D01*
X124008333Y-94285714D01*
X124103571Y-94238095D01*
X124627380Y-94238095D01*
X124627380Y-93333333D02*
X124103571Y-93333333D01*
X124008333Y-93380952D01*
X123960714Y-93476190D01*
X123960714Y-93666666D01*
X124008333Y-93761904D01*
X124579761Y-93333333D02*
X124627380Y-93428571D01*
X124627380Y-93666666D01*
X124579761Y-93761904D01*
X124484523Y-93809523D01*
X124389285Y-93809523D01*
X124294047Y-93761904D01*
X124246428Y-93666666D01*
X124246428Y-93428571D01*
X124198809Y-93333333D01*
X124579761Y-92428571D02*
X124627380Y-92523809D01*
X124627380Y-92714285D01*
X124579761Y-92809523D01*
X124532142Y-92857142D01*
X124436904Y-92904761D01*
X124151190Y-92904761D01*
X124055952Y-92857142D01*
X124008333Y-92809523D01*
X123960714Y-92714285D01*
X123960714Y-92523809D01*
X124008333Y-92428571D01*
X124627380Y-92000000D02*
X123627380Y-92000000D01*
X124627380Y-91571428D02*
X124103571Y-91571428D01*
X124008333Y-91619047D01*
X123960714Y-91714285D01*
X123960714Y-91857142D01*
X124008333Y-91952380D01*
X124055952Y-92000000D01*
X124627380Y-90666666D02*
X124103571Y-90666666D01*
X124008333Y-90714285D01*
X123960714Y-90809523D01*
X123960714Y-91000000D01*
X124008333Y-91095238D01*
X124579761Y-90666666D02*
X124627380Y-90761904D01*
X124627380Y-91000000D01*
X124579761Y-91095238D01*
X124484523Y-91142857D01*
X124389285Y-91142857D01*
X124294047Y-91095238D01*
X124246428Y-91000000D01*
X124246428Y-90761904D01*
X124198809Y-90666666D01*
X125277380Y-101119047D02*
X125991666Y-101119047D01*
X126134523Y-101166666D01*
X126229761Y-101261904D01*
X126277380Y-101404761D01*
X126277380Y-101500000D01*
X126277380Y-100166666D02*
X126277380Y-100642857D01*
X125277380Y-100642857D01*
X126182142Y-99261904D02*
X126229761Y-99309523D01*
X126277380Y-99452380D01*
X126277380Y-99547619D01*
X126229761Y-99690476D01*
X126134523Y-99785714D01*
X126039285Y-99833333D01*
X125848809Y-99880952D01*
X125705952Y-99880952D01*
X125515476Y-99833333D01*
X125420238Y-99785714D01*
X125325000Y-99690476D01*
X125277380Y-99547619D01*
X125277380Y-99452380D01*
X125325000Y-99309523D01*
X125372619Y-99261904D01*
X125277380Y-98547619D02*
X125991666Y-98547619D01*
X126134523Y-98595238D01*
X126229761Y-98690476D01*
X126277380Y-98833333D01*
X126277380Y-98928571D01*
X126277380Y-97595238D02*
X126277380Y-98071428D01*
X125277380Y-98071428D01*
X126182142Y-96690476D02*
X126229761Y-96738095D01*
X126277380Y-96880952D01*
X126277380Y-96976190D01*
X126229761Y-97119047D01*
X126134523Y-97214285D01*
X126039285Y-97261904D01*
X125848809Y-97309523D01*
X125705952Y-97309523D01*
X125515476Y-97261904D01*
X125420238Y-97214285D01*
X125325000Y-97119047D01*
X125277380Y-96976190D01*
X125277380Y-96880952D01*
X125325000Y-96738095D01*
X125372619Y-96690476D01*
X125277380Y-95976190D02*
X125991666Y-95976190D01*
X126134523Y-96023809D01*
X126229761Y-96119047D01*
X126277380Y-96261904D01*
X126277380Y-96357142D01*
X126277380Y-95023809D02*
X126277380Y-95500000D01*
X125277380Y-95500000D01*
X126182142Y-94119047D02*
X126229761Y-94166666D01*
X126277380Y-94309523D01*
X126277380Y-94404761D01*
X126229761Y-94547619D01*
X126134523Y-94642857D01*
X126039285Y-94690476D01*
X125848809Y-94738095D01*
X125705952Y-94738095D01*
X125515476Y-94690476D01*
X125420238Y-94642857D01*
X125325000Y-94547619D01*
X125277380Y-94404761D01*
X125277380Y-94309523D01*
X125325000Y-94166666D01*
X125372619Y-94119047D01*
X125277380Y-93404761D02*
X125991666Y-93404761D01*
X126134523Y-93452380D01*
X126229761Y-93547619D01*
X126277380Y-93690476D01*
X126277380Y-93785714D01*
X126277380Y-92452380D02*
X126277380Y-92928571D01*
X125277380Y-92928571D01*
X126182142Y-91547619D02*
X126229761Y-91595238D01*
X126277380Y-91738095D01*
X126277380Y-91833333D01*
X126229761Y-91976190D01*
X126134523Y-92071428D01*
X126039285Y-92119047D01*
X125848809Y-92166666D01*
X125705952Y-92166666D01*
X125515476Y-92119047D01*
X125420238Y-92071428D01*
X125325000Y-91976190D01*
X125277380Y-91833333D01*
X125277380Y-91738095D01*
X125325000Y-91595238D01*
X125372619Y-91547619D01*
X167119047Y-97571428D02*
X167880952Y-97571428D01*
X167119047Y-100071428D02*
X167880952Y-100071428D01*
X167500000Y-100452380D02*
X167500000Y-99690476D01*
D11*
X155500000Y-117450000D02*
X166900000Y-117450000D01*
X166900000Y-108550000D02*
X166900000Y-117450000D01*
X155500000Y-108550000D02*
X166900000Y-108550000D01*
X155500000Y-117450000D02*
X155500000Y-108550000D01*
X149670000Y-105910000D02*
X152330000Y-105910000D01*
X149670000Y-100770000D02*
X149670000Y-105910000D01*
X152330000Y-100770000D02*
X152330000Y-105910000D01*
X149670000Y-100770000D02*
X152330000Y-100770000D01*
X149670000Y-99500000D02*
X149670000Y-98170000D01*
X149670000Y-98170000D02*
X151000000Y-98170000D01*
X131270000Y-79770000D02*
X131270000Y-77230000D01*
X131270000Y-77230000D02*
X128600000Y-77230000D01*
X128600000Y-79770000D02*
X128600000Y-118000000D01*
X128600000Y-74560000D02*
X128600000Y-77230000D01*
X143970000Y-77230000D02*
X146640000Y-77230000D01*
X143970000Y-77230000D02*
X143970000Y-115330000D01*
X143970000Y-115330000D02*
X146640000Y-115330000D01*
X131270000Y-79770000D02*
X128600000Y-79770000D01*
X131270000Y-79770000D02*
X131270000Y-115330000D01*
X131270000Y-115330000D02*
X128600000Y-115330000D01*
X128600000Y-118000000D02*
X146640000Y-118000000D01*
X146640000Y-118000000D02*
X146640000Y-74560000D01*
X146640000Y-74560000D02*
X128600000Y-74560000D01*
X152750000Y-92140000D02*
X152750000Y-90260000D01*
X154880000Y-92140000D02*
X152750000Y-92140000D01*
X165510000Y-92140000D02*
X163380000Y-92140000D01*
X165510000Y-90260000D02*
X165510000Y-92140000D01*
X165510000Y-74880000D02*
X165510000Y-81510000D01*
X152750000Y-74880000D02*
X165510000Y-74880000D01*
X152750000Y-81510000D02*
X152750000Y-74880000D01*
X152080000Y-81510000D02*
X152750000Y-81510000D01*
X153350000Y-113030000D02*
X153350000Y-109430000D01*
X153338478Y-109391522D02*
G75*
G03*
X148900000Y-111230000I-1838478J-1838478D01*
G01*
X153338478Y-113068478D02*
G75*
G02*
X148900000Y-111230000I-1838478J1838478D01*
G01*
X163190000Y-106370000D02*
X163190000Y-103630000D01*
X163190000Y-103630000D02*
X156650000Y-103630000D01*
X156650000Y-103630000D02*
X156650000Y-106370000D01*
X156650000Y-106370000D02*
X163190000Y-106370000D01*
X163960000Y-105000000D02*
X163190000Y-105000000D01*
X155880000Y-105000000D02*
X156650000Y-105000000D01*
X166330000Y-96130000D02*
X163670000Y-96130000D01*
X166330000Y-98730000D02*
X166330000Y-96130000D01*
X163670000Y-98730000D02*
X163670000Y-96130000D01*
X166330000Y-98730000D02*
X163670000Y-98730000D01*
X166330000Y-100000000D02*
X166330000Y-101330000D01*
X166330000Y-101330000D02*
X165000000Y-101330000D01*
X160620000Y-99500000D02*
G75*
G03*
X160620000Y-99500000I-2620000J0D01*
G01*
X159040000Y-99500000D02*
X160580000Y-99500000D01*
X155420000Y-99500000D02*
X156960000Y-99500000D01*
X159040000Y-99460000D02*
X160580000Y-99460000D01*
X155420000Y-99460000D02*
X156960000Y-99460000D01*
X155421000Y-99420000D02*
X156960000Y-99420000D01*
X159040000Y-99420000D02*
X160579000Y-99420000D01*
X155422000Y-99380000D02*
X156960000Y-99380000D01*
X159040000Y-99380000D02*
X160578000Y-99380000D01*
X155424000Y-99340000D02*
X156960000Y-99340000D01*
X159040000Y-99340000D02*
X160576000Y-99340000D01*
X155427000Y-99300000D02*
X156960000Y-99300000D01*
X159040000Y-99300000D02*
X160573000Y-99300000D01*
X155431000Y-99260000D02*
X156960000Y-99260000D01*
X159040000Y-99260000D02*
X160569000Y-99260000D01*
X155435000Y-99220000D02*
X156960000Y-99220000D01*
X159040000Y-99220000D02*
X160565000Y-99220000D01*
X155439000Y-99180000D02*
X156960000Y-99180000D01*
X159040000Y-99180000D02*
X160561000Y-99180000D01*
X155444000Y-99140000D02*
X156960000Y-99140000D01*
X159040000Y-99140000D02*
X160556000Y-99140000D01*
X155450000Y-99100000D02*
X156960000Y-99100000D01*
X159040000Y-99100000D02*
X160550000Y-99100000D01*
X155457000Y-99060000D02*
X156960000Y-99060000D01*
X159040000Y-99060000D02*
X160543000Y-99060000D01*
X155464000Y-99020000D02*
X156960000Y-99020000D01*
X159040000Y-99020000D02*
X160536000Y-99020000D01*
X155472000Y-98980000D02*
X156960000Y-98980000D01*
X159040000Y-98980000D02*
X160528000Y-98980000D01*
X155480000Y-98940000D02*
X156960000Y-98940000D01*
X159040000Y-98940000D02*
X160520000Y-98940000D01*
X155489000Y-98900000D02*
X156960000Y-98900000D01*
X159040000Y-98900000D02*
X160511000Y-98900000D01*
X155499000Y-98860000D02*
X156960000Y-98860000D01*
X159040000Y-98860000D02*
X160501000Y-98860000D01*
X155509000Y-98820000D02*
X156960000Y-98820000D01*
X159040000Y-98820000D02*
X160491000Y-98820000D01*
X155520000Y-98779000D02*
X156960000Y-98779000D01*
X159040000Y-98779000D02*
X160480000Y-98779000D01*
X155532000Y-98739000D02*
X156960000Y-98739000D01*
X159040000Y-98739000D02*
X160468000Y-98739000D01*
X155545000Y-98699000D02*
X156960000Y-98699000D01*
X159040000Y-98699000D02*
X160455000Y-98699000D01*
X155558000Y-98659000D02*
X156960000Y-98659000D01*
X159040000Y-98659000D02*
X160442000Y-98659000D01*
X155572000Y-98619000D02*
X156960000Y-98619000D01*
X159040000Y-98619000D02*
X160428000Y-98619000D01*
X155586000Y-98579000D02*
X156960000Y-98579000D01*
X159040000Y-98579000D02*
X160414000Y-98579000D01*
X155602000Y-98539000D02*
X156960000Y-98539000D01*
X159040000Y-98539000D02*
X160398000Y-98539000D01*
X155618000Y-98499000D02*
X156960000Y-98499000D01*
X159040000Y-98499000D02*
X160382000Y-98499000D01*
X155635000Y-98459000D02*
X156960000Y-98459000D01*
X159040000Y-98459000D02*
X160365000Y-98459000D01*
X155652000Y-98419000D02*
X156960000Y-98419000D01*
X159040000Y-98419000D02*
X160348000Y-98419000D01*
X155671000Y-98379000D02*
X156960000Y-98379000D01*
X159040000Y-98379000D02*
X160329000Y-98379000D01*
X155690000Y-98339000D02*
X156960000Y-98339000D01*
X159040000Y-98339000D02*
X160310000Y-98339000D01*
X155710000Y-98299000D02*
X156960000Y-98299000D01*
X159040000Y-98299000D02*
X160290000Y-98299000D01*
X155732000Y-98259000D02*
X156960000Y-98259000D01*
X159040000Y-98259000D02*
X160268000Y-98259000D01*
X155753000Y-98219000D02*
X156960000Y-98219000D01*
X159040000Y-98219000D02*
X160247000Y-98219000D01*
X155776000Y-98179000D02*
X156960000Y-98179000D01*
X159040000Y-98179000D02*
X160224000Y-98179000D01*
X155800000Y-98139000D02*
X156960000Y-98139000D01*
X159040000Y-98139000D02*
X160200000Y-98139000D01*
X155825000Y-98099000D02*
X156960000Y-98099000D01*
X159040000Y-98099000D02*
X160175000Y-98099000D01*
X155851000Y-98059000D02*
X156960000Y-98059000D01*
X159040000Y-98059000D02*
X160149000Y-98059000D01*
X155878000Y-98019000D02*
X156960000Y-98019000D01*
X159040000Y-98019000D02*
X160122000Y-98019000D01*
X155905000Y-97979000D02*
X156960000Y-97979000D01*
X159040000Y-97979000D02*
X160095000Y-97979000D01*
X155935000Y-97939000D02*
X156960000Y-97939000D01*
X159040000Y-97939000D02*
X160065000Y-97939000D01*
X155965000Y-97899000D02*
X156960000Y-97899000D01*
X159040000Y-97899000D02*
X160035000Y-97899000D01*
X155996000Y-97859000D02*
X156960000Y-97859000D01*
X159040000Y-97859000D02*
X160004000Y-97859000D01*
X156029000Y-97819000D02*
X156960000Y-97819000D01*
X159040000Y-97819000D02*
X159971000Y-97819000D01*
X156063000Y-97779000D02*
X156960000Y-97779000D01*
X159040000Y-97779000D02*
X159937000Y-97779000D01*
X156099000Y-97739000D02*
X156960000Y-97739000D01*
X159040000Y-97739000D02*
X159901000Y-97739000D01*
X156136000Y-97699000D02*
X156960000Y-97699000D01*
X159040000Y-97699000D02*
X159864000Y-97699000D01*
X156174000Y-97659000D02*
X156960000Y-97659000D01*
X159040000Y-97659000D02*
X159826000Y-97659000D01*
X156215000Y-97619000D02*
X156960000Y-97619000D01*
X159040000Y-97619000D02*
X159785000Y-97619000D01*
X156257000Y-97579000D02*
X156960000Y-97579000D01*
X159040000Y-97579000D02*
X159743000Y-97579000D01*
X156301000Y-97539000D02*
X156960000Y-97539000D01*
X159040000Y-97539000D02*
X159699000Y-97539000D01*
X156347000Y-97499000D02*
X156960000Y-97499000D01*
X159040000Y-97499000D02*
X159653000Y-97499000D01*
X156395000Y-97459000D02*
X159605000Y-97459000D01*
X156446000Y-97419000D02*
X159554000Y-97419000D01*
X156500000Y-97379000D02*
X159500000Y-97379000D01*
X156557000Y-97339000D02*
X159443000Y-97339000D01*
X156617000Y-97299000D02*
X159383000Y-97299000D01*
X156681000Y-97259000D02*
X159319000Y-97259000D01*
X156749000Y-97219000D02*
X159251000Y-97219000D01*
X156822000Y-97179000D02*
X159178000Y-97179000D01*
X156902000Y-97139000D02*
X159098000Y-97139000D01*
X156989000Y-97099000D02*
X159011000Y-97099000D01*
X157085000Y-97059000D02*
X158915000Y-97059000D01*
X157195000Y-97019000D02*
X158805000Y-97019000D01*
X157323000Y-96979000D02*
X158677000Y-96979000D01*
X157482000Y-96939000D02*
X158518000Y-96939000D01*
X157716000Y-96899000D02*
X158284000Y-96899000D01*
X156525000Y-102304775D02*
X156525000Y-101804775D01*
X156275000Y-102054775D02*
X156775000Y-102054775D01*
D10*
X154238095Y-106952380D02*
X154238095Y-107761904D01*
X154285714Y-107857142D01*
X154333333Y-107904761D01*
X154428571Y-107952380D01*
X154619047Y-107952380D01*
X154714285Y-107904761D01*
X154761904Y-107857142D01*
X154809523Y-107761904D01*
X154809523Y-106952380D01*
X155190476Y-106952380D02*
X155809523Y-106952380D01*
X155476190Y-107333333D01*
X155619047Y-107333333D01*
X155714285Y-107380952D01*
X155761904Y-107428571D01*
X155809523Y-107523809D01*
X155809523Y-107761904D01*
X155761904Y-107857142D01*
X155714285Y-107904761D01*
X155619047Y-107952380D01*
X155333333Y-107952380D01*
X155238095Y-107904761D01*
X155190476Y-107857142D01*
X148666666Y-96452380D02*
X148666666Y-97166666D01*
X148619047Y-97309523D01*
X148523809Y-97404761D01*
X148380952Y-97452380D01*
X148285714Y-97452380D01*
X149095238Y-96547619D02*
X149142857Y-96500000D01*
X149238095Y-96452380D01*
X149476190Y-96452380D01*
X149571428Y-96500000D01*
X149619047Y-96547619D01*
X149666666Y-96642857D01*
X149666666Y-96738095D01*
X149619047Y-96880952D01*
X149047619Y-97452380D01*
X149666666Y-97452380D01*
X136785714Y-96166666D02*
X137261904Y-96166666D01*
X136690476Y-96452380D02*
X137023809Y-95452380D01*
X137357142Y-96452380D01*
X138214285Y-96452380D02*
X137642857Y-96452380D01*
X137928571Y-96452380D02*
X137928571Y-95452380D01*
X137833333Y-95595238D01*
X137738095Y-95690476D01*
X137642857Y-95738095D01*
X149618095Y-80212380D02*
X149618095Y-81021904D01*
X149665714Y-81117142D01*
X149713333Y-81164761D01*
X149808571Y-81212380D01*
X149999047Y-81212380D01*
X150094285Y-81164761D01*
X150141904Y-81117142D01*
X150189523Y-81021904D01*
X150189523Y-80212380D01*
X150618095Y-80307619D02*
X150665714Y-80260000D01*
X150760952Y-80212380D01*
X150999047Y-80212380D01*
X151094285Y-80260000D01*
X151141904Y-80307619D01*
X151189523Y-80402857D01*
X151189523Y-80498095D01*
X151141904Y-80640952D01*
X150570476Y-81212380D01*
X151189523Y-81212380D01*
X147738095Y-107952380D02*
X147738095Y-108761904D01*
X147785714Y-108857142D01*
X147833333Y-108904761D01*
X147928571Y-108952380D01*
X148119047Y-108952380D01*
X148214285Y-108904761D01*
X148261904Y-108857142D01*
X148309523Y-108761904D01*
X148309523Y-107952380D01*
X149309523Y-108952380D02*
X148738095Y-108952380D01*
X149023809Y-108952380D02*
X149023809Y-107952380D01*
X148928571Y-108095238D01*
X148833333Y-108190476D01*
X148738095Y-108238095D01*
X154333333Y-102952380D02*
X154000000Y-102476190D01*
X153761904Y-102952380D02*
X153761904Y-101952380D01*
X154142857Y-101952380D01*
X154238095Y-102000000D01*
X154285714Y-102047619D01*
X154333333Y-102142857D01*
X154333333Y-102285714D01*
X154285714Y-102380952D01*
X154238095Y-102428571D01*
X154142857Y-102476190D01*
X153761904Y-102476190D01*
X155285714Y-102952380D02*
X154714285Y-102952380D01*
X155000000Y-102952380D02*
X155000000Y-101952380D01*
X154904761Y-102095238D01*
X154809523Y-102190476D01*
X154714285Y-102238095D01*
X162666666Y-94452380D02*
X162666666Y-95166666D01*
X162619047Y-95309523D01*
X162523809Y-95404761D01*
X162380952Y-95452380D01*
X162285714Y-95452380D01*
X163666666Y-95452380D02*
X163095238Y-95452380D01*
X163380952Y-95452380D02*
X163380952Y-94452380D01*
X163285714Y-94595238D01*
X163190476Y-94690476D01*
X163095238Y-94738095D01*
X154833333Y-96857142D02*
X154785714Y-96904761D01*
X154642857Y-96952380D01*
X154547619Y-96952380D01*
X154404761Y-96904761D01*
X154309523Y-96809523D01*
X154261904Y-96714285D01*
X154214285Y-96523809D01*
X154214285Y-96380952D01*
X154261904Y-96190476D01*
X154309523Y-96095238D01*
X154404761Y-96000000D01*
X154547619Y-95952380D01*
X154642857Y-95952380D01*
X154785714Y-96000000D01*
X154833333Y-96047619D01*
X155785714Y-96952380D02*
X155214285Y-96952380D01*
X155500000Y-96952380D02*
X155500000Y-95952380D01*
X155404761Y-96095238D01*
X155309523Y-96190476D01*
X155214285Y-96238095D01*
%LPC*%
D12*
X170500000Y-116000000D03*
X170500000Y-76500000D03*
X125000000Y-116000000D03*
X125000000Y-76500000D03*
D13*
X165630000Y-110460000D03*
X165630000Y-113000000D03*
X165630000Y-115540000D03*
D14*
X151000000Y-104580000D03*
X151000000Y-102040000D03*
D15*
X151000000Y-99500000D03*
D16*
X145240000Y-114060000D03*
X130000000Y-114060000D03*
X145240000Y-78500000D03*
X130000000Y-111520000D03*
X145240000Y-81040000D03*
X130000000Y-108980000D03*
X145240000Y-83580000D03*
X130000000Y-106440000D03*
X145240000Y-86120000D03*
X130000000Y-103900000D03*
X145240000Y-88660000D03*
X130000000Y-101360000D03*
X145240000Y-91200000D03*
X130000000Y-98820000D03*
X145240000Y-93740000D03*
X130000000Y-96280000D03*
X145240000Y-96280000D03*
X130000000Y-93740000D03*
X145240000Y-98820000D03*
X130000000Y-91200000D03*
X145240000Y-101360000D03*
X130000000Y-88660000D03*
X145240000Y-103900000D03*
X130000000Y-86120000D03*
X145240000Y-106440000D03*
X130000000Y-83580000D03*
X145240000Y-108980000D03*
X130000000Y-81040000D03*
X145240000Y-111520000D03*
D17*
X130000000Y-78500000D03*
D18*
X153280000Y-83010000D03*
X153280000Y-85010000D03*
X153280000Y-87010000D03*
X153280000Y-89010000D03*
D19*
X156130000Y-91610000D03*
X158130000Y-91610000D03*
X160130000Y-91610000D03*
X162130000Y-91610000D03*
D18*
X164980000Y-89010000D03*
X164980000Y-87010000D03*
X164980000Y-85010000D03*
D20*
X151500000Y-112500000D03*
D21*
X151500000Y-109960000D03*
X151500000Y-111230000D03*
D16*
X154840000Y-105000000D03*
D22*
X165000000Y-105000000D03*
D14*
X165000000Y-97460000D03*
D15*
X165000000Y-100000000D03*
D22*
X158000000Y-98500000D03*
D17*
X158000000Y-100500000D03*
M02*
