%TF.GenerationSoftware,KiCad,Pcbnew,(5.1.10)-1*%
%TF.CreationDate,2021-11-22T17:18:02+01:00*%
%TF.ProjectId,termostat,7465726d-6f73-4746-9174-2e6b69636164,rev?*%
%TF.SameCoordinates,Original*%
%TF.FileFunction,Copper,L2,Bot*%
%TF.FilePolarity,Positive*%
%FSLAX46Y46*%
G04 Gerber Fmt 4.6, Leading zero omitted, Abs format (unit mm)*
G04 Created by KiCad (PCBNEW (5.1.10)-1) date 2021-11-22 17:18:02*
%MOMM*%
%LPD*%
G01*
G04 APERTURE LIST*
%TA.AperFunction,ComponentPad*%
%ADD10C,1.700000*%
%TD*%
%TA.AperFunction,ComponentPad*%
%ADD11O,1.700000X1.700000*%
%TD*%
%TA.AperFunction,ComponentPad*%
%ADD12R,1.700000X1.700000*%
%TD*%
%TA.AperFunction,ComponentPad*%
%ADD13O,1.600000X1.600000*%
%TD*%
%TA.AperFunction,ComponentPad*%
%ADD14R,1.600000X1.600000*%
%TD*%
%TA.AperFunction,ComponentPad*%
%ADD15R,1.500000X1.050000*%
%TD*%
%TA.AperFunction,ComponentPad*%
%ADD16O,1.500000X1.050000*%
%TD*%
%TA.AperFunction,ComponentPad*%
%ADD17C,1.600000*%
%TD*%
%TA.AperFunction,ViaPad*%
%ADD18C,0.800000*%
%TD*%
%TA.AperFunction,Conductor*%
%ADD19C,0.250000*%
%TD*%
%TA.AperFunction,Conductor*%
%ADD20C,0.750000*%
%TD*%
%TA.AperFunction,Conductor*%
%ADD21C,0.254000*%
%TD*%
%TA.AperFunction,Conductor*%
%ADD22C,0.100000*%
%TD*%
G04 APERTURE END LIST*
D10*
X165630000Y-110460000D03*
X165630000Y-113000000D03*
X165630000Y-115540000D03*
D11*
X151000000Y-104580000D03*
X151000000Y-102040000D03*
D12*
X151000000Y-99500000D03*
D13*
X145240000Y-114060000D03*
X130000000Y-114060000D03*
X145240000Y-78500000D03*
X130000000Y-111520000D03*
X145240000Y-81040000D03*
X130000000Y-108980000D03*
X145240000Y-83580000D03*
X130000000Y-106440000D03*
X145240000Y-86120000D03*
X130000000Y-103900000D03*
X145240000Y-88660000D03*
X130000000Y-101360000D03*
X145240000Y-91200000D03*
X130000000Y-98820000D03*
X145240000Y-93740000D03*
X130000000Y-96280000D03*
X145240000Y-96280000D03*
X130000000Y-93740000D03*
X145240000Y-98820000D03*
X130000000Y-91200000D03*
X145240000Y-101360000D03*
X130000000Y-88660000D03*
X145240000Y-103900000D03*
X130000000Y-86120000D03*
X145240000Y-106440000D03*
X130000000Y-83580000D03*
X145240000Y-108980000D03*
X130000000Y-81040000D03*
X145240000Y-111520000D03*
D14*
X130000000Y-78500000D03*
D15*
X151500000Y-112500000D03*
D16*
X151500000Y-109960000D03*
X151500000Y-111230000D03*
D13*
X154840000Y-105000000D03*
D17*
X165000000Y-105000000D03*
D11*
X165000000Y-97460000D03*
D12*
X165000000Y-100000000D03*
D17*
X158000000Y-98500000D03*
D14*
X158000000Y-100500000D03*
D18*
X160500000Y-87000000D03*
X148274990Y-89000000D03*
X153500000Y-91500000D03*
X154500000Y-98500000D03*
X166500000Y-94000000D03*
X160750000Y-95000000D03*
D19*
X148274990Y-98325010D02*
X145240000Y-101360000D01*
X148274990Y-89000000D02*
X148274990Y-98325010D01*
X145710000Y-106440000D02*
X145240000Y-106440000D01*
X150500000Y-111230000D02*
X145710000Y-106440000D01*
X151500000Y-111230000D02*
X150500000Y-111230000D01*
D20*
X153500000Y-97500000D02*
X154500000Y-98500000D01*
X153500000Y-91500000D02*
X153500000Y-97500000D01*
X160750000Y-95000000D02*
X160750000Y-95000000D01*
X165500000Y-95000000D02*
X166500000Y-94000000D01*
X160750000Y-95000000D02*
X165500000Y-95000000D01*
X145240000Y-78620000D02*
X145240000Y-78500000D01*
X150750000Y-84130000D02*
X145240000Y-78620000D01*
X150750000Y-99250000D02*
X150750000Y-84130000D01*
X151000000Y-99500000D02*
X150750000Y-99250000D01*
D21*
X150805978Y-73166150D02*
X150855624Y-73329811D01*
X150873000Y-73506234D01*
X150873000Y-81000000D01*
X150873612Y-81012448D01*
X150892827Y-81207538D01*
X150897683Y-81231956D01*
X150954588Y-81419549D01*
X150964116Y-81442550D01*
X151056526Y-81615437D01*
X151070358Y-81636138D01*
X151194721Y-81787675D01*
X151212325Y-81805279D01*
X151363862Y-81929642D01*
X151384563Y-81943474D01*
X151557450Y-82035884D01*
X151580451Y-82045412D01*
X151768044Y-82102317D01*
X151792462Y-82107173D01*
X151987552Y-82126388D01*
X152000000Y-82127000D01*
X173493766Y-82127000D01*
X173670189Y-82144376D01*
X173833850Y-82194022D01*
X173840000Y-82197309D01*
X173840001Y-119340000D01*
X121660000Y-119340000D01*
X121660000Y-115779872D01*
X122765000Y-115779872D01*
X122765000Y-116220128D01*
X122850890Y-116651925D01*
X123019369Y-117058669D01*
X123263962Y-117424729D01*
X123575271Y-117736038D01*
X123941331Y-117980631D01*
X124348075Y-118149110D01*
X124779872Y-118235000D01*
X125220128Y-118235000D01*
X125651925Y-118149110D01*
X126058669Y-117980631D01*
X126424729Y-117736038D01*
X126736038Y-117424729D01*
X126980631Y-117058669D01*
X127149110Y-116651925D01*
X127235000Y-116220128D01*
X127235000Y-115779872D01*
X127149110Y-115348075D01*
X126980631Y-114941331D01*
X126736038Y-114575271D01*
X126424729Y-114263962D01*
X126058669Y-114019369D01*
X125651925Y-113850890D01*
X125220128Y-113765000D01*
X124779872Y-113765000D01*
X124348075Y-113850890D01*
X123941331Y-114019369D01*
X123575271Y-114263962D01*
X123263962Y-114575271D01*
X123019369Y-114941331D01*
X122850890Y-115348075D01*
X122765000Y-115779872D01*
X121660000Y-115779872D01*
X121660000Y-88518665D01*
X128565000Y-88518665D01*
X128565000Y-88801335D01*
X128620147Y-89078574D01*
X128728320Y-89339727D01*
X128885363Y-89574759D01*
X129085241Y-89774637D01*
X129317759Y-89930000D01*
X129085241Y-90085363D01*
X128885363Y-90285241D01*
X128728320Y-90520273D01*
X128620147Y-90781426D01*
X128565000Y-91058665D01*
X128565000Y-91341335D01*
X128620147Y-91618574D01*
X128728320Y-91879727D01*
X128885363Y-92114759D01*
X129085241Y-92314637D01*
X129317759Y-92470000D01*
X129085241Y-92625363D01*
X128885363Y-92825241D01*
X128728320Y-93060273D01*
X128620147Y-93321426D01*
X128565000Y-93598665D01*
X128565000Y-93881335D01*
X128620147Y-94158574D01*
X128728320Y-94419727D01*
X128885363Y-94654759D01*
X129085241Y-94854637D01*
X129317759Y-95010000D01*
X129085241Y-95165363D01*
X128885363Y-95365241D01*
X128728320Y-95600273D01*
X128620147Y-95861426D01*
X128565000Y-96138665D01*
X128565000Y-96421335D01*
X128620147Y-96698574D01*
X128728320Y-96959727D01*
X128885363Y-97194759D01*
X129085241Y-97394637D01*
X129317759Y-97550000D01*
X129085241Y-97705363D01*
X128885363Y-97905241D01*
X128728320Y-98140273D01*
X128620147Y-98401426D01*
X128565000Y-98678665D01*
X128565000Y-98961335D01*
X128620147Y-99238574D01*
X128728320Y-99499727D01*
X128885363Y-99734759D01*
X129085241Y-99934637D01*
X129317759Y-100090000D01*
X129085241Y-100245363D01*
X128885363Y-100445241D01*
X128728320Y-100680273D01*
X128620147Y-100941426D01*
X128565000Y-101218665D01*
X128565000Y-101501335D01*
X128620147Y-101778574D01*
X128728320Y-102039727D01*
X128885363Y-102274759D01*
X129085241Y-102474637D01*
X129317759Y-102630000D01*
X129085241Y-102785363D01*
X128885363Y-102985241D01*
X128728320Y-103220273D01*
X128620147Y-103481426D01*
X128565000Y-103758665D01*
X128565000Y-104041335D01*
X128620147Y-104318574D01*
X128728320Y-104579727D01*
X128885363Y-104814759D01*
X129085241Y-105014637D01*
X129317759Y-105170000D01*
X129085241Y-105325363D01*
X128885363Y-105525241D01*
X128728320Y-105760273D01*
X128620147Y-106021426D01*
X128565000Y-106298665D01*
X128565000Y-106581335D01*
X128620147Y-106858574D01*
X128728320Y-107119727D01*
X128885363Y-107354759D01*
X129085241Y-107554637D01*
X129317759Y-107710000D01*
X129085241Y-107865363D01*
X128885363Y-108065241D01*
X128728320Y-108300273D01*
X128620147Y-108561426D01*
X128565000Y-108838665D01*
X128565000Y-109121335D01*
X128620147Y-109398574D01*
X128728320Y-109659727D01*
X128885363Y-109894759D01*
X129085241Y-110094637D01*
X129317759Y-110250000D01*
X129085241Y-110405363D01*
X128885363Y-110605241D01*
X128728320Y-110840273D01*
X128620147Y-111101426D01*
X128565000Y-111378665D01*
X128565000Y-111661335D01*
X128620147Y-111938574D01*
X128728320Y-112199727D01*
X128885363Y-112434759D01*
X129085241Y-112634637D01*
X129317759Y-112790000D01*
X129085241Y-112945363D01*
X128885363Y-113145241D01*
X128728320Y-113380273D01*
X128620147Y-113641426D01*
X128565000Y-113918665D01*
X128565000Y-114201335D01*
X128620147Y-114478574D01*
X128728320Y-114739727D01*
X128885363Y-114974759D01*
X129085241Y-115174637D01*
X129320273Y-115331680D01*
X129581426Y-115439853D01*
X129858665Y-115495000D01*
X130141335Y-115495000D01*
X130418574Y-115439853D01*
X130679727Y-115331680D01*
X130914759Y-115174637D01*
X131114637Y-114974759D01*
X131271680Y-114739727D01*
X131379853Y-114478574D01*
X131435000Y-114201335D01*
X131435000Y-113918665D01*
X131379853Y-113641426D01*
X131271680Y-113380273D01*
X131114637Y-113145241D01*
X130914759Y-112945363D01*
X130682241Y-112790000D01*
X130914759Y-112634637D01*
X131114637Y-112434759D01*
X131271680Y-112199727D01*
X131379853Y-111938574D01*
X131435000Y-111661335D01*
X131435000Y-111378665D01*
X131379853Y-111101426D01*
X131271680Y-110840273D01*
X131114637Y-110605241D01*
X130914759Y-110405363D01*
X130682241Y-110250000D01*
X130914759Y-110094637D01*
X131114637Y-109894759D01*
X131271680Y-109659727D01*
X131379853Y-109398574D01*
X131435000Y-109121335D01*
X131435000Y-108838665D01*
X131379853Y-108561426D01*
X131271680Y-108300273D01*
X131114637Y-108065241D01*
X130914759Y-107865363D01*
X130682241Y-107710000D01*
X130914759Y-107554637D01*
X131114637Y-107354759D01*
X131271680Y-107119727D01*
X131379853Y-106858574D01*
X131435000Y-106581335D01*
X131435000Y-106298665D01*
X131379853Y-106021426D01*
X131271680Y-105760273D01*
X131114637Y-105525241D01*
X130914759Y-105325363D01*
X130682241Y-105170000D01*
X130914759Y-105014637D01*
X131114637Y-104814759D01*
X131271680Y-104579727D01*
X131379853Y-104318574D01*
X131435000Y-104041335D01*
X131435000Y-103758665D01*
X131379853Y-103481426D01*
X131271680Y-103220273D01*
X131114637Y-102985241D01*
X130914759Y-102785363D01*
X130682241Y-102630000D01*
X130914759Y-102474637D01*
X131114637Y-102274759D01*
X131271680Y-102039727D01*
X131379853Y-101778574D01*
X131435000Y-101501335D01*
X131435000Y-101218665D01*
X131379853Y-100941426D01*
X131271680Y-100680273D01*
X131114637Y-100445241D01*
X130914759Y-100245363D01*
X130682241Y-100090000D01*
X130914759Y-99934637D01*
X131114637Y-99734759D01*
X131271680Y-99499727D01*
X131379853Y-99238574D01*
X131435000Y-98961335D01*
X131435000Y-98678665D01*
X131379853Y-98401426D01*
X131271680Y-98140273D01*
X131114637Y-97905241D01*
X130914759Y-97705363D01*
X130682241Y-97550000D01*
X130914759Y-97394637D01*
X131114637Y-97194759D01*
X131271680Y-96959727D01*
X131379853Y-96698574D01*
X131435000Y-96421335D01*
X131435000Y-96138665D01*
X131379853Y-95861426D01*
X131271680Y-95600273D01*
X131114637Y-95365241D01*
X130914759Y-95165363D01*
X130682241Y-95010000D01*
X130914759Y-94854637D01*
X131114637Y-94654759D01*
X131271680Y-94419727D01*
X131379853Y-94158574D01*
X131435000Y-93881335D01*
X131435000Y-93598665D01*
X131379853Y-93321426D01*
X131271680Y-93060273D01*
X131114637Y-92825241D01*
X130914759Y-92625363D01*
X130682241Y-92470000D01*
X130914759Y-92314637D01*
X131114637Y-92114759D01*
X131271680Y-91879727D01*
X131379853Y-91618574D01*
X131435000Y-91341335D01*
X131435000Y-91058665D01*
X131379853Y-90781426D01*
X131271680Y-90520273D01*
X131114637Y-90285241D01*
X130914759Y-90085363D01*
X130682241Y-89930000D01*
X130914759Y-89774637D01*
X131114637Y-89574759D01*
X131271680Y-89339727D01*
X131379853Y-89078574D01*
X131435000Y-88801335D01*
X131435000Y-88518665D01*
X131379853Y-88241426D01*
X131271680Y-87980273D01*
X131114637Y-87745241D01*
X130914759Y-87545363D01*
X130679727Y-87388320D01*
X130669135Y-87383933D01*
X130855131Y-87272385D01*
X131063519Y-87083414D01*
X131231037Y-86857420D01*
X131351246Y-86603087D01*
X131391904Y-86469039D01*
X131269915Y-86247000D01*
X130127000Y-86247000D01*
X130127000Y-86267000D01*
X129873000Y-86267000D01*
X129873000Y-86247000D01*
X128730085Y-86247000D01*
X128608096Y-86469039D01*
X128648754Y-86603087D01*
X128768963Y-86857420D01*
X128936481Y-87083414D01*
X129144869Y-87272385D01*
X129330865Y-87383933D01*
X129320273Y-87388320D01*
X129085241Y-87545363D01*
X128885363Y-87745241D01*
X128728320Y-87980273D01*
X128620147Y-88241426D01*
X128565000Y-88518665D01*
X121660000Y-88518665D01*
X121660000Y-76279872D01*
X122765000Y-76279872D01*
X122765000Y-76720128D01*
X122850890Y-77151925D01*
X123019369Y-77558669D01*
X123263962Y-77924729D01*
X123575271Y-78236038D01*
X123941331Y-78480631D01*
X124348075Y-78649110D01*
X124779872Y-78735000D01*
X125220128Y-78735000D01*
X125651925Y-78649110D01*
X126058669Y-78480631D01*
X126424729Y-78236038D01*
X126736038Y-77924729D01*
X126886196Y-77700000D01*
X128561928Y-77700000D01*
X128561928Y-79300000D01*
X128574188Y-79424482D01*
X128610498Y-79544180D01*
X128669463Y-79654494D01*
X128748815Y-79751185D01*
X128845506Y-79830537D01*
X128955820Y-79889502D01*
X129075518Y-79925812D01*
X129083961Y-79926643D01*
X128885363Y-80125241D01*
X128728320Y-80360273D01*
X128620147Y-80621426D01*
X128565000Y-80898665D01*
X128565000Y-81181335D01*
X128620147Y-81458574D01*
X128728320Y-81719727D01*
X128885363Y-81954759D01*
X129085241Y-82154637D01*
X129317759Y-82310000D01*
X129085241Y-82465363D01*
X128885363Y-82665241D01*
X128728320Y-82900273D01*
X128620147Y-83161426D01*
X128565000Y-83438665D01*
X128565000Y-83721335D01*
X128620147Y-83998574D01*
X128728320Y-84259727D01*
X128885363Y-84494759D01*
X129085241Y-84694637D01*
X129320273Y-84851680D01*
X129330865Y-84856067D01*
X129144869Y-84967615D01*
X128936481Y-85156586D01*
X128768963Y-85382580D01*
X128648754Y-85636913D01*
X128608096Y-85770961D01*
X128730085Y-85993000D01*
X129873000Y-85993000D01*
X129873000Y-85973000D01*
X130127000Y-85973000D01*
X130127000Y-85993000D01*
X131269915Y-85993000D01*
X131391904Y-85770961D01*
X131351246Y-85636913D01*
X131231037Y-85382580D01*
X131063519Y-85156586D01*
X130855131Y-84967615D01*
X130669135Y-84856067D01*
X130679727Y-84851680D01*
X130914759Y-84694637D01*
X131114637Y-84494759D01*
X131271680Y-84259727D01*
X131379853Y-83998574D01*
X131435000Y-83721335D01*
X131435000Y-83438665D01*
X131379853Y-83161426D01*
X131271680Y-82900273D01*
X131114637Y-82665241D01*
X130914759Y-82465363D01*
X130682241Y-82310000D01*
X130914759Y-82154637D01*
X131114637Y-81954759D01*
X131271680Y-81719727D01*
X131379853Y-81458574D01*
X131435000Y-81181335D01*
X131435000Y-80898665D01*
X131379853Y-80621426D01*
X131271680Y-80360273D01*
X131114637Y-80125241D01*
X130916039Y-79926643D01*
X130924482Y-79925812D01*
X131044180Y-79889502D01*
X131154494Y-79830537D01*
X131251185Y-79751185D01*
X131330537Y-79654494D01*
X131389502Y-79544180D01*
X131425812Y-79424482D01*
X131438072Y-79300000D01*
X131438072Y-78358665D01*
X143805000Y-78358665D01*
X143805000Y-78641335D01*
X143860147Y-78918574D01*
X143968320Y-79179727D01*
X144125363Y-79414759D01*
X144325241Y-79614637D01*
X144560273Y-79771680D01*
X144570865Y-79776067D01*
X144384869Y-79887615D01*
X144176481Y-80076586D01*
X144008963Y-80302580D01*
X143888754Y-80556913D01*
X143848096Y-80690961D01*
X143970085Y-80913000D01*
X145113000Y-80913000D01*
X145113000Y-80893000D01*
X145367000Y-80893000D01*
X145367000Y-80913000D01*
X145387000Y-80913000D01*
X145387000Y-81167000D01*
X145367000Y-81167000D01*
X145367000Y-81187000D01*
X145113000Y-81187000D01*
X145113000Y-81167000D01*
X143970085Y-81167000D01*
X143848096Y-81389039D01*
X143888754Y-81523087D01*
X144008963Y-81777420D01*
X144176481Y-82003414D01*
X144384869Y-82192385D01*
X144570865Y-82303933D01*
X144560273Y-82308320D01*
X144325241Y-82465363D01*
X144125363Y-82665241D01*
X143968320Y-82900273D01*
X143860147Y-83161426D01*
X143805000Y-83438665D01*
X143805000Y-83721335D01*
X143860147Y-83998574D01*
X143968320Y-84259727D01*
X144125363Y-84494759D01*
X144325241Y-84694637D01*
X144557759Y-84850000D01*
X144325241Y-85005363D01*
X144125363Y-85205241D01*
X143968320Y-85440273D01*
X143860147Y-85701426D01*
X143805000Y-85978665D01*
X143805000Y-86261335D01*
X143860147Y-86538574D01*
X143968320Y-86799727D01*
X144125363Y-87034759D01*
X144325241Y-87234637D01*
X144557759Y-87390000D01*
X144325241Y-87545363D01*
X144125363Y-87745241D01*
X143968320Y-87980273D01*
X143860147Y-88241426D01*
X143805000Y-88518665D01*
X143805000Y-88801335D01*
X143860147Y-89078574D01*
X143968320Y-89339727D01*
X144125363Y-89574759D01*
X144325241Y-89774637D01*
X144557759Y-89930000D01*
X144325241Y-90085363D01*
X144125363Y-90285241D01*
X143968320Y-90520273D01*
X143860147Y-90781426D01*
X143805000Y-91058665D01*
X143805000Y-91341335D01*
X143860147Y-91618574D01*
X143968320Y-91879727D01*
X144125363Y-92114759D01*
X144325241Y-92314637D01*
X144557759Y-92470000D01*
X144325241Y-92625363D01*
X144125363Y-92825241D01*
X143968320Y-93060273D01*
X143860147Y-93321426D01*
X143805000Y-93598665D01*
X143805000Y-93881335D01*
X143860147Y-94158574D01*
X143968320Y-94419727D01*
X144125363Y-94654759D01*
X144325241Y-94854637D01*
X144557759Y-95010000D01*
X144325241Y-95165363D01*
X144125363Y-95365241D01*
X143968320Y-95600273D01*
X143860147Y-95861426D01*
X143805000Y-96138665D01*
X143805000Y-96421335D01*
X143860147Y-96698574D01*
X143968320Y-96959727D01*
X144125363Y-97194759D01*
X144325241Y-97394637D01*
X144557759Y-97550000D01*
X144325241Y-97705363D01*
X144125363Y-97905241D01*
X143968320Y-98140273D01*
X143860147Y-98401426D01*
X143805000Y-98678665D01*
X143805000Y-98961335D01*
X143860147Y-99238574D01*
X143968320Y-99499727D01*
X144125363Y-99734759D01*
X144325241Y-99934637D01*
X144557759Y-100090000D01*
X144325241Y-100245363D01*
X144125363Y-100445241D01*
X143968320Y-100680273D01*
X143860147Y-100941426D01*
X143805000Y-101218665D01*
X143805000Y-101501335D01*
X143860147Y-101778574D01*
X143968320Y-102039727D01*
X144125363Y-102274759D01*
X144325241Y-102474637D01*
X144557759Y-102630000D01*
X144325241Y-102785363D01*
X144125363Y-102985241D01*
X143968320Y-103220273D01*
X143860147Y-103481426D01*
X143805000Y-103758665D01*
X143805000Y-104041335D01*
X143860147Y-104318574D01*
X143968320Y-104579727D01*
X144125363Y-104814759D01*
X144325241Y-105014637D01*
X144557759Y-105170000D01*
X144325241Y-105325363D01*
X144125363Y-105525241D01*
X143968320Y-105760273D01*
X143860147Y-106021426D01*
X143805000Y-106298665D01*
X143805000Y-106581335D01*
X143860147Y-106858574D01*
X143968320Y-107119727D01*
X144125363Y-107354759D01*
X144325241Y-107554637D01*
X144557759Y-107710000D01*
X144325241Y-107865363D01*
X144125363Y-108065241D01*
X143968320Y-108300273D01*
X143860147Y-108561426D01*
X143805000Y-108838665D01*
X143805000Y-109121335D01*
X143860147Y-109398574D01*
X143968320Y-109659727D01*
X144125363Y-109894759D01*
X144325241Y-110094637D01*
X144557759Y-110250000D01*
X144325241Y-110405363D01*
X144125363Y-110605241D01*
X143968320Y-110840273D01*
X143860147Y-111101426D01*
X143805000Y-111378665D01*
X143805000Y-111661335D01*
X143860147Y-111938574D01*
X143968320Y-112199727D01*
X144125363Y-112434759D01*
X144325241Y-112634637D01*
X144557759Y-112790000D01*
X144325241Y-112945363D01*
X144125363Y-113145241D01*
X143968320Y-113380273D01*
X143860147Y-113641426D01*
X143805000Y-113918665D01*
X143805000Y-114201335D01*
X143860147Y-114478574D01*
X143968320Y-114739727D01*
X144125363Y-114974759D01*
X144325241Y-115174637D01*
X144560273Y-115331680D01*
X144821426Y-115439853D01*
X145098665Y-115495000D01*
X145381335Y-115495000D01*
X145658574Y-115439853D01*
X145769900Y-115393740D01*
X164145000Y-115393740D01*
X164145000Y-115686260D01*
X164202068Y-115973158D01*
X164314010Y-116243411D01*
X164476525Y-116486632D01*
X164683368Y-116693475D01*
X164926589Y-116855990D01*
X165196842Y-116967932D01*
X165483740Y-117025000D01*
X165776260Y-117025000D01*
X166063158Y-116967932D01*
X166333411Y-116855990D01*
X166576632Y-116693475D01*
X166783475Y-116486632D01*
X166945990Y-116243411D01*
X167057932Y-115973158D01*
X167096379Y-115779872D01*
X168265000Y-115779872D01*
X168265000Y-116220128D01*
X168350890Y-116651925D01*
X168519369Y-117058669D01*
X168763962Y-117424729D01*
X169075271Y-117736038D01*
X169441331Y-117980631D01*
X169848075Y-118149110D01*
X170279872Y-118235000D01*
X170720128Y-118235000D01*
X171151925Y-118149110D01*
X171558669Y-117980631D01*
X171924729Y-117736038D01*
X172236038Y-117424729D01*
X172480631Y-117058669D01*
X172649110Y-116651925D01*
X172735000Y-116220128D01*
X172735000Y-115779872D01*
X172649110Y-115348075D01*
X172480631Y-114941331D01*
X172236038Y-114575271D01*
X171924729Y-114263962D01*
X171558669Y-114019369D01*
X171151925Y-113850890D01*
X170720128Y-113765000D01*
X170279872Y-113765000D01*
X169848075Y-113850890D01*
X169441331Y-114019369D01*
X169075271Y-114263962D01*
X168763962Y-114575271D01*
X168519369Y-114941331D01*
X168350890Y-115348075D01*
X168265000Y-115779872D01*
X167096379Y-115779872D01*
X167115000Y-115686260D01*
X167115000Y-115393740D01*
X167057932Y-115106842D01*
X166945990Y-114836589D01*
X166783475Y-114593368D01*
X166576632Y-114386525D01*
X166403271Y-114270689D01*
X166478792Y-114028397D01*
X165630000Y-113179605D01*
X164781208Y-114028397D01*
X164856729Y-114270689D01*
X164683368Y-114386525D01*
X164476525Y-114593368D01*
X164314010Y-114836589D01*
X164202068Y-115106842D01*
X164145000Y-115393740D01*
X145769900Y-115393740D01*
X145919727Y-115331680D01*
X146154759Y-115174637D01*
X146354637Y-114974759D01*
X146511680Y-114739727D01*
X146619853Y-114478574D01*
X146675000Y-114201335D01*
X146675000Y-113918665D01*
X146619853Y-113641426D01*
X146511680Y-113380273D01*
X146354637Y-113145241D01*
X146234396Y-113025000D01*
X150111928Y-113025000D01*
X150124188Y-113149482D01*
X150160498Y-113269180D01*
X150219463Y-113379494D01*
X150298815Y-113476185D01*
X150395506Y-113555537D01*
X150505820Y-113614502D01*
X150625518Y-113650812D01*
X150750000Y-113663072D01*
X151214250Y-113660000D01*
X151373000Y-113501250D01*
X151373000Y-112627000D01*
X151627000Y-112627000D01*
X151627000Y-113501250D01*
X151785750Y-113660000D01*
X152250000Y-113663072D01*
X152374482Y-113650812D01*
X152494180Y-113614502D01*
X152604494Y-113555537D01*
X152701185Y-113476185D01*
X152780537Y-113379494D01*
X152839502Y-113269180D01*
X152875812Y-113149482D01*
X152883784Y-113068531D01*
X164139389Y-113068531D01*
X164181401Y-113358019D01*
X164279081Y-113633747D01*
X164352528Y-113771157D01*
X164601603Y-113848792D01*
X165450395Y-113000000D01*
X165809605Y-113000000D01*
X166658397Y-113848792D01*
X166907472Y-113771157D01*
X167033371Y-113507117D01*
X167105339Y-113223589D01*
X167120611Y-112931469D01*
X167078599Y-112641981D01*
X166980919Y-112366253D01*
X166907472Y-112228843D01*
X166658397Y-112151208D01*
X165809605Y-113000000D01*
X165450395Y-113000000D01*
X164601603Y-112151208D01*
X164352528Y-112228843D01*
X164226629Y-112492883D01*
X164154661Y-112776411D01*
X164139389Y-113068531D01*
X152883784Y-113068531D01*
X152888072Y-113025000D01*
X152885000Y-112785750D01*
X152726250Y-112627000D01*
X151627000Y-112627000D01*
X151373000Y-112627000D01*
X150273750Y-112627000D01*
X150115000Y-112785750D01*
X150111928Y-113025000D01*
X146234396Y-113025000D01*
X146154759Y-112945363D01*
X145922241Y-112790000D01*
X146154759Y-112634637D01*
X146354637Y-112434759D01*
X146511680Y-112199727D01*
X146619853Y-111938574D01*
X146675000Y-111661335D01*
X146675000Y-111378665D01*
X146619853Y-111101426D01*
X146511680Y-110840273D01*
X146354637Y-110605241D01*
X146154759Y-110405363D01*
X145922241Y-110250000D01*
X146154759Y-110094637D01*
X146354637Y-109894759D01*
X146511680Y-109659727D01*
X146619853Y-109398574D01*
X146675000Y-109121335D01*
X146675000Y-108838665D01*
X146619853Y-108561426D01*
X146523141Y-108327942D01*
X149936201Y-111741003D01*
X149959999Y-111770001D01*
X149988997Y-111793799D01*
X150075723Y-111864974D01*
X150120412Y-111888861D01*
X150111928Y-111975000D01*
X150115000Y-112214250D01*
X150273750Y-112373000D01*
X151046891Y-112373000D01*
X151047600Y-112373215D01*
X151218021Y-112390000D01*
X151781979Y-112390000D01*
X151952400Y-112373215D01*
X151953109Y-112373000D01*
X152726250Y-112373000D01*
X152885000Y-112214250D01*
X152888072Y-111975000D01*
X152875812Y-111850518D01*
X152839502Y-111730820D01*
X152804907Y-111666098D01*
X152868215Y-111457400D01*
X152890612Y-111230000D01*
X152868215Y-111002600D01*
X152801885Y-110783940D01*
X152700895Y-110595000D01*
X152801885Y-110406060D01*
X152829890Y-110313740D01*
X164145000Y-110313740D01*
X164145000Y-110606260D01*
X164202068Y-110893158D01*
X164314010Y-111163411D01*
X164476525Y-111406632D01*
X164683368Y-111613475D01*
X164856729Y-111729311D01*
X164781208Y-111971603D01*
X165630000Y-112820395D01*
X166478792Y-111971603D01*
X166403271Y-111729311D01*
X166576632Y-111613475D01*
X166783475Y-111406632D01*
X166945990Y-111163411D01*
X167057932Y-110893158D01*
X167115000Y-110606260D01*
X167115000Y-110313740D01*
X167057932Y-110026842D01*
X166945990Y-109756589D01*
X166783475Y-109513368D01*
X166576632Y-109306525D01*
X166333411Y-109144010D01*
X166063158Y-109032068D01*
X165776260Y-108975000D01*
X165483740Y-108975000D01*
X165196842Y-109032068D01*
X164926589Y-109144010D01*
X164683368Y-109306525D01*
X164476525Y-109513368D01*
X164314010Y-109756589D01*
X164202068Y-110026842D01*
X164145000Y-110313740D01*
X152829890Y-110313740D01*
X152868215Y-110187400D01*
X152890612Y-109960000D01*
X152868215Y-109732600D01*
X152801885Y-109513940D01*
X152694171Y-109312421D01*
X152549212Y-109135788D01*
X152372579Y-108990829D01*
X152171060Y-108883115D01*
X151952400Y-108816785D01*
X151781979Y-108800000D01*
X151218021Y-108800000D01*
X151047600Y-108816785D01*
X150828940Y-108883115D01*
X150627421Y-108990829D01*
X150450788Y-109135788D01*
X150305829Y-109312421D01*
X150198115Y-109513940D01*
X150131785Y-109732600D01*
X150126909Y-109782107D01*
X146675000Y-106330199D01*
X146675000Y-106298665D01*
X146619853Y-106021426D01*
X146511680Y-105760273D01*
X146354637Y-105525241D01*
X146154759Y-105325363D01*
X145922241Y-105170000D01*
X146154759Y-105014637D01*
X146354637Y-104814759D01*
X146511680Y-104579727D01*
X146619853Y-104318574D01*
X146675000Y-104041335D01*
X146675000Y-103758665D01*
X146619853Y-103481426D01*
X146511680Y-103220273D01*
X146354637Y-102985241D01*
X146154759Y-102785363D01*
X145922241Y-102630000D01*
X146154759Y-102474637D01*
X146354637Y-102274759D01*
X146511680Y-102039727D01*
X146619853Y-101778574D01*
X146675000Y-101501335D01*
X146675000Y-101218665D01*
X146638688Y-101036114D01*
X148785993Y-98888809D01*
X148814991Y-98865011D01*
X148864933Y-98804157D01*
X148909964Y-98749287D01*
X148980536Y-98617257D01*
X149023993Y-98473996D01*
X149034990Y-98362343D01*
X149034990Y-98362333D01*
X149038666Y-98325011D01*
X149034990Y-98287688D01*
X149034990Y-89703711D01*
X149078927Y-89659774D01*
X149192195Y-89490256D01*
X149270216Y-89301898D01*
X149309990Y-89101939D01*
X149309990Y-88898061D01*
X149270216Y-88698102D01*
X149192195Y-88509744D01*
X149078927Y-88340226D01*
X148934764Y-88196063D01*
X148765246Y-88082795D01*
X148576888Y-88004774D01*
X148376929Y-87965000D01*
X148173051Y-87965000D01*
X147973092Y-88004774D01*
X147784734Y-88082795D01*
X147615216Y-88196063D01*
X147471053Y-88340226D01*
X147357785Y-88509744D01*
X147279764Y-88698102D01*
X147239990Y-88898061D01*
X147239990Y-89101939D01*
X147279764Y-89301898D01*
X147357785Y-89490256D01*
X147471053Y-89659774D01*
X147514990Y-89703711D01*
X147514991Y-98010207D01*
X146675000Y-98850198D01*
X146675000Y-98678665D01*
X146619853Y-98401426D01*
X146511680Y-98140273D01*
X146354637Y-97905241D01*
X146154759Y-97705363D01*
X145922241Y-97550000D01*
X146154759Y-97394637D01*
X146354637Y-97194759D01*
X146511680Y-96959727D01*
X146619853Y-96698574D01*
X146675000Y-96421335D01*
X146675000Y-96138665D01*
X146619853Y-95861426D01*
X146511680Y-95600273D01*
X146354637Y-95365241D01*
X146154759Y-95165363D01*
X145922241Y-95010000D01*
X146154759Y-94854637D01*
X146354637Y-94654759D01*
X146511680Y-94419727D01*
X146619853Y-94158574D01*
X146675000Y-93881335D01*
X146675000Y-93598665D01*
X146619853Y-93321426D01*
X146511680Y-93060273D01*
X146354637Y-92825241D01*
X146154759Y-92625363D01*
X145922241Y-92470000D01*
X146154759Y-92314637D01*
X146354637Y-92114759D01*
X146511680Y-91879727D01*
X146619853Y-91618574D01*
X146675000Y-91341335D01*
X146675000Y-91058665D01*
X146619853Y-90781426D01*
X146511680Y-90520273D01*
X146354637Y-90285241D01*
X146154759Y-90085363D01*
X145922241Y-89930000D01*
X146154759Y-89774637D01*
X146354637Y-89574759D01*
X146511680Y-89339727D01*
X146619853Y-89078574D01*
X146675000Y-88801335D01*
X146675000Y-88518665D01*
X146619853Y-88241426D01*
X146511680Y-87980273D01*
X146354637Y-87745241D01*
X146154759Y-87545363D01*
X145922241Y-87390000D01*
X146154759Y-87234637D01*
X146354637Y-87034759D01*
X146511680Y-86799727D01*
X146619853Y-86538574D01*
X146675000Y-86261335D01*
X146675000Y-85978665D01*
X146619853Y-85701426D01*
X146511680Y-85440273D01*
X146354637Y-85205241D01*
X146154759Y-85005363D01*
X145922241Y-84850000D01*
X146154759Y-84694637D01*
X146354637Y-84494759D01*
X146511680Y-84259727D01*
X146619853Y-83998574D01*
X146675000Y-83721335D01*
X146675000Y-83438665D01*
X146619853Y-83161426D01*
X146511680Y-82900273D01*
X146354637Y-82665241D01*
X146154759Y-82465363D01*
X145919727Y-82308320D01*
X145909135Y-82303933D01*
X146095131Y-82192385D01*
X146303519Y-82003414D01*
X146471037Y-81777420D01*
X146591246Y-81523087D01*
X146619984Y-81428339D01*
X149740001Y-84548357D01*
X149740000Y-98165015D01*
X149698815Y-98198815D01*
X149619463Y-98295506D01*
X149560498Y-98405820D01*
X149524188Y-98525518D01*
X149511928Y-98650000D01*
X149511928Y-100350000D01*
X149524188Y-100474482D01*
X149560498Y-100594180D01*
X149619463Y-100704494D01*
X149698815Y-100801185D01*
X149795506Y-100880537D01*
X149905820Y-100939502D01*
X149978380Y-100961513D01*
X149846525Y-101093368D01*
X149684010Y-101336589D01*
X149572068Y-101606842D01*
X149515000Y-101893740D01*
X149515000Y-102186260D01*
X149572068Y-102473158D01*
X149684010Y-102743411D01*
X149846525Y-102986632D01*
X150053368Y-103193475D01*
X150227760Y-103310000D01*
X150053368Y-103426525D01*
X149846525Y-103633368D01*
X149684010Y-103876589D01*
X149572068Y-104146842D01*
X149515000Y-104433740D01*
X149515000Y-104726260D01*
X149572068Y-105013158D01*
X149684010Y-105283411D01*
X149846525Y-105526632D01*
X150053368Y-105733475D01*
X150296589Y-105895990D01*
X150566842Y-106007932D01*
X150853740Y-106065000D01*
X151146260Y-106065000D01*
X151433158Y-106007932D01*
X151703411Y-105895990D01*
X151946632Y-105733475D01*
X152153475Y-105526632D01*
X152315990Y-105283411D01*
X152427932Y-105013158D01*
X152458662Y-104858665D01*
X153405000Y-104858665D01*
X153405000Y-105141335D01*
X153460147Y-105418574D01*
X153568320Y-105679727D01*
X153725363Y-105914759D01*
X153925241Y-106114637D01*
X154160273Y-106271680D01*
X154421426Y-106379853D01*
X154698665Y-106435000D01*
X154981335Y-106435000D01*
X155258574Y-106379853D01*
X155519727Y-106271680D01*
X155754759Y-106114637D01*
X155954637Y-105914759D01*
X156111680Y-105679727D01*
X156219853Y-105418574D01*
X156275000Y-105141335D01*
X156275000Y-104858665D01*
X163565000Y-104858665D01*
X163565000Y-105141335D01*
X163620147Y-105418574D01*
X163728320Y-105679727D01*
X163885363Y-105914759D01*
X164085241Y-106114637D01*
X164320273Y-106271680D01*
X164581426Y-106379853D01*
X164858665Y-106435000D01*
X165141335Y-106435000D01*
X165418574Y-106379853D01*
X165679727Y-106271680D01*
X165914759Y-106114637D01*
X166114637Y-105914759D01*
X166271680Y-105679727D01*
X166379853Y-105418574D01*
X166435000Y-105141335D01*
X166435000Y-104858665D01*
X166379853Y-104581426D01*
X166271680Y-104320273D01*
X166114637Y-104085241D01*
X165914759Y-103885363D01*
X165679727Y-103728320D01*
X165418574Y-103620147D01*
X165141335Y-103565000D01*
X164858665Y-103565000D01*
X164581426Y-103620147D01*
X164320273Y-103728320D01*
X164085241Y-103885363D01*
X163885363Y-104085241D01*
X163728320Y-104320273D01*
X163620147Y-104581426D01*
X163565000Y-104858665D01*
X156275000Y-104858665D01*
X156219853Y-104581426D01*
X156111680Y-104320273D01*
X155954637Y-104085241D01*
X155754759Y-103885363D01*
X155519727Y-103728320D01*
X155258574Y-103620147D01*
X154981335Y-103565000D01*
X154698665Y-103565000D01*
X154421426Y-103620147D01*
X154160273Y-103728320D01*
X153925241Y-103885363D01*
X153725363Y-104085241D01*
X153568320Y-104320273D01*
X153460147Y-104581426D01*
X153405000Y-104858665D01*
X152458662Y-104858665D01*
X152485000Y-104726260D01*
X152485000Y-104433740D01*
X152427932Y-104146842D01*
X152315990Y-103876589D01*
X152153475Y-103633368D01*
X151946632Y-103426525D01*
X151772240Y-103310000D01*
X151946632Y-103193475D01*
X152153475Y-102986632D01*
X152315990Y-102743411D01*
X152427932Y-102473158D01*
X152485000Y-102186260D01*
X152485000Y-101893740D01*
X152427932Y-101606842D01*
X152315990Y-101336589D01*
X152153475Y-101093368D01*
X152021620Y-100961513D01*
X152094180Y-100939502D01*
X152204494Y-100880537D01*
X152301185Y-100801185D01*
X152380537Y-100704494D01*
X152439502Y-100594180D01*
X152475812Y-100474482D01*
X152488072Y-100350000D01*
X152488072Y-98650000D01*
X152475812Y-98525518D01*
X152439502Y-98405820D01*
X152380537Y-98295506D01*
X152301185Y-98198815D01*
X152204494Y-98119463D01*
X152094180Y-98060498D01*
X151974482Y-98024188D01*
X151850000Y-98011928D01*
X151760000Y-98011928D01*
X151760000Y-91398061D01*
X152465000Y-91398061D01*
X152465000Y-91601939D01*
X152490000Y-91727624D01*
X152490001Y-97450382D01*
X152485114Y-97500000D01*
X152504615Y-97697994D01*
X152562368Y-97888379D01*
X152629512Y-98013996D01*
X152656154Y-98063840D01*
X152782368Y-98217633D01*
X152820901Y-98249256D01*
X153624870Y-99053226D01*
X153696063Y-99159774D01*
X153840226Y-99303937D01*
X154009744Y-99417205D01*
X154198102Y-99495226D01*
X154398061Y-99535000D01*
X154601939Y-99535000D01*
X154801898Y-99495226D01*
X154990256Y-99417205D01*
X155159774Y-99303937D01*
X155303937Y-99159774D01*
X155417205Y-98990256D01*
X155495226Y-98801898D01*
X155535000Y-98601939D01*
X155535000Y-98570512D01*
X156559783Y-98570512D01*
X156601213Y-98850130D01*
X156696397Y-99116292D01*
X156761616Y-99238309D01*
X156748815Y-99248815D01*
X156669463Y-99345506D01*
X156610498Y-99455820D01*
X156574188Y-99575518D01*
X156561928Y-99700000D01*
X156561928Y-101300000D01*
X156574188Y-101424482D01*
X156610498Y-101544180D01*
X156669463Y-101654494D01*
X156748815Y-101751185D01*
X156845506Y-101830537D01*
X156955820Y-101889502D01*
X157075518Y-101925812D01*
X157200000Y-101938072D01*
X158800000Y-101938072D01*
X158924482Y-101925812D01*
X159044180Y-101889502D01*
X159154494Y-101830537D01*
X159251185Y-101751185D01*
X159330537Y-101654494D01*
X159389502Y-101544180D01*
X159425812Y-101424482D01*
X159438072Y-101300000D01*
X159438072Y-99700000D01*
X159425812Y-99575518D01*
X159389502Y-99455820D01*
X159330537Y-99345506D01*
X159251185Y-99248815D01*
X159238242Y-99238193D01*
X159279972Y-99150000D01*
X163511928Y-99150000D01*
X163511928Y-100850000D01*
X163524188Y-100974482D01*
X163560498Y-101094180D01*
X163619463Y-101204494D01*
X163698815Y-101301185D01*
X163795506Y-101380537D01*
X163905820Y-101439502D01*
X164025518Y-101475812D01*
X164150000Y-101488072D01*
X165850000Y-101488072D01*
X165974482Y-101475812D01*
X166094180Y-101439502D01*
X166204494Y-101380537D01*
X166301185Y-101301185D01*
X166380537Y-101204494D01*
X166439502Y-101094180D01*
X166475812Y-100974482D01*
X166488072Y-100850000D01*
X166488072Y-99150000D01*
X166475812Y-99025518D01*
X166439502Y-98905820D01*
X166380537Y-98795506D01*
X166301185Y-98698815D01*
X166204494Y-98619463D01*
X166094180Y-98560498D01*
X166013534Y-98536034D01*
X166097588Y-98460269D01*
X166271641Y-98226920D01*
X166396825Y-97964099D01*
X166441476Y-97816890D01*
X166320155Y-97587000D01*
X165127000Y-97587000D01*
X165127000Y-97607000D01*
X164873000Y-97607000D01*
X164873000Y-97587000D01*
X163679845Y-97587000D01*
X163558524Y-97816890D01*
X163603175Y-97964099D01*
X163728359Y-98226920D01*
X163902412Y-98460269D01*
X163986466Y-98536034D01*
X163905820Y-98560498D01*
X163795506Y-98619463D01*
X163698815Y-98698815D01*
X163619463Y-98795506D01*
X163560498Y-98905820D01*
X163524188Y-99025518D01*
X163511928Y-99150000D01*
X159279972Y-99150000D01*
X159357571Y-98986004D01*
X159426300Y-98711816D01*
X159440217Y-98429488D01*
X159398787Y-98149870D01*
X159303603Y-97883708D01*
X159236671Y-97758486D01*
X158992702Y-97686903D01*
X158179605Y-98500000D01*
X158193748Y-98514143D01*
X158014143Y-98693748D01*
X158000000Y-98679605D01*
X157985858Y-98693748D01*
X157806253Y-98514143D01*
X157820395Y-98500000D01*
X157007298Y-97686903D01*
X156763329Y-97758486D01*
X156642429Y-98013996D01*
X156573700Y-98288184D01*
X156559783Y-98570512D01*
X155535000Y-98570512D01*
X155535000Y-98398061D01*
X155495226Y-98198102D01*
X155417205Y-98009744D01*
X155303937Y-97840226D01*
X155159774Y-97696063D01*
X155053226Y-97624870D01*
X154935654Y-97507298D01*
X157186903Y-97507298D01*
X158000000Y-98320395D01*
X158813097Y-97507298D01*
X158741514Y-97263329D01*
X158486004Y-97142429D01*
X158211816Y-97073700D01*
X157929488Y-97059783D01*
X157649870Y-97101213D01*
X157383708Y-97196397D01*
X157258486Y-97263329D01*
X157186903Y-97507298D01*
X154935654Y-97507298D01*
X154510000Y-97081645D01*
X154510000Y-94898061D01*
X159715000Y-94898061D01*
X159715000Y-95101939D01*
X159754774Y-95301898D01*
X159832795Y-95490256D01*
X159946063Y-95659774D01*
X160090226Y-95803937D01*
X160259744Y-95917205D01*
X160448102Y-95995226D01*
X160648061Y-96035000D01*
X160851939Y-96035000D01*
X160977623Y-96010000D01*
X164872998Y-96010000D01*
X164872998Y-96139185D01*
X164643109Y-96018519D01*
X164368748Y-96115843D01*
X164118645Y-96264822D01*
X163902412Y-96459731D01*
X163728359Y-96693080D01*
X163603175Y-96955901D01*
X163558524Y-97103110D01*
X163679845Y-97333000D01*
X164873000Y-97333000D01*
X164873000Y-97313000D01*
X165127000Y-97313000D01*
X165127000Y-97333000D01*
X166320155Y-97333000D01*
X166441476Y-97103110D01*
X166396825Y-96955901D01*
X166271641Y-96693080D01*
X166097588Y-96459731D01*
X165881355Y-96264822D01*
X165631252Y-96115843D01*
X165356891Y-96018519D01*
X165127002Y-96139185D01*
X165127002Y-96010000D01*
X165450392Y-96010000D01*
X165500000Y-96014886D01*
X165697994Y-95995385D01*
X165698518Y-95995226D01*
X165888380Y-95937632D01*
X166063840Y-95843847D01*
X166217633Y-95717633D01*
X166249261Y-95679094D01*
X167053226Y-94875130D01*
X167159774Y-94803937D01*
X167303937Y-94659774D01*
X167417205Y-94490256D01*
X167495226Y-94301898D01*
X167535000Y-94101939D01*
X167535000Y-93898061D01*
X167495226Y-93698102D01*
X167417205Y-93509744D01*
X167303937Y-93340226D01*
X167159774Y-93196063D01*
X166990256Y-93082795D01*
X166801898Y-93004774D01*
X166601939Y-92965000D01*
X166398061Y-92965000D01*
X166198102Y-93004774D01*
X166009744Y-93082795D01*
X165840226Y-93196063D01*
X165696063Y-93340226D01*
X165624870Y-93446774D01*
X165081645Y-93990000D01*
X160977623Y-93990000D01*
X160851939Y-93965000D01*
X160648061Y-93965000D01*
X160448102Y-94004774D01*
X160259744Y-94082795D01*
X160090226Y-94196063D01*
X159946063Y-94340226D01*
X159832795Y-94509744D01*
X159754774Y-94698102D01*
X159715000Y-94898061D01*
X154510000Y-94898061D01*
X154510000Y-91727623D01*
X154535000Y-91601939D01*
X154535000Y-91398061D01*
X154495226Y-91198102D01*
X154417205Y-91009744D01*
X154303937Y-90840226D01*
X154159774Y-90696063D01*
X153990256Y-90582795D01*
X153801898Y-90504774D01*
X153601939Y-90465000D01*
X153398061Y-90465000D01*
X153198102Y-90504774D01*
X153009744Y-90582795D01*
X152840226Y-90696063D01*
X152696063Y-90840226D01*
X152582795Y-91009744D01*
X152504774Y-91198102D01*
X152465000Y-91398061D01*
X151760000Y-91398061D01*
X151760000Y-84179608D01*
X151764886Y-84130000D01*
X151745385Y-83932005D01*
X151687632Y-83741620D01*
X151593846Y-83566159D01*
X151499256Y-83450900D01*
X151467633Y-83412367D01*
X151429100Y-83380744D01*
X146675000Y-78626645D01*
X146675000Y-78358665D01*
X146619853Y-78081426D01*
X146511680Y-77820273D01*
X146354637Y-77585241D01*
X146154759Y-77385363D01*
X145919727Y-77228320D01*
X145658574Y-77120147D01*
X145381335Y-77065000D01*
X145098665Y-77065000D01*
X144821426Y-77120147D01*
X144560273Y-77228320D01*
X144325241Y-77385363D01*
X144125363Y-77585241D01*
X143968320Y-77820273D01*
X143860147Y-78081426D01*
X143805000Y-78358665D01*
X131438072Y-78358665D01*
X131438072Y-77700000D01*
X131425812Y-77575518D01*
X131389502Y-77455820D01*
X131330537Y-77345506D01*
X131251185Y-77248815D01*
X131154494Y-77169463D01*
X131044180Y-77110498D01*
X130924482Y-77074188D01*
X130800000Y-77061928D01*
X129200000Y-77061928D01*
X129075518Y-77074188D01*
X128955820Y-77110498D01*
X128845506Y-77169463D01*
X128748815Y-77248815D01*
X128669463Y-77345506D01*
X128610498Y-77455820D01*
X128574188Y-77575518D01*
X128561928Y-77700000D01*
X126886196Y-77700000D01*
X126980631Y-77558669D01*
X127149110Y-77151925D01*
X127235000Y-76720128D01*
X127235000Y-76279872D01*
X127149110Y-75848075D01*
X126980631Y-75441331D01*
X126736038Y-75075271D01*
X126424729Y-74763962D01*
X126058669Y-74519369D01*
X125651925Y-74350890D01*
X125220128Y-74265000D01*
X124779872Y-74265000D01*
X124348075Y-74350890D01*
X123941331Y-74519369D01*
X123575271Y-74763962D01*
X123263962Y-75075271D01*
X123019369Y-75441331D01*
X122850890Y-75848075D01*
X122765000Y-76279872D01*
X121660000Y-76279872D01*
X121660000Y-73160000D01*
X150802691Y-73160000D01*
X150805978Y-73166150D01*
%TA.AperFunction,Conductor*%
D22*
G36*
X150805978Y-73166150D02*
G01*
X150855624Y-73329811D01*
X150873000Y-73506234D01*
X150873000Y-81000000D01*
X150873612Y-81012448D01*
X150892827Y-81207538D01*
X150897683Y-81231956D01*
X150954588Y-81419549D01*
X150964116Y-81442550D01*
X151056526Y-81615437D01*
X151070358Y-81636138D01*
X151194721Y-81787675D01*
X151212325Y-81805279D01*
X151363862Y-81929642D01*
X151384563Y-81943474D01*
X151557450Y-82035884D01*
X151580451Y-82045412D01*
X151768044Y-82102317D01*
X151792462Y-82107173D01*
X151987552Y-82126388D01*
X152000000Y-82127000D01*
X173493766Y-82127000D01*
X173670189Y-82144376D01*
X173833850Y-82194022D01*
X173840000Y-82197309D01*
X173840001Y-119340000D01*
X121660000Y-119340000D01*
X121660000Y-115779872D01*
X122765000Y-115779872D01*
X122765000Y-116220128D01*
X122850890Y-116651925D01*
X123019369Y-117058669D01*
X123263962Y-117424729D01*
X123575271Y-117736038D01*
X123941331Y-117980631D01*
X124348075Y-118149110D01*
X124779872Y-118235000D01*
X125220128Y-118235000D01*
X125651925Y-118149110D01*
X126058669Y-117980631D01*
X126424729Y-117736038D01*
X126736038Y-117424729D01*
X126980631Y-117058669D01*
X127149110Y-116651925D01*
X127235000Y-116220128D01*
X127235000Y-115779872D01*
X127149110Y-115348075D01*
X126980631Y-114941331D01*
X126736038Y-114575271D01*
X126424729Y-114263962D01*
X126058669Y-114019369D01*
X125651925Y-113850890D01*
X125220128Y-113765000D01*
X124779872Y-113765000D01*
X124348075Y-113850890D01*
X123941331Y-114019369D01*
X123575271Y-114263962D01*
X123263962Y-114575271D01*
X123019369Y-114941331D01*
X122850890Y-115348075D01*
X122765000Y-115779872D01*
X121660000Y-115779872D01*
X121660000Y-88518665D01*
X128565000Y-88518665D01*
X128565000Y-88801335D01*
X128620147Y-89078574D01*
X128728320Y-89339727D01*
X128885363Y-89574759D01*
X129085241Y-89774637D01*
X129317759Y-89930000D01*
X129085241Y-90085363D01*
X128885363Y-90285241D01*
X128728320Y-90520273D01*
X128620147Y-90781426D01*
X128565000Y-91058665D01*
X128565000Y-91341335D01*
X128620147Y-91618574D01*
X128728320Y-91879727D01*
X128885363Y-92114759D01*
X129085241Y-92314637D01*
X129317759Y-92470000D01*
X129085241Y-92625363D01*
X128885363Y-92825241D01*
X128728320Y-93060273D01*
X128620147Y-93321426D01*
X128565000Y-93598665D01*
X128565000Y-93881335D01*
X128620147Y-94158574D01*
X128728320Y-94419727D01*
X128885363Y-94654759D01*
X129085241Y-94854637D01*
X129317759Y-95010000D01*
X129085241Y-95165363D01*
X128885363Y-95365241D01*
X128728320Y-95600273D01*
X128620147Y-95861426D01*
X128565000Y-96138665D01*
X128565000Y-96421335D01*
X128620147Y-96698574D01*
X128728320Y-96959727D01*
X128885363Y-97194759D01*
X129085241Y-97394637D01*
X129317759Y-97550000D01*
X129085241Y-97705363D01*
X128885363Y-97905241D01*
X128728320Y-98140273D01*
X128620147Y-98401426D01*
X128565000Y-98678665D01*
X128565000Y-98961335D01*
X128620147Y-99238574D01*
X128728320Y-99499727D01*
X128885363Y-99734759D01*
X129085241Y-99934637D01*
X129317759Y-100090000D01*
X129085241Y-100245363D01*
X128885363Y-100445241D01*
X128728320Y-100680273D01*
X128620147Y-100941426D01*
X128565000Y-101218665D01*
X128565000Y-101501335D01*
X128620147Y-101778574D01*
X128728320Y-102039727D01*
X128885363Y-102274759D01*
X129085241Y-102474637D01*
X129317759Y-102630000D01*
X129085241Y-102785363D01*
X128885363Y-102985241D01*
X128728320Y-103220273D01*
X128620147Y-103481426D01*
X128565000Y-103758665D01*
X128565000Y-104041335D01*
X128620147Y-104318574D01*
X128728320Y-104579727D01*
X128885363Y-104814759D01*
X129085241Y-105014637D01*
X129317759Y-105170000D01*
X129085241Y-105325363D01*
X128885363Y-105525241D01*
X128728320Y-105760273D01*
X128620147Y-106021426D01*
X128565000Y-106298665D01*
X128565000Y-106581335D01*
X128620147Y-106858574D01*
X128728320Y-107119727D01*
X128885363Y-107354759D01*
X129085241Y-107554637D01*
X129317759Y-107710000D01*
X129085241Y-107865363D01*
X128885363Y-108065241D01*
X128728320Y-108300273D01*
X128620147Y-108561426D01*
X128565000Y-108838665D01*
X128565000Y-109121335D01*
X128620147Y-109398574D01*
X128728320Y-109659727D01*
X128885363Y-109894759D01*
X129085241Y-110094637D01*
X129317759Y-110250000D01*
X129085241Y-110405363D01*
X128885363Y-110605241D01*
X128728320Y-110840273D01*
X128620147Y-111101426D01*
X128565000Y-111378665D01*
X128565000Y-111661335D01*
X128620147Y-111938574D01*
X128728320Y-112199727D01*
X128885363Y-112434759D01*
X129085241Y-112634637D01*
X129317759Y-112790000D01*
X129085241Y-112945363D01*
X128885363Y-113145241D01*
X128728320Y-113380273D01*
X128620147Y-113641426D01*
X128565000Y-113918665D01*
X128565000Y-114201335D01*
X128620147Y-114478574D01*
X128728320Y-114739727D01*
X128885363Y-114974759D01*
X129085241Y-115174637D01*
X129320273Y-115331680D01*
X129581426Y-115439853D01*
X129858665Y-115495000D01*
X130141335Y-115495000D01*
X130418574Y-115439853D01*
X130679727Y-115331680D01*
X130914759Y-115174637D01*
X131114637Y-114974759D01*
X131271680Y-114739727D01*
X131379853Y-114478574D01*
X131435000Y-114201335D01*
X131435000Y-113918665D01*
X131379853Y-113641426D01*
X131271680Y-113380273D01*
X131114637Y-113145241D01*
X130914759Y-112945363D01*
X130682241Y-112790000D01*
X130914759Y-112634637D01*
X131114637Y-112434759D01*
X131271680Y-112199727D01*
X131379853Y-111938574D01*
X131435000Y-111661335D01*
X131435000Y-111378665D01*
X131379853Y-111101426D01*
X131271680Y-110840273D01*
X131114637Y-110605241D01*
X130914759Y-110405363D01*
X130682241Y-110250000D01*
X130914759Y-110094637D01*
X131114637Y-109894759D01*
X131271680Y-109659727D01*
X131379853Y-109398574D01*
X131435000Y-109121335D01*
X131435000Y-108838665D01*
X131379853Y-108561426D01*
X131271680Y-108300273D01*
X131114637Y-108065241D01*
X130914759Y-107865363D01*
X130682241Y-107710000D01*
X130914759Y-107554637D01*
X131114637Y-107354759D01*
X131271680Y-107119727D01*
X131379853Y-106858574D01*
X131435000Y-106581335D01*
X131435000Y-106298665D01*
X131379853Y-106021426D01*
X131271680Y-105760273D01*
X131114637Y-105525241D01*
X130914759Y-105325363D01*
X130682241Y-105170000D01*
X130914759Y-105014637D01*
X131114637Y-104814759D01*
X131271680Y-104579727D01*
X131379853Y-104318574D01*
X131435000Y-104041335D01*
X131435000Y-103758665D01*
X131379853Y-103481426D01*
X131271680Y-103220273D01*
X131114637Y-102985241D01*
X130914759Y-102785363D01*
X130682241Y-102630000D01*
X130914759Y-102474637D01*
X131114637Y-102274759D01*
X131271680Y-102039727D01*
X131379853Y-101778574D01*
X131435000Y-101501335D01*
X131435000Y-101218665D01*
X131379853Y-100941426D01*
X131271680Y-100680273D01*
X131114637Y-100445241D01*
X130914759Y-100245363D01*
X130682241Y-100090000D01*
X130914759Y-99934637D01*
X131114637Y-99734759D01*
X131271680Y-99499727D01*
X131379853Y-99238574D01*
X131435000Y-98961335D01*
X131435000Y-98678665D01*
X131379853Y-98401426D01*
X131271680Y-98140273D01*
X131114637Y-97905241D01*
X130914759Y-97705363D01*
X130682241Y-97550000D01*
X130914759Y-97394637D01*
X131114637Y-97194759D01*
X131271680Y-96959727D01*
X131379853Y-96698574D01*
X131435000Y-96421335D01*
X131435000Y-96138665D01*
X131379853Y-95861426D01*
X131271680Y-95600273D01*
X131114637Y-95365241D01*
X130914759Y-95165363D01*
X130682241Y-95010000D01*
X130914759Y-94854637D01*
X131114637Y-94654759D01*
X131271680Y-94419727D01*
X131379853Y-94158574D01*
X131435000Y-93881335D01*
X131435000Y-93598665D01*
X131379853Y-93321426D01*
X131271680Y-93060273D01*
X131114637Y-92825241D01*
X130914759Y-92625363D01*
X130682241Y-92470000D01*
X130914759Y-92314637D01*
X131114637Y-92114759D01*
X131271680Y-91879727D01*
X131379853Y-91618574D01*
X131435000Y-91341335D01*
X131435000Y-91058665D01*
X131379853Y-90781426D01*
X131271680Y-90520273D01*
X131114637Y-90285241D01*
X130914759Y-90085363D01*
X130682241Y-89930000D01*
X130914759Y-89774637D01*
X131114637Y-89574759D01*
X131271680Y-89339727D01*
X131379853Y-89078574D01*
X131435000Y-88801335D01*
X131435000Y-88518665D01*
X131379853Y-88241426D01*
X131271680Y-87980273D01*
X131114637Y-87745241D01*
X130914759Y-87545363D01*
X130679727Y-87388320D01*
X130669135Y-87383933D01*
X130855131Y-87272385D01*
X131063519Y-87083414D01*
X131231037Y-86857420D01*
X131351246Y-86603087D01*
X131391904Y-86469039D01*
X131269915Y-86247000D01*
X130127000Y-86247000D01*
X130127000Y-86267000D01*
X129873000Y-86267000D01*
X129873000Y-86247000D01*
X128730085Y-86247000D01*
X128608096Y-86469039D01*
X128648754Y-86603087D01*
X128768963Y-86857420D01*
X128936481Y-87083414D01*
X129144869Y-87272385D01*
X129330865Y-87383933D01*
X129320273Y-87388320D01*
X129085241Y-87545363D01*
X128885363Y-87745241D01*
X128728320Y-87980273D01*
X128620147Y-88241426D01*
X128565000Y-88518665D01*
X121660000Y-88518665D01*
X121660000Y-76279872D01*
X122765000Y-76279872D01*
X122765000Y-76720128D01*
X122850890Y-77151925D01*
X123019369Y-77558669D01*
X123263962Y-77924729D01*
X123575271Y-78236038D01*
X123941331Y-78480631D01*
X124348075Y-78649110D01*
X124779872Y-78735000D01*
X125220128Y-78735000D01*
X125651925Y-78649110D01*
X126058669Y-78480631D01*
X126424729Y-78236038D01*
X126736038Y-77924729D01*
X126886196Y-77700000D01*
X128561928Y-77700000D01*
X128561928Y-79300000D01*
X128574188Y-79424482D01*
X128610498Y-79544180D01*
X128669463Y-79654494D01*
X128748815Y-79751185D01*
X128845506Y-79830537D01*
X128955820Y-79889502D01*
X129075518Y-79925812D01*
X129083961Y-79926643D01*
X128885363Y-80125241D01*
X128728320Y-80360273D01*
X128620147Y-80621426D01*
X128565000Y-80898665D01*
X128565000Y-81181335D01*
X128620147Y-81458574D01*
X128728320Y-81719727D01*
X128885363Y-81954759D01*
X129085241Y-82154637D01*
X129317759Y-82310000D01*
X129085241Y-82465363D01*
X128885363Y-82665241D01*
X128728320Y-82900273D01*
X128620147Y-83161426D01*
X128565000Y-83438665D01*
X128565000Y-83721335D01*
X128620147Y-83998574D01*
X128728320Y-84259727D01*
X128885363Y-84494759D01*
X129085241Y-84694637D01*
X129320273Y-84851680D01*
X129330865Y-84856067D01*
X129144869Y-84967615D01*
X128936481Y-85156586D01*
X128768963Y-85382580D01*
X128648754Y-85636913D01*
X128608096Y-85770961D01*
X128730085Y-85993000D01*
X129873000Y-85993000D01*
X129873000Y-85973000D01*
X130127000Y-85973000D01*
X130127000Y-85993000D01*
X131269915Y-85993000D01*
X131391904Y-85770961D01*
X131351246Y-85636913D01*
X131231037Y-85382580D01*
X131063519Y-85156586D01*
X130855131Y-84967615D01*
X130669135Y-84856067D01*
X130679727Y-84851680D01*
X130914759Y-84694637D01*
X131114637Y-84494759D01*
X131271680Y-84259727D01*
X131379853Y-83998574D01*
X131435000Y-83721335D01*
X131435000Y-83438665D01*
X131379853Y-83161426D01*
X131271680Y-82900273D01*
X131114637Y-82665241D01*
X130914759Y-82465363D01*
X130682241Y-82310000D01*
X130914759Y-82154637D01*
X131114637Y-81954759D01*
X131271680Y-81719727D01*
X131379853Y-81458574D01*
X131435000Y-81181335D01*
X131435000Y-80898665D01*
X131379853Y-80621426D01*
X131271680Y-80360273D01*
X131114637Y-80125241D01*
X130916039Y-79926643D01*
X130924482Y-79925812D01*
X131044180Y-79889502D01*
X131154494Y-79830537D01*
X131251185Y-79751185D01*
X131330537Y-79654494D01*
X131389502Y-79544180D01*
X131425812Y-79424482D01*
X131438072Y-79300000D01*
X131438072Y-78358665D01*
X143805000Y-78358665D01*
X143805000Y-78641335D01*
X143860147Y-78918574D01*
X143968320Y-79179727D01*
X144125363Y-79414759D01*
X144325241Y-79614637D01*
X144560273Y-79771680D01*
X144570865Y-79776067D01*
X144384869Y-79887615D01*
X144176481Y-80076586D01*
X144008963Y-80302580D01*
X143888754Y-80556913D01*
X143848096Y-80690961D01*
X143970085Y-80913000D01*
X145113000Y-80913000D01*
X145113000Y-80893000D01*
X145367000Y-80893000D01*
X145367000Y-80913000D01*
X145387000Y-80913000D01*
X145387000Y-81167000D01*
X145367000Y-81167000D01*
X145367000Y-81187000D01*
X145113000Y-81187000D01*
X145113000Y-81167000D01*
X143970085Y-81167000D01*
X143848096Y-81389039D01*
X143888754Y-81523087D01*
X144008963Y-81777420D01*
X144176481Y-82003414D01*
X144384869Y-82192385D01*
X144570865Y-82303933D01*
X144560273Y-82308320D01*
X144325241Y-82465363D01*
X144125363Y-82665241D01*
X143968320Y-82900273D01*
X143860147Y-83161426D01*
X143805000Y-83438665D01*
X143805000Y-83721335D01*
X143860147Y-83998574D01*
X143968320Y-84259727D01*
X144125363Y-84494759D01*
X144325241Y-84694637D01*
X144557759Y-84850000D01*
X144325241Y-85005363D01*
X144125363Y-85205241D01*
X143968320Y-85440273D01*
X143860147Y-85701426D01*
X143805000Y-85978665D01*
X143805000Y-86261335D01*
X143860147Y-86538574D01*
X143968320Y-86799727D01*
X144125363Y-87034759D01*
X144325241Y-87234637D01*
X144557759Y-87390000D01*
X144325241Y-87545363D01*
X144125363Y-87745241D01*
X143968320Y-87980273D01*
X143860147Y-88241426D01*
X143805000Y-88518665D01*
X143805000Y-88801335D01*
X143860147Y-89078574D01*
X143968320Y-89339727D01*
X144125363Y-89574759D01*
X144325241Y-89774637D01*
X144557759Y-89930000D01*
X144325241Y-90085363D01*
X144125363Y-90285241D01*
X143968320Y-90520273D01*
X143860147Y-90781426D01*
X143805000Y-91058665D01*
X143805000Y-91341335D01*
X143860147Y-91618574D01*
X143968320Y-91879727D01*
X144125363Y-92114759D01*
X144325241Y-92314637D01*
X144557759Y-92470000D01*
X144325241Y-92625363D01*
X144125363Y-92825241D01*
X143968320Y-93060273D01*
X143860147Y-93321426D01*
X143805000Y-93598665D01*
X143805000Y-93881335D01*
X143860147Y-94158574D01*
X143968320Y-94419727D01*
X144125363Y-94654759D01*
X144325241Y-94854637D01*
X144557759Y-95010000D01*
X144325241Y-95165363D01*
X144125363Y-95365241D01*
X143968320Y-95600273D01*
X143860147Y-95861426D01*
X143805000Y-96138665D01*
X143805000Y-96421335D01*
X143860147Y-96698574D01*
X143968320Y-96959727D01*
X144125363Y-97194759D01*
X144325241Y-97394637D01*
X144557759Y-97550000D01*
X144325241Y-97705363D01*
X144125363Y-97905241D01*
X143968320Y-98140273D01*
X143860147Y-98401426D01*
X143805000Y-98678665D01*
X143805000Y-98961335D01*
X143860147Y-99238574D01*
X143968320Y-99499727D01*
X144125363Y-99734759D01*
X144325241Y-99934637D01*
X144557759Y-100090000D01*
X144325241Y-100245363D01*
X144125363Y-100445241D01*
X143968320Y-100680273D01*
X143860147Y-100941426D01*
X143805000Y-101218665D01*
X143805000Y-101501335D01*
X143860147Y-101778574D01*
X143968320Y-102039727D01*
X144125363Y-102274759D01*
X144325241Y-102474637D01*
X144557759Y-102630000D01*
X144325241Y-102785363D01*
X144125363Y-102985241D01*
X143968320Y-103220273D01*
X143860147Y-103481426D01*
X143805000Y-103758665D01*
X143805000Y-104041335D01*
X143860147Y-104318574D01*
X143968320Y-104579727D01*
X144125363Y-104814759D01*
X144325241Y-105014637D01*
X144557759Y-105170000D01*
X144325241Y-105325363D01*
X144125363Y-105525241D01*
X143968320Y-105760273D01*
X143860147Y-106021426D01*
X143805000Y-106298665D01*
X143805000Y-106581335D01*
X143860147Y-106858574D01*
X143968320Y-107119727D01*
X144125363Y-107354759D01*
X144325241Y-107554637D01*
X144557759Y-107710000D01*
X144325241Y-107865363D01*
X144125363Y-108065241D01*
X143968320Y-108300273D01*
X143860147Y-108561426D01*
X143805000Y-108838665D01*
X143805000Y-109121335D01*
X143860147Y-109398574D01*
X143968320Y-109659727D01*
X144125363Y-109894759D01*
X144325241Y-110094637D01*
X144557759Y-110250000D01*
X144325241Y-110405363D01*
X144125363Y-110605241D01*
X143968320Y-110840273D01*
X143860147Y-111101426D01*
X143805000Y-111378665D01*
X143805000Y-111661335D01*
X143860147Y-111938574D01*
X143968320Y-112199727D01*
X144125363Y-112434759D01*
X144325241Y-112634637D01*
X144557759Y-112790000D01*
X144325241Y-112945363D01*
X144125363Y-113145241D01*
X143968320Y-113380273D01*
X143860147Y-113641426D01*
X143805000Y-113918665D01*
X143805000Y-114201335D01*
X143860147Y-114478574D01*
X143968320Y-114739727D01*
X144125363Y-114974759D01*
X144325241Y-115174637D01*
X144560273Y-115331680D01*
X144821426Y-115439853D01*
X145098665Y-115495000D01*
X145381335Y-115495000D01*
X145658574Y-115439853D01*
X145769900Y-115393740D01*
X164145000Y-115393740D01*
X164145000Y-115686260D01*
X164202068Y-115973158D01*
X164314010Y-116243411D01*
X164476525Y-116486632D01*
X164683368Y-116693475D01*
X164926589Y-116855990D01*
X165196842Y-116967932D01*
X165483740Y-117025000D01*
X165776260Y-117025000D01*
X166063158Y-116967932D01*
X166333411Y-116855990D01*
X166576632Y-116693475D01*
X166783475Y-116486632D01*
X166945990Y-116243411D01*
X167057932Y-115973158D01*
X167096379Y-115779872D01*
X168265000Y-115779872D01*
X168265000Y-116220128D01*
X168350890Y-116651925D01*
X168519369Y-117058669D01*
X168763962Y-117424729D01*
X169075271Y-117736038D01*
X169441331Y-117980631D01*
X169848075Y-118149110D01*
X170279872Y-118235000D01*
X170720128Y-118235000D01*
X171151925Y-118149110D01*
X171558669Y-117980631D01*
X171924729Y-117736038D01*
X172236038Y-117424729D01*
X172480631Y-117058669D01*
X172649110Y-116651925D01*
X172735000Y-116220128D01*
X172735000Y-115779872D01*
X172649110Y-115348075D01*
X172480631Y-114941331D01*
X172236038Y-114575271D01*
X171924729Y-114263962D01*
X171558669Y-114019369D01*
X171151925Y-113850890D01*
X170720128Y-113765000D01*
X170279872Y-113765000D01*
X169848075Y-113850890D01*
X169441331Y-114019369D01*
X169075271Y-114263962D01*
X168763962Y-114575271D01*
X168519369Y-114941331D01*
X168350890Y-115348075D01*
X168265000Y-115779872D01*
X167096379Y-115779872D01*
X167115000Y-115686260D01*
X167115000Y-115393740D01*
X167057932Y-115106842D01*
X166945990Y-114836589D01*
X166783475Y-114593368D01*
X166576632Y-114386525D01*
X166403271Y-114270689D01*
X166478792Y-114028397D01*
X165630000Y-113179605D01*
X164781208Y-114028397D01*
X164856729Y-114270689D01*
X164683368Y-114386525D01*
X164476525Y-114593368D01*
X164314010Y-114836589D01*
X164202068Y-115106842D01*
X164145000Y-115393740D01*
X145769900Y-115393740D01*
X145919727Y-115331680D01*
X146154759Y-115174637D01*
X146354637Y-114974759D01*
X146511680Y-114739727D01*
X146619853Y-114478574D01*
X146675000Y-114201335D01*
X146675000Y-113918665D01*
X146619853Y-113641426D01*
X146511680Y-113380273D01*
X146354637Y-113145241D01*
X146234396Y-113025000D01*
X150111928Y-113025000D01*
X150124188Y-113149482D01*
X150160498Y-113269180D01*
X150219463Y-113379494D01*
X150298815Y-113476185D01*
X150395506Y-113555537D01*
X150505820Y-113614502D01*
X150625518Y-113650812D01*
X150750000Y-113663072D01*
X151214250Y-113660000D01*
X151373000Y-113501250D01*
X151373000Y-112627000D01*
X151627000Y-112627000D01*
X151627000Y-113501250D01*
X151785750Y-113660000D01*
X152250000Y-113663072D01*
X152374482Y-113650812D01*
X152494180Y-113614502D01*
X152604494Y-113555537D01*
X152701185Y-113476185D01*
X152780537Y-113379494D01*
X152839502Y-113269180D01*
X152875812Y-113149482D01*
X152883784Y-113068531D01*
X164139389Y-113068531D01*
X164181401Y-113358019D01*
X164279081Y-113633747D01*
X164352528Y-113771157D01*
X164601603Y-113848792D01*
X165450395Y-113000000D01*
X165809605Y-113000000D01*
X166658397Y-113848792D01*
X166907472Y-113771157D01*
X167033371Y-113507117D01*
X167105339Y-113223589D01*
X167120611Y-112931469D01*
X167078599Y-112641981D01*
X166980919Y-112366253D01*
X166907472Y-112228843D01*
X166658397Y-112151208D01*
X165809605Y-113000000D01*
X165450395Y-113000000D01*
X164601603Y-112151208D01*
X164352528Y-112228843D01*
X164226629Y-112492883D01*
X164154661Y-112776411D01*
X164139389Y-113068531D01*
X152883784Y-113068531D01*
X152888072Y-113025000D01*
X152885000Y-112785750D01*
X152726250Y-112627000D01*
X151627000Y-112627000D01*
X151373000Y-112627000D01*
X150273750Y-112627000D01*
X150115000Y-112785750D01*
X150111928Y-113025000D01*
X146234396Y-113025000D01*
X146154759Y-112945363D01*
X145922241Y-112790000D01*
X146154759Y-112634637D01*
X146354637Y-112434759D01*
X146511680Y-112199727D01*
X146619853Y-111938574D01*
X146675000Y-111661335D01*
X146675000Y-111378665D01*
X146619853Y-111101426D01*
X146511680Y-110840273D01*
X146354637Y-110605241D01*
X146154759Y-110405363D01*
X145922241Y-110250000D01*
X146154759Y-110094637D01*
X146354637Y-109894759D01*
X146511680Y-109659727D01*
X146619853Y-109398574D01*
X146675000Y-109121335D01*
X146675000Y-108838665D01*
X146619853Y-108561426D01*
X146523141Y-108327942D01*
X149936201Y-111741003D01*
X149959999Y-111770001D01*
X149988997Y-111793799D01*
X150075723Y-111864974D01*
X150120412Y-111888861D01*
X150111928Y-111975000D01*
X150115000Y-112214250D01*
X150273750Y-112373000D01*
X151046891Y-112373000D01*
X151047600Y-112373215D01*
X151218021Y-112390000D01*
X151781979Y-112390000D01*
X151952400Y-112373215D01*
X151953109Y-112373000D01*
X152726250Y-112373000D01*
X152885000Y-112214250D01*
X152888072Y-111975000D01*
X152875812Y-111850518D01*
X152839502Y-111730820D01*
X152804907Y-111666098D01*
X152868215Y-111457400D01*
X152890612Y-111230000D01*
X152868215Y-111002600D01*
X152801885Y-110783940D01*
X152700895Y-110595000D01*
X152801885Y-110406060D01*
X152829890Y-110313740D01*
X164145000Y-110313740D01*
X164145000Y-110606260D01*
X164202068Y-110893158D01*
X164314010Y-111163411D01*
X164476525Y-111406632D01*
X164683368Y-111613475D01*
X164856729Y-111729311D01*
X164781208Y-111971603D01*
X165630000Y-112820395D01*
X166478792Y-111971603D01*
X166403271Y-111729311D01*
X166576632Y-111613475D01*
X166783475Y-111406632D01*
X166945990Y-111163411D01*
X167057932Y-110893158D01*
X167115000Y-110606260D01*
X167115000Y-110313740D01*
X167057932Y-110026842D01*
X166945990Y-109756589D01*
X166783475Y-109513368D01*
X166576632Y-109306525D01*
X166333411Y-109144010D01*
X166063158Y-109032068D01*
X165776260Y-108975000D01*
X165483740Y-108975000D01*
X165196842Y-109032068D01*
X164926589Y-109144010D01*
X164683368Y-109306525D01*
X164476525Y-109513368D01*
X164314010Y-109756589D01*
X164202068Y-110026842D01*
X164145000Y-110313740D01*
X152829890Y-110313740D01*
X152868215Y-110187400D01*
X152890612Y-109960000D01*
X152868215Y-109732600D01*
X152801885Y-109513940D01*
X152694171Y-109312421D01*
X152549212Y-109135788D01*
X152372579Y-108990829D01*
X152171060Y-108883115D01*
X151952400Y-108816785D01*
X151781979Y-108800000D01*
X151218021Y-108800000D01*
X151047600Y-108816785D01*
X150828940Y-108883115D01*
X150627421Y-108990829D01*
X150450788Y-109135788D01*
X150305829Y-109312421D01*
X150198115Y-109513940D01*
X150131785Y-109732600D01*
X150126909Y-109782107D01*
X146675000Y-106330199D01*
X146675000Y-106298665D01*
X146619853Y-106021426D01*
X146511680Y-105760273D01*
X146354637Y-105525241D01*
X146154759Y-105325363D01*
X145922241Y-105170000D01*
X146154759Y-105014637D01*
X146354637Y-104814759D01*
X146511680Y-104579727D01*
X146619853Y-104318574D01*
X146675000Y-104041335D01*
X146675000Y-103758665D01*
X146619853Y-103481426D01*
X146511680Y-103220273D01*
X146354637Y-102985241D01*
X146154759Y-102785363D01*
X145922241Y-102630000D01*
X146154759Y-102474637D01*
X146354637Y-102274759D01*
X146511680Y-102039727D01*
X146619853Y-101778574D01*
X146675000Y-101501335D01*
X146675000Y-101218665D01*
X146638688Y-101036114D01*
X148785993Y-98888809D01*
X148814991Y-98865011D01*
X148864933Y-98804157D01*
X148909964Y-98749287D01*
X148980536Y-98617257D01*
X149023993Y-98473996D01*
X149034990Y-98362343D01*
X149034990Y-98362333D01*
X149038666Y-98325011D01*
X149034990Y-98287688D01*
X149034990Y-89703711D01*
X149078927Y-89659774D01*
X149192195Y-89490256D01*
X149270216Y-89301898D01*
X149309990Y-89101939D01*
X149309990Y-88898061D01*
X149270216Y-88698102D01*
X149192195Y-88509744D01*
X149078927Y-88340226D01*
X148934764Y-88196063D01*
X148765246Y-88082795D01*
X148576888Y-88004774D01*
X148376929Y-87965000D01*
X148173051Y-87965000D01*
X147973092Y-88004774D01*
X147784734Y-88082795D01*
X147615216Y-88196063D01*
X147471053Y-88340226D01*
X147357785Y-88509744D01*
X147279764Y-88698102D01*
X147239990Y-88898061D01*
X147239990Y-89101939D01*
X147279764Y-89301898D01*
X147357785Y-89490256D01*
X147471053Y-89659774D01*
X147514990Y-89703711D01*
X147514991Y-98010207D01*
X146675000Y-98850198D01*
X146675000Y-98678665D01*
X146619853Y-98401426D01*
X146511680Y-98140273D01*
X146354637Y-97905241D01*
X146154759Y-97705363D01*
X145922241Y-97550000D01*
X146154759Y-97394637D01*
X146354637Y-97194759D01*
X146511680Y-96959727D01*
X146619853Y-96698574D01*
X146675000Y-96421335D01*
X146675000Y-96138665D01*
X146619853Y-95861426D01*
X146511680Y-95600273D01*
X146354637Y-95365241D01*
X146154759Y-95165363D01*
X145922241Y-95010000D01*
X146154759Y-94854637D01*
X146354637Y-94654759D01*
X146511680Y-94419727D01*
X146619853Y-94158574D01*
X146675000Y-93881335D01*
X146675000Y-93598665D01*
X146619853Y-93321426D01*
X146511680Y-93060273D01*
X146354637Y-92825241D01*
X146154759Y-92625363D01*
X145922241Y-92470000D01*
X146154759Y-92314637D01*
X146354637Y-92114759D01*
X146511680Y-91879727D01*
X146619853Y-91618574D01*
X146675000Y-91341335D01*
X146675000Y-91058665D01*
X146619853Y-90781426D01*
X146511680Y-90520273D01*
X146354637Y-90285241D01*
X146154759Y-90085363D01*
X145922241Y-89930000D01*
X146154759Y-89774637D01*
X146354637Y-89574759D01*
X146511680Y-89339727D01*
X146619853Y-89078574D01*
X146675000Y-88801335D01*
X146675000Y-88518665D01*
X146619853Y-88241426D01*
X146511680Y-87980273D01*
X146354637Y-87745241D01*
X146154759Y-87545363D01*
X145922241Y-87390000D01*
X146154759Y-87234637D01*
X146354637Y-87034759D01*
X146511680Y-86799727D01*
X146619853Y-86538574D01*
X146675000Y-86261335D01*
X146675000Y-85978665D01*
X146619853Y-85701426D01*
X146511680Y-85440273D01*
X146354637Y-85205241D01*
X146154759Y-85005363D01*
X145922241Y-84850000D01*
X146154759Y-84694637D01*
X146354637Y-84494759D01*
X146511680Y-84259727D01*
X146619853Y-83998574D01*
X146675000Y-83721335D01*
X146675000Y-83438665D01*
X146619853Y-83161426D01*
X146511680Y-82900273D01*
X146354637Y-82665241D01*
X146154759Y-82465363D01*
X145919727Y-82308320D01*
X145909135Y-82303933D01*
X146095131Y-82192385D01*
X146303519Y-82003414D01*
X146471037Y-81777420D01*
X146591246Y-81523087D01*
X146619984Y-81428339D01*
X149740001Y-84548357D01*
X149740000Y-98165015D01*
X149698815Y-98198815D01*
X149619463Y-98295506D01*
X149560498Y-98405820D01*
X149524188Y-98525518D01*
X149511928Y-98650000D01*
X149511928Y-100350000D01*
X149524188Y-100474482D01*
X149560498Y-100594180D01*
X149619463Y-100704494D01*
X149698815Y-100801185D01*
X149795506Y-100880537D01*
X149905820Y-100939502D01*
X149978380Y-100961513D01*
X149846525Y-101093368D01*
X149684010Y-101336589D01*
X149572068Y-101606842D01*
X149515000Y-101893740D01*
X149515000Y-102186260D01*
X149572068Y-102473158D01*
X149684010Y-102743411D01*
X149846525Y-102986632D01*
X150053368Y-103193475D01*
X150227760Y-103310000D01*
X150053368Y-103426525D01*
X149846525Y-103633368D01*
X149684010Y-103876589D01*
X149572068Y-104146842D01*
X149515000Y-104433740D01*
X149515000Y-104726260D01*
X149572068Y-105013158D01*
X149684010Y-105283411D01*
X149846525Y-105526632D01*
X150053368Y-105733475D01*
X150296589Y-105895990D01*
X150566842Y-106007932D01*
X150853740Y-106065000D01*
X151146260Y-106065000D01*
X151433158Y-106007932D01*
X151703411Y-105895990D01*
X151946632Y-105733475D01*
X152153475Y-105526632D01*
X152315990Y-105283411D01*
X152427932Y-105013158D01*
X152458662Y-104858665D01*
X153405000Y-104858665D01*
X153405000Y-105141335D01*
X153460147Y-105418574D01*
X153568320Y-105679727D01*
X153725363Y-105914759D01*
X153925241Y-106114637D01*
X154160273Y-106271680D01*
X154421426Y-106379853D01*
X154698665Y-106435000D01*
X154981335Y-106435000D01*
X155258574Y-106379853D01*
X155519727Y-106271680D01*
X155754759Y-106114637D01*
X155954637Y-105914759D01*
X156111680Y-105679727D01*
X156219853Y-105418574D01*
X156275000Y-105141335D01*
X156275000Y-104858665D01*
X163565000Y-104858665D01*
X163565000Y-105141335D01*
X163620147Y-105418574D01*
X163728320Y-105679727D01*
X163885363Y-105914759D01*
X164085241Y-106114637D01*
X164320273Y-106271680D01*
X164581426Y-106379853D01*
X164858665Y-106435000D01*
X165141335Y-106435000D01*
X165418574Y-106379853D01*
X165679727Y-106271680D01*
X165914759Y-106114637D01*
X166114637Y-105914759D01*
X166271680Y-105679727D01*
X166379853Y-105418574D01*
X166435000Y-105141335D01*
X166435000Y-104858665D01*
X166379853Y-104581426D01*
X166271680Y-104320273D01*
X166114637Y-104085241D01*
X165914759Y-103885363D01*
X165679727Y-103728320D01*
X165418574Y-103620147D01*
X165141335Y-103565000D01*
X164858665Y-103565000D01*
X164581426Y-103620147D01*
X164320273Y-103728320D01*
X164085241Y-103885363D01*
X163885363Y-104085241D01*
X163728320Y-104320273D01*
X163620147Y-104581426D01*
X163565000Y-104858665D01*
X156275000Y-104858665D01*
X156219853Y-104581426D01*
X156111680Y-104320273D01*
X155954637Y-104085241D01*
X155754759Y-103885363D01*
X155519727Y-103728320D01*
X155258574Y-103620147D01*
X154981335Y-103565000D01*
X154698665Y-103565000D01*
X154421426Y-103620147D01*
X154160273Y-103728320D01*
X153925241Y-103885363D01*
X153725363Y-104085241D01*
X153568320Y-104320273D01*
X153460147Y-104581426D01*
X153405000Y-104858665D01*
X152458662Y-104858665D01*
X152485000Y-104726260D01*
X152485000Y-104433740D01*
X152427932Y-104146842D01*
X152315990Y-103876589D01*
X152153475Y-103633368D01*
X151946632Y-103426525D01*
X151772240Y-103310000D01*
X151946632Y-103193475D01*
X152153475Y-102986632D01*
X152315990Y-102743411D01*
X152427932Y-102473158D01*
X152485000Y-102186260D01*
X152485000Y-101893740D01*
X152427932Y-101606842D01*
X152315990Y-101336589D01*
X152153475Y-101093368D01*
X152021620Y-100961513D01*
X152094180Y-100939502D01*
X152204494Y-100880537D01*
X152301185Y-100801185D01*
X152380537Y-100704494D01*
X152439502Y-100594180D01*
X152475812Y-100474482D01*
X152488072Y-100350000D01*
X152488072Y-98650000D01*
X152475812Y-98525518D01*
X152439502Y-98405820D01*
X152380537Y-98295506D01*
X152301185Y-98198815D01*
X152204494Y-98119463D01*
X152094180Y-98060498D01*
X151974482Y-98024188D01*
X151850000Y-98011928D01*
X151760000Y-98011928D01*
X151760000Y-91398061D01*
X152465000Y-91398061D01*
X152465000Y-91601939D01*
X152490000Y-91727624D01*
X152490001Y-97450382D01*
X152485114Y-97500000D01*
X152504615Y-97697994D01*
X152562368Y-97888379D01*
X152629512Y-98013996D01*
X152656154Y-98063840D01*
X152782368Y-98217633D01*
X152820901Y-98249256D01*
X153624870Y-99053226D01*
X153696063Y-99159774D01*
X153840226Y-99303937D01*
X154009744Y-99417205D01*
X154198102Y-99495226D01*
X154398061Y-99535000D01*
X154601939Y-99535000D01*
X154801898Y-99495226D01*
X154990256Y-99417205D01*
X155159774Y-99303937D01*
X155303937Y-99159774D01*
X155417205Y-98990256D01*
X155495226Y-98801898D01*
X155535000Y-98601939D01*
X155535000Y-98570512D01*
X156559783Y-98570512D01*
X156601213Y-98850130D01*
X156696397Y-99116292D01*
X156761616Y-99238309D01*
X156748815Y-99248815D01*
X156669463Y-99345506D01*
X156610498Y-99455820D01*
X156574188Y-99575518D01*
X156561928Y-99700000D01*
X156561928Y-101300000D01*
X156574188Y-101424482D01*
X156610498Y-101544180D01*
X156669463Y-101654494D01*
X156748815Y-101751185D01*
X156845506Y-101830537D01*
X156955820Y-101889502D01*
X157075518Y-101925812D01*
X157200000Y-101938072D01*
X158800000Y-101938072D01*
X158924482Y-101925812D01*
X159044180Y-101889502D01*
X159154494Y-101830537D01*
X159251185Y-101751185D01*
X159330537Y-101654494D01*
X159389502Y-101544180D01*
X159425812Y-101424482D01*
X159438072Y-101300000D01*
X159438072Y-99700000D01*
X159425812Y-99575518D01*
X159389502Y-99455820D01*
X159330537Y-99345506D01*
X159251185Y-99248815D01*
X159238242Y-99238193D01*
X159279972Y-99150000D01*
X163511928Y-99150000D01*
X163511928Y-100850000D01*
X163524188Y-100974482D01*
X163560498Y-101094180D01*
X163619463Y-101204494D01*
X163698815Y-101301185D01*
X163795506Y-101380537D01*
X163905820Y-101439502D01*
X164025518Y-101475812D01*
X164150000Y-101488072D01*
X165850000Y-101488072D01*
X165974482Y-101475812D01*
X166094180Y-101439502D01*
X166204494Y-101380537D01*
X166301185Y-101301185D01*
X166380537Y-101204494D01*
X166439502Y-101094180D01*
X166475812Y-100974482D01*
X166488072Y-100850000D01*
X166488072Y-99150000D01*
X166475812Y-99025518D01*
X166439502Y-98905820D01*
X166380537Y-98795506D01*
X166301185Y-98698815D01*
X166204494Y-98619463D01*
X166094180Y-98560498D01*
X166013534Y-98536034D01*
X166097588Y-98460269D01*
X166271641Y-98226920D01*
X166396825Y-97964099D01*
X166441476Y-97816890D01*
X166320155Y-97587000D01*
X165127000Y-97587000D01*
X165127000Y-97607000D01*
X164873000Y-97607000D01*
X164873000Y-97587000D01*
X163679845Y-97587000D01*
X163558524Y-97816890D01*
X163603175Y-97964099D01*
X163728359Y-98226920D01*
X163902412Y-98460269D01*
X163986466Y-98536034D01*
X163905820Y-98560498D01*
X163795506Y-98619463D01*
X163698815Y-98698815D01*
X163619463Y-98795506D01*
X163560498Y-98905820D01*
X163524188Y-99025518D01*
X163511928Y-99150000D01*
X159279972Y-99150000D01*
X159357571Y-98986004D01*
X159426300Y-98711816D01*
X159440217Y-98429488D01*
X159398787Y-98149870D01*
X159303603Y-97883708D01*
X159236671Y-97758486D01*
X158992702Y-97686903D01*
X158179605Y-98500000D01*
X158193748Y-98514143D01*
X158014143Y-98693748D01*
X158000000Y-98679605D01*
X157985858Y-98693748D01*
X157806253Y-98514143D01*
X157820395Y-98500000D01*
X157007298Y-97686903D01*
X156763329Y-97758486D01*
X156642429Y-98013996D01*
X156573700Y-98288184D01*
X156559783Y-98570512D01*
X155535000Y-98570512D01*
X155535000Y-98398061D01*
X155495226Y-98198102D01*
X155417205Y-98009744D01*
X155303937Y-97840226D01*
X155159774Y-97696063D01*
X155053226Y-97624870D01*
X154935654Y-97507298D01*
X157186903Y-97507298D01*
X158000000Y-98320395D01*
X158813097Y-97507298D01*
X158741514Y-97263329D01*
X158486004Y-97142429D01*
X158211816Y-97073700D01*
X157929488Y-97059783D01*
X157649870Y-97101213D01*
X157383708Y-97196397D01*
X157258486Y-97263329D01*
X157186903Y-97507298D01*
X154935654Y-97507298D01*
X154510000Y-97081645D01*
X154510000Y-94898061D01*
X159715000Y-94898061D01*
X159715000Y-95101939D01*
X159754774Y-95301898D01*
X159832795Y-95490256D01*
X159946063Y-95659774D01*
X160090226Y-95803937D01*
X160259744Y-95917205D01*
X160448102Y-95995226D01*
X160648061Y-96035000D01*
X160851939Y-96035000D01*
X160977623Y-96010000D01*
X164872998Y-96010000D01*
X164872998Y-96139185D01*
X164643109Y-96018519D01*
X164368748Y-96115843D01*
X164118645Y-96264822D01*
X163902412Y-96459731D01*
X163728359Y-96693080D01*
X163603175Y-96955901D01*
X163558524Y-97103110D01*
X163679845Y-97333000D01*
X164873000Y-97333000D01*
X164873000Y-97313000D01*
X165127000Y-97313000D01*
X165127000Y-97333000D01*
X166320155Y-97333000D01*
X166441476Y-97103110D01*
X166396825Y-96955901D01*
X166271641Y-96693080D01*
X166097588Y-96459731D01*
X165881355Y-96264822D01*
X165631252Y-96115843D01*
X165356891Y-96018519D01*
X165127002Y-96139185D01*
X165127002Y-96010000D01*
X165450392Y-96010000D01*
X165500000Y-96014886D01*
X165697994Y-95995385D01*
X165698518Y-95995226D01*
X165888380Y-95937632D01*
X166063840Y-95843847D01*
X166217633Y-95717633D01*
X166249261Y-95679094D01*
X167053226Y-94875130D01*
X167159774Y-94803937D01*
X167303937Y-94659774D01*
X167417205Y-94490256D01*
X167495226Y-94301898D01*
X167535000Y-94101939D01*
X167535000Y-93898061D01*
X167495226Y-93698102D01*
X167417205Y-93509744D01*
X167303937Y-93340226D01*
X167159774Y-93196063D01*
X166990256Y-93082795D01*
X166801898Y-93004774D01*
X166601939Y-92965000D01*
X166398061Y-92965000D01*
X166198102Y-93004774D01*
X166009744Y-93082795D01*
X165840226Y-93196063D01*
X165696063Y-93340226D01*
X165624870Y-93446774D01*
X165081645Y-93990000D01*
X160977623Y-93990000D01*
X160851939Y-93965000D01*
X160648061Y-93965000D01*
X160448102Y-94004774D01*
X160259744Y-94082795D01*
X160090226Y-94196063D01*
X159946063Y-94340226D01*
X159832795Y-94509744D01*
X159754774Y-94698102D01*
X159715000Y-94898061D01*
X154510000Y-94898061D01*
X154510000Y-91727623D01*
X154535000Y-91601939D01*
X154535000Y-91398061D01*
X154495226Y-91198102D01*
X154417205Y-91009744D01*
X154303937Y-90840226D01*
X154159774Y-90696063D01*
X153990256Y-90582795D01*
X153801898Y-90504774D01*
X153601939Y-90465000D01*
X153398061Y-90465000D01*
X153198102Y-90504774D01*
X153009744Y-90582795D01*
X152840226Y-90696063D01*
X152696063Y-90840226D01*
X152582795Y-91009744D01*
X152504774Y-91198102D01*
X152465000Y-91398061D01*
X151760000Y-91398061D01*
X151760000Y-84179608D01*
X151764886Y-84130000D01*
X151745385Y-83932005D01*
X151687632Y-83741620D01*
X151593846Y-83566159D01*
X151499256Y-83450900D01*
X151467633Y-83412367D01*
X151429100Y-83380744D01*
X146675000Y-78626645D01*
X146675000Y-78358665D01*
X146619853Y-78081426D01*
X146511680Y-77820273D01*
X146354637Y-77585241D01*
X146154759Y-77385363D01*
X145919727Y-77228320D01*
X145658574Y-77120147D01*
X145381335Y-77065000D01*
X145098665Y-77065000D01*
X144821426Y-77120147D01*
X144560273Y-77228320D01*
X144325241Y-77385363D01*
X144125363Y-77585241D01*
X143968320Y-77820273D01*
X143860147Y-78081426D01*
X143805000Y-78358665D01*
X131438072Y-78358665D01*
X131438072Y-77700000D01*
X131425812Y-77575518D01*
X131389502Y-77455820D01*
X131330537Y-77345506D01*
X131251185Y-77248815D01*
X131154494Y-77169463D01*
X131044180Y-77110498D01*
X130924482Y-77074188D01*
X130800000Y-77061928D01*
X129200000Y-77061928D01*
X129075518Y-77074188D01*
X128955820Y-77110498D01*
X128845506Y-77169463D01*
X128748815Y-77248815D01*
X128669463Y-77345506D01*
X128610498Y-77455820D01*
X128574188Y-77575518D01*
X128561928Y-77700000D01*
X126886196Y-77700000D01*
X126980631Y-77558669D01*
X127149110Y-77151925D01*
X127235000Y-76720128D01*
X127235000Y-76279872D01*
X127149110Y-75848075D01*
X126980631Y-75441331D01*
X126736038Y-75075271D01*
X126424729Y-74763962D01*
X126058669Y-74519369D01*
X125651925Y-74350890D01*
X125220128Y-74265000D01*
X124779872Y-74265000D01*
X124348075Y-74350890D01*
X123941331Y-74519369D01*
X123575271Y-74763962D01*
X123263962Y-75075271D01*
X123019369Y-75441331D01*
X122850890Y-75848075D01*
X122765000Y-76279872D01*
X121660000Y-76279872D01*
X121660000Y-73160000D01*
X150802691Y-73160000D01*
X150805978Y-73166150D01*
G37*
%TD.AperFunction*%
M02*
